{
copyright = "Copyright 2019 The Angelica Project Authors (https://github.com/vladimirnikolic1/Angelica) ";
designer = "Vladimir Nikolic";
designerURL = "coroflot.com/vladimirnikolic";
familyName = Fantastik;
customParameters = (
{
name = glyphOrder;
value = (
.notdef,
uni0000,
uni000D,
space,
exclam,
quotedbl,
numbersign,
dollar,
percent,
ampersand,
quotesingle,
parenleft,
parenright,
asterisk,
plus,
comma,
hyphen,
period,
slash,
zero,
one,
two,
three,
four,
five,
six,
seven,
eight,
nine,
colon,
semicolon,
less,
equal,
greater,
question,
at,
A,
B,
C,
D,
E,
F,
G,
H,
I,
J,
K,
L,
M,
N,
O,
P,
Q,
R,
S,
T,
U,
V,
W,
X,
Y,
Z,
bracketleft,
backslash,
bracketright,
asciicircum,
underscore,
grave,
a,
b,
c,
d,
e,
f,
g,
h,
i,
j,
k,
l,
m,
n,
o,
p,
q,
r,
s,
t,
u,
v,
w,
x,
y,
z,
braceleft,
bar,
braceright,
asciitilde,
uni00A0,
exclamdown,
cent,
sterling,
yen,
section,
dieresis,
copyright,
ordfeminine,
registered,
macron,
degree,
acute,
paragraph,
periodcentered,
cedilla,
ordmasculine,
questiondown,
Agrave,
Aacute,
Acircumflex,
Atilde,
Adieresis,
Aring,
AE,
Ccedilla,
Egrave,
Eacute,
Ecircumflex,
Edieresis,
Igrave,
Iacute,
Icircumflex,
Idieresis,
Eth,
Ntilde,
Ograve,
Oacute,
Ocircumflex,
Otilde,
Odieresis,
multiply,
Oslash,
Ugrave,
Uacute,
Ucircumflex,
Udieresis,
Yacute,
Thorn,
germandbls,
agrave,
aacute,
acircumflex,
atilde,
adieresis,
aring,
ae,
ccedilla,
egrave,
eacute,
ecircumflex,
edieresis,
igrave,
iacute,
icircumflex,
idieresis,
eth,
ntilde,
ograve,
oacute,
ocircumflex,
otilde,
odieresis,
divide,
oslash,
ugrave,
uacute,
ucircumflex,
udieresis,
yacute,
thorn,
ydieresis,
Amacron,
amacron,
Abreve,
abreve,
Aogonek,
aogonek,
Cacute,
cacute,
Cdotaccent,
cdotaccent,
Ccaron,
ccaron,
Dcaron,
dcaron,
Dcroat,
dcroat,
Emacron,
emacron,
Edotaccent,
edotaccent,
Eogonek,
eogonek,
Ecaron,
ecaron,
Gbreve,
gbreve,
Gdotaccent,
gdotaccent,
uni0122,
uni0123,
Hbar,
hbar,
Imacron,
imacron,
Iogonek,
iogonek,
Idotaccent,
dotlessi,
uni0136,
uni0137,
Lacute,
lacute,
uni013B,
uni013C,
Lcaron,
lcaron,

glyphs = (
{
glyphname = .notdef;
layers = (
{
layerId = "CEEBABA5-0094-4467-BB67-138482C8FCD7";
paths = (
{
nodes = (
"-31 695 LINE",
"-31 0 LINE",
"-591 0 LINE",
"-591 695 LINE"
);
},
{
nodes = (
"-100 69 LINE",
"-100 626 LINE",
"-517 626 LINE",
"-517 69 LINE"
);
}
);
width = 0;
}
);
},
{
glyphname = exclam;
layers = (
{
layerId = "CEEBABA5-0094-4467-BB67-138482C8FCD7";
paths = (
{
nodes = (
"40 91 LINE",
"349 91 LINE",
"349 0 LINE",
"40 0 LINE"
);
},
{
nodes = (
"40 695 LINE",
"349 695 LINE",
"349 147 LINE",
"40 147 LINE"
);
}
);
width = 390;
}
);
unicode = 0021;
},
{
glyphname = quotedbl;
layers = (
{
layerId = "CEEBABA5-0094-4467-BB67-138482C8FCD7";
paths = (
{
nodes = (
"185 408 LINE",
"58 408 LINE",
"32 700 LINE",
"234 700 LINE"
);
},
{
nodes = (
"417 408 LINE",
"290 408 LINE",
"264 700 LINE",
"466 700 LINE"
);
}
);
width = 485;
}
);
unicode = 0022;
},
{
glyphname = numbersign;
layers = (
{
layerId = "CEEBABA5-0094-4467-BB67-138482C8FCD7";
paths = (
{
nodes = (
"322 258 LINE",
"340 342 LINE",
"290 342 LINE",
"272 258 LINE"
);
},
{
nodes = (
"451 434 LINE",
"563 434 LINE",
"543 342 LINE",
"432 342 LINE",
"414 258 LINE",
"525 258 LINE",
"506 166 LINE",
"394 166 LINE",
"366 33 LINE",
"274 33 LINE",
"302 166 LINE",
"252 166 LINE",
"224 33 LINE",
"132 33 LINE",
"160 166 LINE",
"26 166 LINE",
"45 258 LINE",
"180 258 LINE",
"198 342 LINE",
"63 342 LINE",
"83 434 LINE",
"217 434 LINE",
"248 580 LINE",
"340 580 LINE",
"309 434 LINE",
"359 434 LINE",
"390 580 LINE",
"482 580 LINE"
);
}
);
width = 593;
}
);
unicode = 0023;
},
{
glyphname = dollar;
layers = (
{
layerId = "CEEBABA5-0094-4467-BB67-138482C8FCD7";
paths = (
{
nodes = (
"252 0 LINE SMOOTH",
"209 0 OFFCURVE",
"133 33 OFFCURVE",
"77 89 OFFCURVE",
"44 165 OFFCURVE",
"44 208 QCURVE SMOOTH",
"44 278 LINE",
"322 278 LINE",
"322 347 LINE",
"218 347 LINE SMOOTH",
"182 347 OFFCURVE",
"119 374 OFFCURVE",
"71 422 OFFCURVE",
"44 485 OFFCURVE",
"44 521 QCURVE SMOOTH",
"44 557 OFFCURVE",
"71 620 OFFCURVE",
"119 668 OFFCURVE",
"182 695 OFFCURVE",
"218 695 QCURVE SMOOTH",
"322 695 LINE",
"322 867 LINE",
"397 867 LINE",
"397 695 LINE",
"461 695 LINE SMOOTH",
"504 695 OFFCURVE",
"580 662 OFFCURVE",
"637 605 OFFCURVE",
"670 529 OFFCURVE",
"670 486 QCURVE",
"600 486 LINE",
"600 515 OFFCURVE",
"578 566 OFFCURVE",
"541 603 OFFCURVE",
"490 625 OFFCURVE",
"461 625 QCURVE",
"461 417 LINE",
"504 417 OFFCURVE",
"579 385 OFFCURVE",
"636 329 OFFCURVE",
"669 254 OFFCURVE",
"669 211 QCURVE SMOOTH",
"669 168 OFFCURVE",
"637 92 OFFCURVE",
"580 34 OFFCURVE",
"504 0 OFFCURVE",
"461 0 QCURVE SMOOTH",
"397 0 LINE",
"397 -164 LINE",
"322 -164 LINE",
"322 0 LINE"
);
},
{
nodes = (
"461 69 LINE",
"490 69 OFFCURVE",
"541 91 OFFCURVE",
"578 128 OFFCURVE",
"600 179 OFFCURVE",
"600 208 QCURVE SMOOTH",
"600 237 OFFCURVE",
"578 288 OFFCURVE",
"541 325 OFFCURVE",
"490 347 OFFCURVE",
"461 347 QCURVE SMOOTH",
"397 347 LINE",
"397 278 LINE",
"461 278 LINE"
);
}
);
width = 719;
}
);
unicode = 0024;
},
{
glyphname = percent;
layers = (
{
layerId = "CEEBABA5-0094-4467-BB67-138482C8FCD7";
paths = (
{
nodes = (
"1108 695 LINE",
"788 0 LINE",
"354 0 LINE",
"674 695 LINE"
);
},
{
nodes = (
"442 389 LINE SMOOTH",
"442 361 OFFCURVE",
"418 312 OFFCURVE",
"378 275 OFFCURVE",
"326 254 OFFCURVE",
"298 254 QCURVE SMOOTH",
"171 254 LINE SMOOTH",
"141 254 OFFCURVE",
"89 276 OFFCURVE",
"50 313 OFFCURVE",
"27 364 OFFCURVE",
"27 393 QCURVE SMOOTH",
"27 555 LINE SMOOTH",
"27 584 OFFCURVE",
"50 635 OFFCURVE",
"89 673 OFFCURVE",
"141 695 OFFCURVE",
"171 695 QCURVE SMOOTH",
"298 695 LINE SMOOTH",
"328 695 OFFCURVE",
"380 673 OFFCURVE",
"419 635 OFFCURVE",
"442 584 OFFCURVE",
"442 555 QCURVE SMOOTH"
);
},
{
nodes = (
"315 330 LINE",
"341 337 OFFCURVE",
"366 379 OFFCURVE",
"366 407 QCURVE SMOOTH",
"366 555 LINE SMOOTH",
"366 578 OFFCURVE",
"336 613 OFFCURVE",
"315 618 QCURVE"
);
},
{
nodes = (
"1390 135 LINE SMOOTH",
"1390 107 OFFCURVE",
"1366 58 OFFCURVE",
"1326 21 OFFCURVE",
"1274 0 OFFCURVE",
"1246 0 QCURVE SMOOTH",
"1119 0 LINE SMOOTH",
"1089 0 OFFCURVE",
"1037 22 OFFCURVE",
"998 59 OFFCURVE",
"975 110 OFFCURVE",
"975 139 QCURVE SMOOTH",
"975 301 LINE SMOOTH",
"975 330 OFFCURVE",
"998 381 OFFCURVE",
"1037 419 OFFCURVE",
"1089 441 OFFCURVE",
"1119 441 QCURVE SMOOTH",
"1246 441 LINE SMOOTH",
"1276 441 OFFCURVE",
"1328 419 OFFCURVE",
"1367 381 OFFCURVE",
"1390 330 OFFCURVE",
"1390 301 QCURVE SMOOTH"
);
},
{
nodes = (
"1263 76 LINE",
"1289 83 OFFCURVE",
"1314 125 OFFCURVE",
"1314 153 QCURVE SMOOTH",
"1314 301 LINE SMOOTH",
"1314 324 OFFCURVE",
"1284 359 OFFCURVE",
"1263 364 QCURVE"
);
}
);
width = 1411;
}
);
unicode = 0025;
},
{
glyphname = ampersand;
layers = (
{
layerId = "CEEBABA5-0094-4467-BB67-138482C8FCD7";
paths = (
{
nodes = (
"590 418 LINE",
"590 461 LINE",
"661 461 LINE",
"661 460 LINE",
"661 455 LINE",
"661 454 LINE",
"661 453 LINE",
"661 451 LINE",
"661 450 LINE",
"661 442 LINE",
"661 441 LINE",
"661 439 LINE",
"661 434 OFFCURVE",
"661 423 OFFCURVE",
"660 418 QCURVE",
"665 419 OFFCURVE",
"674 419 OFFCURVE",
"679 419 QCURVE",
"680 419 LINE",
"681 419 LINE",
"684 419 LINE",
"686 419 LINE",
"699 419 LINE",
"699 346 LINE",
"660 346 LINE",
"659 314 OFFCURVE",
"659 267 OFFCURVE",
"659 250 QCURVE SMOOTH",
"659 243 LINE",
"659 242 LINE",
"659 241 LINE",
"659 234 LINE",
"659 233 LINE",
"659 232 LINE",
"659 231 LINE",
"659 230 LINE",
"659 225 LINE",
"659 224 LINE",
"659 223 LINE",
"659 213 LINE",
"659 212 LINE",
"659 211 LINE",
"659 167 OFFCURVE",
"627 90 OFFCURVE",
"570 33 OFFCURVE",
"494 0 OFFCURVE",
"449 0 QCURVE SMOOTH",
"241 0 LINE SMOOTH",
"196 0 OFFCURVE",
"120 33 OFFCURVE",
"63 91 OFFCURVE",
"31 168 OFFCURVE",
"31 212 QCURVE SMOOTH",
"31 269 OFFCURVE",
"83 357 OFFCURVE",
"131 386 QCURVE",
"100 411 OFFCURVE",
"66 480 OFFCURVE",
"66 519 QCURVE SMOOTH",
"66 556 OFFCURVE",
"93 620 OFFCURVE",
"140 668 OFFCURVE",
"204 695 OFFCURVE",
"241 695 QCURVE SMOOTH",
"486 695 LINE SMOOTH",
"523 695 OFFCURVE",
"585 669 OFFCURVE",
"631 623 OFFCURVE",
"658 561 OFFCURVE",
"660 525 QCURVE",
"590 525 LINE",
"588 570 OFFCURVE",
"531 626 OFFCURVE",
"486 626 QCURVE",
"449 627 LINE",
"449 417 LINE"
);
},
{
nodes = (
"590 346 LINE",
"449 346 LINE",
"449 70 LINE",
"479 70 OFFCURVE",
"531 92 OFFCURVE",
"568 129 OFFCURVE",
"590 180 OFFCURVE",
"590 209 QCURVE SMOOTH"
);
}
);
width = 724;
}
);
unicode = 0026;
},
{
glyphname = quotesingle;
layers = (
{
layerId = "CEEBABA5-0094-4467-BB67-138482C8FCD7";
paths = (
{
nodes = (
"183 408 LINE",
"56 408 LINE",
"30 700 LINE",
"232 700 LINE"
);
}
);
width = 260;
}
);
unicode = 0027;
},
{
glyphname = parenleft;
layers = (
{
layerId = "CEEBABA5-0094-4467-BB67-138482C8FCD7";
paths = (
{
nodes = (
"238 -83 LINE SMOOTH",
"195 -83 OFFCURVE",
"120 -51 OFFCURVE",
"63 6 OFFCURVE",
"30 81 OFFCURVE",
"30 125 QCURVE SMOOTH",
"30 591 LINE SMOOTH",
"30 634 OFFCURVE",
"63 710 OFFCURVE",
"119 767 OFFCURVE",
"195 800 OFFCURVE",
"238 800 QCURVE SMOOTH",
"460 800 LINE",
"460 730 LINE",
"337 732 LINE",
"337 -14 LINE",
"460 -14 LINE",
"460 -83 LINE"
);
}
);
width = 481;
}
);
unicode = 0028;
},
{
glyphname = parenright;
layers = (
{
layerId = "CEEBABA5-0094-4467-BB67-138482C8FCD7";
paths = (
{
nodes = (
"460 125 LINE SMOOTH",
"460 81 OFFCURVE",
"427 6 OFFCURVE",
"370 -51 OFFCURVE",
"295 -83 OFFCURVE",
"252 -83 QCURVE SMOOTH",
"30 -83 LINE",
"30 -14 LINE",
"153 -14 LINE",
"153 732 LINE",
"30 730 LINE",
"30 800 LINE",
"252 800 LINE SMOOTH",
"295 800 OFFCURVE",
"371 767 OFFCURVE",
"427 710 OFFCURVE",
"460 634 OFFCURVE",
"460 591 QCURVE SMOOTH"
);
}
);
width = 481;
}
);
unicode = 0029;
},
{
glyphname = asterisk;
layers = (
{
layerId = "CEEBABA5-0094-4467-BB67-138482C8FCD7";
paths = (
{
nodes = (
"191 246 LINE",
"165 226 OFFCURVE",
"111 180 OFFCURVE",
"88 163 QCURVE",
"20 248 LINE",
"158 359 LINE",
"20 469 LINE",
"88 555 LINE",
"191 472 LINE",
"191 606 LINE",
"299 606 LINE",
"299 472 LINE",
"403 555 LINE",
"471 470 LINE",
"332 359 LINE",
"471 247 LINE",
"403 163 LINE",
"299 246 LINE",
"299 129 LINE",
"191 129 LINE"
);
}
);
width = 502;
}
);
unicode = 002A;
},
{
glyphname = plus;
layers = (
{
layerId = "CEEBABA5-0094-4467-BB67-138482C8FCD7";
paths = (
{
nodes = (
"233 566 LINE",
"308 566 LINE",
"308 360 LINE",
"504 360 LINE",
"504 285 LINE",
"308 285 LINE",
"308 87 LINE",
"233 87 LINE",
"233 285 LINE",
"25 285 LINE",
"25 360 LINE",
"233 360 LINE"
);
}
);
width = 537;
}
);
unicode = 002B;
},
{
glyphname = comma;
layers = (
{
layerId = "CEEBABA5-0094-4467-BB67-138482C8FCD7";
paths = (
{
nodes = (
"36 92 LINE",
"144 92 LINE",
"144 1 LINE",
"36 -66 LINE"
);
}
);
width = 166;
}
);
unicode = 002C;
},
{
glyphname = hyphen;
layers = (
{
layerId = "CEEBABA5-0094-4467-BB67-138482C8FCD7";
paths = (
{
nodes = (
"362 324 LINE",
"30 324 LINE",
"30 406 LINE",
"362 406 LINE"
);
}
);
width = 396;
}
);
unicode = 002D;
},
{
glyphname = period;
layers = (
{
layerId = "CEEBABA5-0094-4467-BB67-138482C8FCD7";
paths = (
{
nodes = (
"144 2 LINE",
"36 2 LINE",
"36 110 LINE",
"144 110 LINE"
);
}
);
width = 177;
}
);
unicode = 002E;
},
{
glyphname = slash;
layers = (
{
layerId = "CEEBABA5-0094-4467-BB67-138482C8FCD7";
paths = (
{
nodes = (
"245 729 LINE",
"97 -46 LINE",
"39 -46 LINE",
"187 729 LINE"
);
}
);
width = 301;
}
);
unicode = 002F;
},
{
glyphname = zero;
layers = (
{
layerId = "CEEBABA5-0094-4467-BB67-138482C8FCD7";
paths = (
{
nodes = (
"447 695 LINE SMOOTH",
"490 695 OFFCURVE",
"566 662 OFFCURVE",
"622 605 OFFCURVE",
"655 529 OFFCURVE",
"655 486 QCURVE SMOOTH",
"655 201 LINE SMOOTH",
"655 159 OFFCURVE",
"620 86 OFFCURVE",
"563 32 OFFCURVE",
"487 0 OFFCURVE",
"447 0 QCURVE SMOOTH",
"238 0 LINE SMOOTH",
"195 0 OFFCURVE",
"119 33 OFFCURVE",
"63 89 OFFCURVE",
"30 165 OFFCURVE",
"30 208 QCURVE SMOOTH",
"30 486 LINE SMOOTH",
"30 529 OFFCURVE",
"63 605 OFFCURVE",
"119 662 OFFCURVE",
"195 695 OFFCURVE",
"238 695 QCURVE SMOOTH"
);
},
{
nodes = (
"586 486 LINE SMOOTH",
"586 515 OFFCURVE",
"564 566 OFFCURVE",
"527 603 OFFCURVE",
"476 625 OFFCURVE",
"447 625 QCURVE",
"337 627 LINE",
"337 69 LINE",
"447 69 LINE SMOOTH",
"484 69 OFFCURVE",
"536 95 OFFCURVE",
"570 139 OFFCURVE",
"586 199 OFFCURVE",
"586 232 QCURVE SMOOTH"
);
}
);
width = 685;
}
);
unicode = 0030;
},
{
glyphname = one;
layers = (
{
layerId = "CEEBABA5-0094-4467-BB67-138482C8FCD7";
paths = (
{
nodes = (
"546 695 LINE",
"546 0 LINE",
"128 0 LINE",
"128 556 LINE",
"94 487 LINE",
"24 487 LINE",
"128 695 LINE"
);
}
);
width = 587;
}
);
unicode = 0031;
},
{
glyphname = two;
layers = (
{
layerId = "CEEBABA5-0094-4467-BB67-138482C8FCD7";
paths = (
{
nodes = (
"661 328 LINE SMOOTH",
"661 289 OFFCURVE",
"637 222 OFFCURVE",
"592 171 OFFCURVE",
"527 142 OFFCURVE",
"487 142 QCURVE SMOOTH",
"245 142 LINE",
"245 70 LINE",
"661 70 LINE",
"661 0 LINE",
"36 0 LINE",
"36 178 LINE SMOOTH",
"36 193 OFFCURVE",
"37 223 OFFCURVE",
"40 237 QCURVE SMOOTH",
"47 273 OFFCURVE",
"85 334 OFFCURVE",
"140 379 OFFCURVE",
"208 404 OFFCURVE",
"244 404 QCURVE",
"244 625 LINE",
"215 625 OFFCURVE",
"165 603 OFFCURVE",
"128 566 OFFCURVE",
"106 515 OFFCURVE",
"106 487 QCURVE",
"36 487 LINE",
"36 521 OFFCURVE",
"58 585 OFFCURVE",
"98 639 OFFCURVE",
"153 678 OFFCURVE",
"186 687 QCURVE SMOOTH",
"205 692 OFFCURVE",
"243 696 OFFCURVE",
"262 696 QCURVE SMOOTH",
"301 696 OFFCURVE",
"379 697 OFFCURVE",
"418 697 QCURVE SMOOTH",
"470 697 LINE SMOOTH",
"508 697 OFFCURVE",
"577 674 OFFCURVE",
"630 629 OFFCURVE",
"661 565 OFFCURVE",
"661 524 QCURVE SMOOTH"
);
}
);
width = 697;
}
);
unicode = 0032;
},
{
glyphname = three;
layers = (
{
layerId = "CEEBABA5-0094-4467-BB67-138482C8FCD7";
paths = (
{
nodes = (
"483 694 LINE SMOOTH",
"519 694 OFFCURVE",
"582 667 OFFCURVE",
"630 620 OFFCURVE",
"657 557 OFFCURVE",
"657 521 QCURVE SMOOTH",
"657 485 OFFCURVE",
"630 422 OFFCURVE",
"582 374 OFFCURVE",
"519 347 OFFCURVE",
"483 347 QCURVE",
"519 347 OFFCURVE",
"582 320 OFFCURVE",
"630 273 OFFCURVE",
"657 210 OFFCURVE",
"657 174 QCURVE SMOOTH",
"657 138 OFFCURVE",
"630 75 OFFCURVE",
"582 27 OFFCURVE",
"519 0 OFFCURVE",
"483 0 QCURVE SMOOTH",
"240 0 LINE SMOOTH",
"197 0 OFFCURVE",
"121 33 OFFCURVE",
"65 89 OFFCURVE",
"32 165 OFFCURVE",
"32 208 QCURVE",
"101 208 LINE",
"101 179 OFFCURVE",
"123 129 OFFCURVE",
"161 91 OFFCURVE",
"211 69 OFFCURVE",
"240 69 QCURVE",
"240 312 LINE",
"163 312 LINE",
"163 382 LINE",
"240 382 LINE",
"240 625 LINE",
"211 625 OFFCURVE",
"160 603 OFFCURVE",
"123 566 OFFCURVE",
"101 515 OFFCURVE",
"101 486 QCURVE",
"32 486 LINE",
"32 529 OFFCURVE",
"65 605 OFFCURVE",
"121 661 OFFCURVE",
"197 694 OFFCURVE",
"240 694 QCURVE SMOOTH"
);
}
);
width = 693;
}
);
unicode = 0033;
},
{
glyphname = four;
layers = (
{
layerId = "CEEBABA5-0094-4467-BB67-138482C8FCD7";
paths = (
{
nodes = (
"104 417 LINE",
"159 417 LINE",
"159 541 LINE"
);
},
{
nodes = (
"34 417 LINE",
"159 695 LINE",
"577 695 LINE",
"577 417 LINE",
"646 417 LINE",
"646 348 LINE",
"577 348 LINE",
"577 0 LINE",
"159 0 LINE",
"159 348 LINE",
"34 348 LINE"
);
}
);
width = 677;
}
);
unicode = 0034;
},
{
glyphname = five;
layers = (
{
layerId = "CEEBABA5-0094-4467-BB67-138482C8FCD7";
paths = (
{
nodes = (
"666 173 LINE SMOOTH",
"666 137 OFFCURVE",
"639 74 OFFCURVE",
"591 27 OFFCURVE",
"528 0 OFFCURVE",
"492 0 QCURVE SMOOTH",
"249 0 LINE SMOOTH",
"206 0 OFFCURVE",
"130 33 OFFCURVE",
"73 89 OFFCURVE",
"40 165 OFFCURVE",
"40 208 QCURVE",
"110 208 LINE",
"110 179 OFFCURVE",
"132 128 OFFCURVE",
"169 91 OFFCURVE",
"220 69 OFFCURVE",
"249 69 QCURVE",
"249 382 LINE",
"40 382 LINE",
"40 694 LINE",
"666 694 LINE",
"666 625 LINE",
"249 625 LINE",
"249 451 LINE",
"492 451 LINE SMOOTH",
"528 451 OFFCURVE",
"591 424 OFFCURVE",
"639 376 OFFCURVE",
"666 313 OFFCURVE",
"666 277 QCURVE SMOOTH"
);
}
);
width = 709;
}
);
unicode = 0035;
},
{
glyphname = six;
layers = (
{
layerId = "CEEBABA5-0094-4467-BB67-138482C8FCD7";
paths = (
{
nodes = (
"595 487 LINE",
"595 516 OFFCURVE",
"573 567 OFFCURVE",
"536 604 OFFCURVE",
"485 626 OFFCURVE",
"456 626 QCURVE",
"456 417 LINE",
"499 417 OFFCURVE",
"575 385 OFFCURVE",
"632 329 OFFCURVE",
"665 253 OFFCURVE",
"665 210 QCURVE SMOOTH",
"665 166 OFFCURVE",
"633 89 OFFCURVE",
"577 32 OFFCURVE",
"501 0 OFFCURVE",
"456 0 QCURVE SMOOTH",
"248 0 LINE SMOOTH",
"205 0 OFFCURVE",
"129 33 OFFCURVE",
"72 90 OFFCURVE",
"39 166 OFFCURVE",
"39 209 QCURVE SMOOTH",
"39 522 LINE SMOOTH",
"39 558 OFFCURVE",
"66 621 OFFCURVE",
"114 668 OFFCURVE",
"177 695 OFFCURVE",
"213 695 QCURVE SMOOTH",
"456 695 LINE SMOOTH",
"499 695 OFFCURVE",
"575 662 OFFCURVE",
"632 606 OFFCURVE",
"665 530 OFFCURVE",
"665 487 QCURVE"
);
},
{
nodes = (
"595 237 OFFCURVE",
"573 288 OFFCURVE",
"535 326 OFFCURVE",
"484 348 OFFCURVE",
"456 348 QCURVE",
"456 70 LINE",
"485 70 OFFCURVE",
"536 92 OFFCURVE",
"573 129 OFFCURVE",
"595 180 OFFCURVE",
"595 209 QCURVE SMOOTH"
);
}
);
width = 697;
}
);
unicode = 0036;
},
{
glyphname = seven;
layers = (
{
layerId = "CEEBABA5-0094-4467-BB67-138482C8FCD7";
paths = (
{
nodes = (
"765 695 LINE",
"452 0 LINE",
"35 0 LINE",
"316 626 LINE",
"35 626 LINE",
"35 695 LINE"
);
}
);
width = 787;
}
);
unicode = 0037;
},
{
glyphname = eight;
layers = (
{
layerId = "CEEBABA5-0094-4467-BB67-138482C8FCD7";
paths = (
{
nodes = (
"606 357 OFFCURVE",
"657 266 OFFCURVE",
"657 211 QCURVE SMOOTH",
"657 167 OFFCURVE",
"625 90 OFFCURVE",
"569 33 OFFCURVE",
"493 0 OFFCURVE",
"449 0 QCURVE SMOOTH",
"241 0 LINE SMOOTH",
"196 0 OFFCURVE",
"120 33 OFFCURVE",
"63 91 OFFCURVE",
"31 168 OFFCURVE",
"31 212 QCURVE SMOOTH",
"31 269 OFFCURVE",
"83 357 OFFCURVE",
"131 386 QCURVE",
"100 411 OFFCURVE",
"66 480 OFFCURVE",
"66 519 QCURVE SMOOTH",
"66 556 OFFCURVE",
"93 620 OFFCURVE",
"140 668 OFFCURVE",
"204 695 OFFCURVE",
"241 695 QCURVE SMOOTH",
"449 695 LINE SMOOTH",
"486 695 OFFCURVE",
"549 668 OFFCURVE",
"596 621 OFFCURVE",
"623 557 OFFCURVE",
"623 520 QCURVE SMOOTH",
"623 480 OFFCURVE",
"589 411 OFFCURVE",
"558 386 QCURVE"
);
},
{
nodes = (
"553 567 OFFCURVE",
"494 626 OFFCURVE",
"449 626 QCURVE",
"449 417 LINE",
"494 417 OFFCURVE",
"553 477 OFFCURVE",
"553 522 QCURVE SMOOTH"
);
},
{
nodes = (
"588 237 OFFCURVE",
"566 288 OFFCURVE",
"528 326 OFFCURVE",
"477 348 OFFCURVE",
"449 348 QCURVE",
"449 70 LINE",
"478 70 OFFCURVE",
"529 92 OFFCURVE",
"566 129 OFFCURVE",
"588 180 OFFCURVE",
"588 209 QCURVE SMOOTH"
);
}
);
width = 697;
}
);
unicode = 0038;
},
{
glyphname = nine;
layers = (
{
layerId = "CEEBABA5-0094-4467-BB67-138482C8FCD7";
paths = (
{
nodes = (
"663 209 LINE SMOOTH",
"663 166 OFFCURVE",
"630 90 OFFCURVE",
"573 33 OFFCURVE",
"497 0 OFFCURVE",
"454 0 QCURVE SMOOTH",
"246 0 LINE SMOOTH",
"203 0 OFFCURVE",
"127 33 OFFCURVE",
"70 90 OFFCURVE",
"37 166 OFFCURVE",
"37 209 QCURVE SMOOTH",
"37 244 LINE",
"454 244 LINE",
"454 70 LINE",
"483 70 OFFCURVE",
"534 92 OFFCURVE",
"572 129 OFFCURVE",
"594 180 OFFCURVE",
"594 209 QCURVE SMOOTH",
"594 313 LINE",
"246 313 LINE SMOOTH",
"208 313 OFFCURVE",
"134 336 OFFCURVE",
"74 381 OFFCURVE",
"37 446 OFFCURVE",
"37 487 QCURVE SMOOTH",
"37 530 OFFCURVE",
"70 606 OFFCURVE",
"127 663 OFFCURVE",
"203 696 OFFCURVE",
"246 696 QCURVE SMOOTH",
"454 696 LINE SMOOTH",
"497 696 OFFCURVE",
"573 663 OFFCURVE",
"630 606 OFFCURVE",
"663 530 OFFCURVE",
"663 487 QCURVE SMOOTH"
);
},
{
nodes = (
"454 383 LINE",
"594 383 LINE",
"594 487 LINE SMOOTH",
"594 516 OFFCURVE",
"572 567 OFFCURVE",
"534 604 OFFCURVE",
"483 626 OFFCURVE",
"454 626 QCURVE"
);
}
);
width = 697;
}
);
unicode = 0039;
},
{
glyphname = colon;
layers = (
{
layerId = "CEEBABA5-0094-4467-BB67-138482C8FCD7";
paths = (
{
nodes = (
"201 538 OFFCURVE",
"238 576 OFFCURVE",
"265 576 QCURVE SMOOTH",
"292 576 OFFCURVE",
"330 538 OFFCURVE",
"330 511 QCURVE SMOOTH",
"330 484 OFFCURVE",
"292 447 OFFCURVE",
"265 447 QCURVE SMOOTH",
"238 447 OFFCURVE",
"201 484 OFFCURVE",
"201 511 QCURVE SMOOTH"
);
},
{
nodes = (
"201 165 OFFCURVE",
"238 203 OFFCURVE",
"265 203 QCURVE SMOOTH",
"292 203 OFFCURVE",
"330 165 OFFCURVE",
"330 138 QCURVE SMOOTH",
"330 111 OFFCURVE",
"292 74 OFFCURVE",
"265 74 QCURVE SMOOTH",
"238 74 OFFCURVE",
"201 111 OFFCURVE",
"201 138 QCURVE SMOOTH"
);
}
);
width = 533;
}
);
unicode = 003A;
},
{
glyphname = semicolon;
layers = (
{
layerId = "CEEBABA5-0094-4467-BB67-138482C8FCD7";
paths = (
{
nodes = (
"20 538 OFFCURVE",
"57 576 OFFCURVE",
"84 576 QCURVE SMOOTH",
"111 576 OFFCURVE",
"149 538 OFFCURVE",
"149 511 QCURVE SMOOTH",
"149 484 OFFCURVE",
"111 447 OFFCURVE",
"84 447 QCURVE SMOOTH",
"57 447 OFFCURVE",
"20 484 OFFCURVE",
"20 511 QCURVE SMOOTH"
);
},
{
nodes = (
"35 91 LINE",
"143 91 LINE",
"143 0 LINE",
"35 -67 LINE"
);
}
);
width = 179;
}
);
unicode = 003B;
},
{
glyphname = less;
layers = (
{
layerId = "CEEBABA5-0094-4467-BB67-138482C8FCD7";
paths = (
{
nodes = (
"461 28 LINE",
"22 308 LINE",
"22 391 LINE",
"461 671 LINE",
"493 593 LINE",
"110 349 LINE",
"493 106 LINE"
);
}
);
width = 502;
}
);
unicode = 003C;
},
{
glyphname = equal;
layers = (
{
layerId = "CEEBABA5-0094-4467-BB67-138482C8FCD7";
paths = (
{
nodes = (
"808 215 LINE",
"25 215 LINE",
"25 290 LINE",
"808 290 LINE"
);
},
{
nodes = (
"808 400 LINE",
"25 400 LINE",
"25 475 LINE",
"808 475 LINE"
);
}
);
width = 833;
}
);
unicode = 003D;
},
{
glyphname = greater;
layers = (
{
layerId = "CEEBABA5-0094-4467-BB67-138482C8FCD7";
paths = (
{
nodes = (
"20 106 LINE",
"403 349 LINE",
"20 593 LINE",
"51 671 LINE",
"492 391 LINE",
"492 308 LINE",
"51 28 LINE"
);
}
);
width = 502;
}
);
unicode = 003E;
},
{
glyphname = question;
layers = (
{
layerId = "CEEBABA5-0094-4467-BB67-138482C8FCD7";
paths = (
{
nodes = (
"772 418 LINE SMOOTH",
"772 379 OFFCURVE",
"748 312 OFFCURVE",
"703 261 OFFCURVE",
"638 232 OFFCURVE",
"598 232 QCURVE SMOOTH",
"547 232 LINE",
"547 147 LINE",
"238 147 LINE",
"237 626 LINE",
"208 626 OFFCURVE",
"158 604 OFFCURVE",
"121 567 OFFCURVE",
"99 516 OFFCURVE",
"99 488 QCURVE",
"29 488 LINE",
"29 522 OFFCURVE",
"51 586 OFFCURVE",
"91 640 OFFCURVE",
"146 679 OFFCURVE",
"179 688 QCURVE SMOOTH",
"198 693 OFFCURVE",
"236 697 OFFCURVE",
"255 697 QCURVE SMOOTH",
"319 697 OFFCURVE",
"446 696 OFFCURVE",
"510 696 QCURVE SMOOTH",
"539 696 OFFCURVE",
"577 698 OFFCURVE",
"584 698 QCURVE SMOOTH",
"621 698 OFFCURVE",
"689 673 OFFCURVE",
"741 628 OFFCURVE",
"772 564 OFFCURVE",
"772 525 QCURVE SMOOTH"
);
},
{
nodes = (
"237 91 LINE",
"546 91 LINE",
"546 0 LINE",
"237 0 LINE"
);
}
);
width = 811;
}
);
unicode = 003F;
},
{
glyphname = at;
layers = (
{
layerId = "CEEBABA5-0094-4467-BB67-138482C8FCD7";
paths = (
{
nodes = (
"25 327 OFFCURVE",
"93 484 OFFCURVE",
"211 602 OFFCURVE",
"367 670 OFFCURVE",
"456 670 QCURVE SMOOTH",
"544 670 OFFCURVE",
"701 602 OFFCURVE",
"818 485 OFFCURVE",
"887 328 OFFCURVE",
"887 239 QCURVE SMOOTH",
"887 158 OFFCURVE",
"837 25 OFFCURVE",
"786 -36 QCURVE",
"560 -37 LINE",
"333 -37 LINE SMOOTH",
"305 -37 OFFCURVE",
"254 -16 OFFCURVE",
"215 21 OFFCURVE",
"191 70 OFFCURVE",
"191 99 QCURVE SMOOTH",
"191 183 LINE SMOOTH",
"191 212 OFFCURVE",
"214 264 OFFCURVE",
"233 283 QCURVE SMOOTH",
"252 303 OFFCURVE",
"304 325 OFFCURVE",
"342 325 QCURVE",
"447 326 LINE",
"447 439 LINE",
"193 439 LINE",
"192 487 LINE",
"579 487 LINE SMOOTH",
"608 487 OFFCURVE",
"660 465 OFFCURVE",
"698 426 OFFCURVE",
"720 374 OFFCURVE",
"720 345 QCURVE SMOOTH",
"720 11 LINE",
"761 10 LINE",
"797 58 OFFCURVE",
"838 173 OFFCURVE",
"838 239 QCURVE SMOOTH",
"838 318 OFFCURVE",
"778 457 OFFCURVE",
"674 561 OFFCURVE",
"535 621 OFFCURVE",
"456 621 QCURVE SMOOTH",
"377 621 OFFCURVE",
"238 561 OFFCURVE",
"134 457 OFFCURVE",
"74 318 OFFCURVE",
"74 239 QCURVE SMOOTH",
"74 160 OFFCURVE",
"134 21 OFFCURVE",
"238 -83 OFFCURVE",
"377 -143 OFFCURVE",
"456 -143 QCURVE SMOOTH",
"511 -143 OFFCURVE",
"609 -113 OFFCURVE",
"654 -87 QCURVE",
"737 -87 LINE",
"674 -138 OFFCURVE",
"537 -192 OFFCURVE",
"456 -192 QCURVE SMOOTH",
"368 -192 OFFCURVE",
"211 -124 OFFCURVE",
"94 -7 OFFCURVE",
"25 150 OFFCURVE",
"25 239 QCURVE SMOOTH"
);
},
{
nodes = (
"450 278 LINE",
"333 278 LINE SMOOTH",
"313 278 OFFCURVE",
"278 263 OFFCURVE",
"253 237 OFFCURVE",
"238 202 OFFCURVE",
"238 183 QCURVE SMOOTH",
"238 120 LINE SMOOTH",
"238 75 OFFCURVE",
"283 10 OFFCURVE",
"333 10 QCURVE",
"450 11 LINE"
);
}
);
width = 933;
}
);
unicode = 0040;
},
{
glyphname = A;
layers = (
{
layerId = "CEEBABA5-0094-4467-BB67-138482C8FCD7";
paths = (
{
nodes = (
"133 139 LINE",
"217 139 LINE",
"175 231 LINE"
);
},
{
nodes = (
"102 69 LINE",
"71 0 LINE",
"1 0 LINE",
"314 695 LINE",
"384 695 LINE",
"696 0 LINE",
"279 0 LINE",
"248 69 LINE"
);
}
);
width = 696;
}
);
unicode = 0041;
},
{
glyphname = B;
layers = (
{
layerId = "CEEBABA5-0094-4467-BB67-138482C8FCD7";
paths = (
{
nodes = (
"609 357 OFFCURVE",
"661 267 OFFCURVE",
"661 210 QCURVE SMOOTH",
"661 166 OFFCURVE",
"629 90 OFFCURVE",
"573 33 OFFCURVE",
"496 0 OFFCURVE",
"452 0 QCURVE SMOOTH",
"35 0 LINE",
"35 695 LINE",
"452 695 LINE SMOOTH",
"489 695 OFFCURVE",
"552 668 OFFCURVE",
"599 621 OFFCURVE",
"626 557 OFFCURVE",
"626 520 QCURVE SMOOTH",
"626 480 OFFCURVE",
"592 411 OFFCURVE",
"561 386 QCURVE"
);
},
{
nodes = (
"556 566 OFFCURVE",
"497 625 OFFCURVE",
"452 625 QCURVE",
"452 417 LINE",
"497 417 OFFCURVE",
"556 476 OFFCURVE",
"556 521 QCURVE SMOOTH"
);
},
{
nodes = (
"591 237 OFFCURVE",
"569 288 OFFCURVE",
"532 325 OFFCURVE",
"481 347 OFFCURVE",
"452 347 QCURVE",
"452 69 LINE",
"481 69 OFFCURVE",
"532 91 OFFCURVE",
"569 128 OFFCURVE",
"591 179 OFFCURVE",
"591 208 QCURVE SMOOTH"
);
}
);
width = 683;
}
);
unicode = 0042;
},
{
glyphname = C;
layers = (
{
layerId = "CEEBABA5-0094-4467-BB67-138482C8FCD7";
paths = (
{
nodes = (
"592 487 LINE",
"592 516 OFFCURVE",
"570 567 OFFCURVE",
"533 604 OFFCURVE",
"482 626 OFFCURVE",
"453 626 QCURVE",
"453 70 LINE",
"482 70 OFFCURVE",
"533 92 OFFCURVE",
"570 129 OFFCURVE",
"592 180 OFFCURVE",
"592 209 QCURVE",
"661 209 LINE",
"661 166 OFFCURVE",
"628 90 OFFCURVE",
"572 33 OFFCURVE",
"496 0 OFFCURVE",
"453 0 QCURVE SMOOTH",
"244 0 LINE SMOOTH",
"201 0 OFFCURVE",
"125 33 OFFCURVE",
"69 90 OFFCURVE",
"36 166 OFFCURVE",
"36 209 QCURVE SMOOTH",
"36 487 LINE SMOOTH",
"36 530 OFFCURVE",
"69 606 OFFCURVE",
"125 663 OFFCURVE",
"201 696 OFFCURVE",
"244 696 QCURVE SMOOTH",
"453 696 LINE SMOOTH",
"496 696 OFFCURVE",
"572 663 OFFCURVE",
"628 606 OFFCURVE",
"661 530 OFFCURVE",
"661 487 QCURVE"
);
}
);
width = 697;
}
);
unicode = 0043;
},
{
glyphname = D;
layers = (
{
layerId = "CEEBABA5-0094-4467-BB67-138482C8FCD7";
paths = (
{
nodes = (
"670 258 LINE SMOOTH",
"670 244 OFFCURVE",
"669 215 OFFCURVE",
"668 201 QCURVE SMOOTH",
"666 159 OFFCURVE",
"633 86 OFFCURVE",
"577 31 OFFCURVE",
"503 0 OFFCURVE",
"460 0 QCURVE SMOOTH",
"43 0 LINE",
"43 695 LINE",
"460 695 LINE SMOOTH",
"503 695 OFFCURVE",
"579 662 OFFCURVE",
"636 606 OFFCURVE",
"669 530 OFFCURVE",
"669 487 QCURVE SMOOTH",
"669 444 OFFCURVE",
"670 360 OFFCURVE",
"670 315 QCURVE SMOOTH"
);
},
{
nodes = (
"460 69 LINE",
"495 69 OFFCURVE",
"547 94 OFFCURVE",
"582 136 OFFCURVE",
"599 194 OFFCURVE",
"599 227 QCURVE SMOOTH",
"599 487 LINE SMOOTH",
"599 515 OFFCURVE",
"577 566 OFFCURVE",
"539 604 OFFCURVE",
"488 626 OFFCURVE",
"460 626 QCURVE"
);
}
);
width = 706;
}
);
unicode = 0044;
},
{
glyphname = E;
layers = (
{
layerId = "CEEBABA5-0094-4467-BB67-138482C8FCD7";
paths = (
{
nodes = (
"629 69 LINE",
"629 0 LINE",
"38 0 LINE",
"38 695 LINE",
"629 695 LINE",
"629 625 LINE",
"456 625 LINE",
"456 417 LINE",
"629 417 LINE",
"629 347 LINE",
"456 347 LINE",
"456 69 LINE"
);
}
);
width = 665;
}
);
unicode = 0045;
},
{
glyphname = F;
layers = (
{
layerId = "CEEBABA5-0094-4467-BB67-138482C8FCD7";
paths = (
{
nodes = (
"632 417 LINE",
"632 348 LINE",
"458 348 LINE",
"458 0 LINE",
"41 0 LINE",
"41 695 LINE",
"632 695 LINE",
"632 626 LINE",
"458 626 LINE",
"458 417 LINE"
);
}
);
width = 665;
}
);
unicode = 0046;
},
{
glyphname = G;
layers = (
{
layerId = "CEEBABA5-0094-4467-BB67-138482C8FCD7";
paths = (
{
nodes = (
"588 487 LINE",
"588 516 OFFCURVE",
"566 566 OFFCURVE",
"528 604 OFFCURVE",
"477 625 OFFCURVE",
"449 625 QCURVE",
"449 69 LINE",
"477 69 OFFCURVE",
"528 91 OFFCURVE",
"566 129 OFFCURVE",
"588 179 OFFCURVE",
"588 208 QCURVE SMOOTH",
"588 243 LINE",
"518 243 LINE",
"518 313 LINE",
"657 313 LINE",
"657 208 LINE SMOOTH",
"657 165 OFFCURVE",
"624 89 OFFCURVE",
"568 33 OFFCURVE",
"492 0 OFFCURVE",
"449 0 QCURVE SMOOTH",
"240 0 LINE SMOOTH",
"197 0 OFFCURVE",
"121 33 OFFCURVE",
"65 89 OFFCURVE",
"32 165 OFFCURVE",
"32 208 QCURVE SMOOTH",
"32 487 LINE SMOOTH",
"32 530 OFFCURVE",
"65 606 OFFCURVE",
"121 662 OFFCURVE",
"197 695 OFFCURVE",
"240 695 QCURVE SMOOTH",
"449 695 LINE SMOOTH",
"492 695 OFFCURVE",
"568 662 OFFCURVE",
"624 606 OFFCURVE",
"657 530 OFFCURVE",
"657 487 QCURVE"
);
}
);
width = 687;
}
);
unicode = 0047;
},
{
glyphname = H;
layers = (
{
layerId = "CEEBABA5-0094-4467-BB67-138482C8FCD7";
paths = (
{
nodes = (
"595 695 LINE",
"595 0 LINE",
"526 0 LINE",
"526 129 LINE",
"410 129 LINE",
"410 0 LINE",
"35 0 LINE",
"35 695 LINE",
"410 695 LINE",
"410 198 LINE",
"526 198 LINE",
"526 695 LINE"
);
}
);
width = 622;
}
);
unicode = 0048;
},
{
glyphname = I;
layers = (
{
layerId = "CEEBABA5-0094-4467-BB67-138482C8FCD7";
paths = (
{
nodes = (
"456 695 LINE",
"456 0 LINE",
"39 0 LINE",
"39 695 LINE"
);
}
);
width = 501;
}
);
unicode = 0049;
},
{
glyphname = J;
layers = (
{
layerId = "CEEBABA5-0094-4467-BB67-138482C8FCD7";
paths = (
{
nodes = (
"524 695 LINE",
"524 209 LINE SMOOTH",
"524 166 OFFCURVE",
"491 90 OFFCURVE",
"435 33 OFFCURVE",
"359 0 OFFCURVE",
"316 0 QCURVE SMOOTH",
"38 0 LINE",
"38 69 LINE",
"107 69 LINE",
"107 695 LINE"
);
}
);
width = 565;
}
);
unicode = 004A;
},
{
glyphname = K;
layers = (
{
layerId = "CEEBABA5-0094-4467-BB67-138482C8FCD7";
paths = (
{
nodes = (
"510 386 LINE",
"684 0 LINE",
"614 0 LINE",
"475 309 LINE",
"458 270 LINE",
"458 0 LINE",
"41 0 LINE",
"41 695 LINE",
"458 695 LINE",
"458 424 LINE",
"580 695 LINE",
"649 695 LINE"
);
}
);
width = 697;
}
);
unicode = 004B;
},
{
glyphname = L;
layers = (
{
layerId = "CEEBABA5-0094-4467-BB67-138482C8FCD7";
paths = (
{
nodes = (
"666 69 LINE",
"666 0 LINE",
"40 0 LINE",
"40 695 LINE",
"457 695 LINE",
"457 69 LINE"
);
}
);
width = 683;
}
);
unicode = 004C;
},
{
glyphname = M;
layers = (
{
layerId = "CEEBABA5-0094-4467-BB67-138482C8FCD7";
paths = (
{
nodes = (
"1089 695 LINE",
"1089 0 LINE",
"672 0 LINE",
"672 540 LINE",
"568 309 LINE",
"463 540 LINE",
"463 0 LINE",
"46 0 LINE",
"46 695 LINE",
"463 695 LINE",
"470 681 OFFCURVE",
"483 651 OFFCURVE",
"490 637 QCURVE SMOOTH",
"492 633 LINE",
"492 632 LINE",
"493 631 OFFCURVE",
"493 629 OFFCURVE",
"494 628 QCURVE",
"495 626 LINE",
"495 625 LINE",
"496 623 LINE",
"497 616 OFFCURVE",
"502 610 QCURVE",
"506 602 LINE",
"506 600 LINE",
"506 599 OFFCURVE",
"507 598 QCURVE",
"507 597 OFFCURVE",
"508 597 QCURVE",
"508 596 OFFCURVE",
"509 595 QCURVE",
"509 594 LINE",
"509 593 LINE",
"510 593 OFFCURVE",
"510 592 QCURVE",
"510 591 OFFCURVE",
"511 590 QCURVE",
"511 589 OFFCURVE",
"512 589 QCURVE",
"512 588 OFFCURVE",
"513 587 QCURVE",
"513 586 LINE",
"513 585 LINE",
"514 585 OFFCURVE",
"514 584 QCURVE",
"514 583 LINE",
"515 582 OFFCURVE",
"515 580 OFFCURVE",
"516 579 QCURVE",
"518 575 OFFCURVE",
"520 569 OFFCURVE",
"522 565 QCURVE SMOOTH",
"524 561 LINE SMOOTH",
"528 553 OFFCURVE",
"535 535 OFFCURVE",
"539 527 QCURVE",
"541 524 LINE",
"547 508 OFFCURVE",
"554 495 QCURVE",
"555 492 LINE",
"558 485 OFFCURVE",
"564 473 OFFCURVE",
"566 467 QCURVE",
"568 463 LINE",
"594 523 OFFCURVE",
"646 637 OFFCURVE",
"672 695 QCURVE"
);
}
);
width = 1138;
}
);
unicode = 004D;
},
{
glyphname = N;
layers = (
{
layerId = "CEEBABA5-0094-4467-BB67-138482C8FCD7";
paths = (
{
nodes = (
"669 695 LINE",
"669 0 LINE",
"600 0 LINE",
"600 232 LINE",
"461 540 LINE",
"461 0 LINE",
"44 0 LINE",
"44 695 LINE",
"461 695 LINE",
"600 386 LINE",
"600 695 LINE"
);
}
);
width = 719;
}
);
unicode = 004E;
},
{
glyphname = O;
layers = (
{
layerId = "CEEBABA5-0094-4467-BB67-138482C8FCD7";
paths = (
{
nodes = (
"665 201 LINE SMOOTH",
"665 159 OFFCURVE",
"630 86 OFFCURVE",
"573 32 OFFCURVE",
"497 0 OFFCURVE",
"457 0 QCURVE SMOOTH",
"248 0 LINE SMOOTH",
"205 0 OFFCURVE",
"129 33 OFFCURVE",
"73 89 OFFCURVE",
"40 165 OFFCURVE",
"40 208 QCURVE SMOOTH",
"40 486 LINE SMOOTH",
"40 529 OFFCURVE",
"73 605 OFFCURVE",
"129 662 OFFCURVE",
"205 695 OFFCURVE",
"248 695 QCURVE SMOOTH",
"457 695 LINE SMOOTH",
"500 695 OFFCURVE",
"576 662 OFFCURVE",
"632 605 OFFCURVE",
"665 529 OFFCURVE",
"665 486 QCURVE SMOOTH"
);
},
{
nodes = (
"457 69 LINE",
"494 69 OFFCURVE",
"546 95 OFFCURVE",
"580 139 OFFCURVE",
"596 199 OFFCURVE",
"596 232 QCURVE SMOOTH",
"596 486 LINE SMOOTH",
"596 515 OFFCURVE",
"574 566 OFFCURVE",
"537 603 OFFCURVE",
"486 625 OFFCURVE",
"457 625 QCURVE"
);
}
);
width = 706;
}
);
unicode = 004F;
},
{
glyphname = P;
layers = (
{
layerId = "CEEBABA5-0094-4467-BB67-138482C8FCD7";
paths = (
{
nodes = (
"460 0 LINE",
"43 0 LINE",
"43 695 LINE",
"460 695 LINE SMOOTH",
"497 695 OFFCURVE",
"560 668 OFFCURVE",
"607 620 OFFCURVE",
"634 556 OFFCURVE",
"634 520 QCURVE SMOOTH",
"634 484 OFFCURVE",
"606 422 OFFCURVE",
"559 375 OFFCURVE",
"496 348 OFFCURVE",
"460 348 QCURVE"
);
},
{
nodes = (
"564 542 OFFCURVE",
"548 581 OFFCURVE",
"519 609 OFFCURVE",
"481 626 OFFCURVE",
"460 626 QCURVE",
"460 417 LINE",
"481 417 OFFCURVE",
"519 433 OFFCURVE",
"548 462 OFFCURVE",
"564 500 OFFCURVE",
"564 521 QCURVE SMOOTH"
);
}
);
width = 649;
}
);
unicode = 0050;
},
{
glyphname = Q;
layers = (
{
layerId = "CEEBABA5-0094-4467-BB67-138482C8FCD7";
paths = (
{
nodes = (
"532 14 LINE",
"488 0 OFFCURVE",
"456 0 QCURVE SMOOTH",
"247 0 LINE SMOOTH",
"204 0 OFFCURVE",
"128 33 OFFCURVE",
"72 89 OFFCURVE",
"39 165 OFFCURVE",
"39 208 QCURVE SMOOTH",
"39 486 LINE SMOOTH",
"39 529 OFFCURVE",
"72 605 OFFCURVE",
"128 662 OFFCURVE",
"204 695 OFFCURVE",
"247 695 QCURVE SMOOTH",
"456 695 LINE SMOOTH",
"499 695 OFFCURVE",
"575 662 OFFCURVE",
"631 605 OFFCURVE",
"664 529 OFFCURVE",
"664 486 QCURVE SMOOTH",
"664 422 OFFCURVE",
"665 295 OFFCURVE",
"665 232 QCURVE SMOOTH",
"665 190 OFFCURVE",
"648 118 OFFCURVE",
"622 83 QCURVE",
"587 162 LINE",
"589 169 OFFCURVE",
"592 200 OFFCURVE",
"594 242 OFFCURVE",
"595 292 OFFCURVE",
"595 318 QCURVE SMOOTH",
"595 486 LINE SMOOTH",
"595 515 OFFCURVE",
"573 566 OFFCURVE",
"536 603 OFFCURVE",
"485 625 OFFCURVE",
"456 625 QCURVE",
"456 69 LINE",
"480 69 OFFCURVE",
"503 78 QCURVE"
);
},
{
nodes = (
"635 0 LINE",
"565 0 LINE",
"548 37 OFFCURVE",
"515 112 OFFCURVE",
"498 150 QCURVE",
"567 150 LINE"
);
}
);
width = 709;
}
);
unicode = 0051;
},
{
glyphname = R;
layers = (
{
layerId = "CEEBABA5-0094-4467-BB67-138482C8FCD7";
paths = (
{
nodes = (
"608 180 OFFCURVE",
"691 0 QCURVE",
"621 0 LINE",
"465 347 LINE",
"465 0 LINE",
"48 0 LINE",
"48 695 LINE",
"465 695 LINE SMOOTH",
"501 695 OFFCURVE",
"565 668 OFFCURVE",
"612 620 OFFCURVE",
"639 556 OFFCURVE",
"639 520 QCURVE SMOOTH",
"639 457 OFFCURVE",
"589 383 OFFCURVE",
"529 360 QCURVE"
);
},
{
nodes = (
"569 566 OFFCURVE",
"510 625 OFFCURVE",
"465 625 QCURVE",
"465 417 LINE",
"510 417 OFFCURVE",
"569 476 OFFCURVE",
"569 521 QCURVE SMOOTH"
);
}
);
width = 704;
}
);
unicode = 0052;
},
{
glyphname = S;
layers = (
{
layerId = "CEEBABA5-0094-4467-BB67-138482C8FCD7";
paths = (
{
nodes = (
"252 0 LINE SMOOTH",
"209 0 OFFCURVE",
"133 33 OFFCURVE",
"77 89 OFFCURVE",
"44 165 OFFCURVE",
"44 208 QCURVE SMOOTH",
"44 278 LINE",
"461 278 LINE",
"461 69 LINE",
"490 69 OFFCURVE",
"541 91 OFFCURVE",
"578 128 OFFCURVE",
"600 179 OFFCURVE",
"600 208 QCURVE SMOOTH",
"600 237 OFFCURVE",
"578 288 OFFCURVE",
"541 325 OFFCURVE",
"490 347 OFFCURVE",
"461 347 QCURVE SMOOTH",
"218 347 LINE SMOOTH",
"182 347 OFFCURVE",
"119 374 OFFCURVE",
"71 422 OFFCURVE",
"44 485 OFFCURVE",
"44 521 QCURVE SMOOTH",
"44 557 OFFCURVE",
"71 620 OFFCURVE",
"119 668 OFFCURVE",
"182 695 OFFCURVE",
"218 695 QCURVE SMOOTH",
"461 695 LINE SMOOTH",
"504 695 OFFCURVE",
"580 662 OFFCURVE",
"637 605 OFFCURVE",
"670 529 OFFCURVE",
"670 486 QCURVE",
"600 486 LINE",
"600 515 OFFCURVE",
"578 566 OFFCURVE",
"541 603 OFFCURVE",
"490 625 OFFCURVE",
"461 625 QCURVE",
"461 417 LINE",
"504 417 OFFCURVE",
"579 385 OFFCURVE",
"636 329 OFFCURVE",
"669 254 OFFCURVE",
"669 211 QCURVE SMOOTH",
"669 168 OFFCURVE",
"637 92 OFFCURVE",
"580 34 OFFCURVE",
"504 0 OFFCURVE",
"461 0 QCURVE SMOOTH"
);
}
);
width = 719;
}
);
unicode = 0053;
},
{
glyphname = T;
layers = (
{
layerId = "CEEBABA5-0094-4467-BB67-138482C8FCD7";
paths = (
{
nodes = (
"715 695 LINE",
"715 625 LINE",
"575 625 LINE",
"575 0 LINE",
"161 0 LINE",
"160 625 LINE",
"20 625 LINE",
"20 695 LINE"
);
}
);
width = 732;
}
);
unicode = 0054;
},
{
glyphname = U;
layers = (
{
layerId = "CEEBABA5-0094-4467-BB67-138482C8FCD7";
paths = (
{
nodes = (
"672 281 OFFCURVE",
"673 249 OFFCURVE",
"673 244 QCURVE SMOOTH",
"673 233 OFFCURVE",
"672 212 OFFCURVE",
"671 201 QCURVE SMOOTH",
"669 159 OFFCURVE",
"635 86 OFFCURVE",
"579 31 OFFCURVE",
"504 0 OFFCURVE",
"462 0 QCURVE SMOOTH",
"254 0 LINE SMOOTH",
"211 0 OFFCURVE",
"135 33 OFFCURVE",
"78 89 OFFCURVE",
"45 165 OFFCURVE",
"45 208 QCURVE SMOOTH",
"45 695 LINE",
"462 695 LINE",
"462 69 LINE",
"500 69 OFFCURVE",
"554 96 OFFCURVE",
"576 128 QCURVE SMOOTH",
"597 159 OFFCURVE",
"601 220 OFFCURVE",
"601 255 QCURVE SMOOTH",
"601 695 LINE",
"671 695 LINE",
"671 598 OFFCURVE",
"672 405 OFFCURVE",
"672 308 QCURVE SMOOTH"
);
}
);
width = 714;
}
);
unicode = 0055;
},
{
glyphname = V;
layers = (
{
layerId = "CEEBABA5-0094-4467-BB67-138482C8FCD7";
paths = (
{
nodes = (
"699 695 LINE",
"386 0 LINE",
"317 0 LINE",
"4 695 LINE",
"421 695 LINE",
"525 463 LINE",
"629 695 LINE"
);
}
);
width = 705;
}
);
unicode = 0056;
},
{
glyphname = W;
layers = (
{
layerId = "CEEBABA5-0094-4467-BB67-138482C8FCD7";
paths = (
{
nodes = (
"931 542 LINE",
"990 695 LINE",
"1065 695 LINE",
"802 0 LINE",
"734 0 LINE",
"537 481 LINE",
"346 0 LINE",
"285 0 LINE",
"20 695 LINE",
"423 695 LINE",
"484 536 LINE",
"549 695 LINE",
"873 695 LINE"
);
}
);
width = 1098;
}
);
unicode = 0057;
},
{
glyphname = X;
layers = (
{
layerId = "CEEBABA5-0094-4467-BB67-138482C8FCD7";
paths = (
{
nodes = (
"45 0 LINE",
"239 230 LINE",
"30 695 LINE",
"447 695 LINE",
"511 553 LINE",
"631 695 LINE",
"760 695 LINE",
"556 453 LINE",
"760 0 LINE",
"343 0 LINE",
"284 131 LINE",
"174 0 LINE"
);
}
);
width = 782;
}
);
unicode = 0058;
},
{
glyphname = Y;
layers = (
{
layerId = "CEEBABA5-0094-4467-BB67-138482C8FCD7";
paths = (
{
nodes = (
"340 695 LINE",
"757 695 LINE",
"444 0 LINE",
"27 0 LINE",
"221 430 LINE",
"101 695 LINE",
"188 695 LINE",
"264 526 LINE"
);
}
);
width = 782;
}
);
unicode = 0059;
},
{
glyphname = Z;
layers = (
{
layerId = "CEEBABA5-0094-4467-BB67-138482C8FCD7";
paths = (
{
nodes = (
"722 626 LINE",
"444 70 LINE",
"722 70 LINE",
"722 0 LINE",
"27 0 LINE",
"27 70 LINE",
"305 626 LINE",
"27 626 LINE",
"27 695 LINE",
"722 695 LINE"
);
}
);
width = 748;
}
);
unicode = 005A;
},
{
glyphname = bracketleft;
layers = (
{
layerId = "CEEBABA5-0094-4467-BB67-138482C8FCD7";
paths = (
{
nodes = (
"382 842 LINE",
"382 719 LINE",
"234 719 LINE",
"234 -14 LINE",
"382 -14 LINE",
"382 -137 LINE",
"13 -137 LINE",
"13 842 LINE"
);
}
);
width = 403;
}
);
unicode = 005B;
},
{
glyphname = backslash;
layers = (
{
layerId = "CEEBABA5-0094-4467-BB67-138482C8FCD7";
paths = (
{
nodes = (
"97 729 LINE",
"245 -46 LINE",
"187 -46 LINE",
"39 729 LINE"
);
}
);
width = 286;
}
);
unicode = 005C;
},
{
glyphname = bracketright;
layers = (
{
layerId = "CEEBABA5-0094-4467-BB67-138482C8FCD7";
paths = (
{
nodes = (
"13 -137 LINE",
"13 -14 LINE",
"161 -14 LINE",
"161 719 LINE",
"13 719 LINE",
"13 842 LINE",
"382 842 LINE",
"382 -137 LINE"
);
}
);
width = 403;
}
);
unicode = 005D;
},
{
glyphname = asciicircum;
layers = (
{
layerId = "CEEBABA5-0094-4467-BB67-138482C8FCD7";
paths = (
{
nodes = (
"586 209 LINE",
"343 592 LINE",
"99 209 LINE",
"21 240 LINE",
"301 681 LINE",
"384 681 LINE",
"664 240 LINE"
);
}
);
width = 685;
}
);
unicode = 005E;
},
{
glyphname = underscore;
layers = (
{
layerId = "CEEBABA5-0094-4467-BB67-138482C8FCD7";
paths = (
{
nodes = (
"662 -111 LINE",
"31 -111 LINE",
"31 -36 LINE",
"662 -36 LINE"
);
}
);
width = 694;
}
);
unicode = 005F;
},
{
glyphname = grave;
layers = (
{
layerId = "CEEBABA5-0094-4467-BB67-138482C8FCD7";
paths = (
{
nodes = (
"284 893 LINE",
"404 948 LINE",
"473 774 LINE",
"387 740 LINE"
);
}
);
width = 833;
}
);
unicode = 0060;
},
{
glyphname = a;
layers = (
{
layerId = "CEEBABA5-0094-4467-BB67-138482C8FCD7";
paths = (
{
nodes = (
"133 139 LINE",
"217 139 LINE",
"175 231 LINE"
);
},
{
nodes = (
"102 69 LINE",
"71 0 LINE",
"1 0 LINE",
"314 695 LINE",
"384 695 LINE",
"696 0 LINE",
"279 0 LINE",
"248 69 LINE"
);
}
);
width = 698;
}
);
unicode = 0061;
},
{
glyphname = b;
layers = (
{
layerId = "CEEBABA5-0094-4467-BB67-138482C8FCD7";
paths = (
{
nodes = (
"609 357 OFFCURVE",
"661 267 OFFCURVE",
"661 210 QCURVE SMOOTH",
"661 166 OFFCURVE",
"629 90 OFFCURVE",
"573 33 OFFCURVE",
"496 0 OFFCURVE",
"452 0 QCURVE SMOOTH",
"35 0 LINE",
"35 695 LINE",
"452 695 LINE SMOOTH",
"489 695 OFFCURVE",
"552 668 OFFCURVE",
"599 621 OFFCURVE",
"626 557 OFFCURVE",
"626 520 QCURVE SMOOTH",
"626 480 OFFCURVE",
"592 411 OFFCURVE",
"561 386 QCURVE"
);
},
{
nodes = (
"556 566 OFFCURVE",
"497 625 OFFCURVE",
"452 625 QCURVE",
"452 417 LINE",
"497 417 OFFCURVE",
"556 476 OFFCURVE",
"556 521 QCURVE SMOOTH"
);
},
{
nodes = (
"591 237 OFFCURVE",
"569 288 OFFCURVE",
"532 325 OFFCURVE",
"481 347 OFFCURVE",
"452 347 QCURVE",
"452 69 LINE",
"481 69 OFFCURVE",
"532 91 OFFCURVE",
"569 128 OFFCURVE",
"591 179 OFFCURVE",
"591 208 QCURVE SMOOTH"
);
}
);
width = 683;
}
);
unicode = 0062;
},
{
glyphname = c;
layers = (
{
layerId = "CEEBABA5-0094-4467-BB67-138482C8FCD7";
paths = (
{
nodes = (
"592 487 LINE",
"592 516 OFFCURVE",
"570 567 OFFCURVE",
"533 604 OFFCURVE",
"482 626 OFFCURVE",
"453 626 QCURVE",
"453 70 LINE",
"482 70 OFFCURVE",
"533 92 OFFCURVE",
"570 129 OFFCURVE",
"592 180 OFFCURVE",
"592 209 QCURVE",
"661 209 LINE",
"661 166 OFFCURVE",
"628 90 OFFCURVE",
"572 33 OFFCURVE",
"496 0 OFFCURVE",
"453 0 QCURVE SMOOTH",
"244 0 LINE SMOOTH",
"201 0 OFFCURVE",
"125 33 OFFCURVE",
"69 90 OFFCURVE",
"36 166 OFFCURVE",
"36 209 QCURVE SMOOTH",
"36 487 LINE SMOOTH",
"36 530 OFFCURVE",
"69 606 OFFCURVE",
"125 663 OFFCURVE",
"201 696 OFFCURVE",
"244 696 QCURVE SMOOTH",
"453 696 LINE SMOOTH",
"496 696 OFFCURVE",
"572 663 OFFCURVE",
"628 606 OFFCURVE",
"661 530 OFFCURVE",
"661 487 QCURVE"
);
}
);
width = 697;
}
);
unicode = 0063;
},
{
glyphname = d;
layers = (
{
layerId = "CEEBABA5-0094-4467-BB67-138482C8FCD7";
paths = (
{
nodes = (
"670 258 LINE SMOOTH",
"670 244 OFFCURVE",
"669 215 OFFCURVE",
"668 201 QCURVE SMOOTH",
"666 159 OFFCURVE",
"633 86 OFFCURVE",
"577 31 OFFCURVE",
"503 0 OFFCURVE",
"460 0 QCURVE SMOOTH",
"43 0 LINE",
"43 695 LINE",
"460 695 LINE SMOOTH",
"503 695 OFFCURVE",
"579 662 OFFCURVE",
"636 606 OFFCURVE",
"669 530 OFFCURVE",
"669 487 QCURVE SMOOTH",
"669 444 OFFCURVE",
"670 360 OFFCURVE",
"670 315 QCURVE SMOOTH"
);
},
{
nodes = (
"460 69 LINE",
"495 69 OFFCURVE",
"547 94 OFFCURVE",
"582 136 OFFCURVE",
"599 194 OFFCURVE",
"599 227 QCURVE SMOOTH",
"599 487 LINE SMOOTH",
"599 515 OFFCURVE",
"577 566 OFFCURVE",
"539 604 OFFCURVE",
"488 626 OFFCURVE",
"460 626 QCURVE"
);
}
);
width = 706;
}
);
unicode = 0064;
},
{
glyphname = e;
layers = (
{
layerId = "CEEBABA5-0094-4467-BB67-138482C8FCD7";
paths = (
{
nodes = (
"629 69 LINE",
"629 0 LINE",
"38 0 LINE",
"38 695 LINE",
"629 695 LINE",
"629 625 LINE",
"456 625 LINE",
"456 417 LINE",
"629 417 LINE",
"629 347 LINE",
"456 347 LINE",
"456 69 LINE"
);
}
);
width = 665;
}
);
unicode = 0065;
},
{
glyphname = f;
layers = (
{
layerId = "CEEBABA5-0094-4467-BB67-138482C8FCD7";
paths = (
{
nodes = (
"632 417 LINE",
"632 348 LINE",
"458 348 LINE",
"458 0 LINE",
"41 0 LINE",
"41 695 LINE",
"632 695 LINE",
"632 626 LINE",
"458 626 LINE",
"458 417 LINE"
);
}
);
width = 665;
}
);
unicode = 0066;
},
{
glyphname = g;
layers = (
{
layerId = "CEEBABA5-0094-4467-BB67-138482C8FCD7";
paths = (
{
nodes = (
"588 487 LINE",
"588 516 OFFCURVE",
"566 566 OFFCURVE",
"528 604 OFFCURVE",
"477 625 OFFCURVE",
"449 625 QCURVE",
"449 69 LINE",
"477 69 OFFCURVE",
"528 91 OFFCURVE",
"566 129 OFFCURVE",
"588 179 OFFCURVE",
"588 208 QCURVE SMOOTH",
"588 243 LINE",
"518 243 LINE",
"518 313 LINE",
"657 313 LINE",
"657 208 LINE SMOOTH",
"657 165 OFFCURVE",
"624 89 OFFCURVE",
"568 33 OFFCURVE",
"492 0 OFFCURVE",
"449 0 QCURVE SMOOTH",
"240 0 LINE SMOOTH",
"197 0 OFFCURVE",
"121 33 OFFCURVE",
"65 89 OFFCURVE",
"32 165 OFFCURVE",
"32 208 QCURVE SMOOTH",
"32 487 LINE SMOOTH",
"32 530 OFFCURVE",
"65 606 OFFCURVE",
"121 662 OFFCURVE",
"197 695 OFFCURVE",
"240 695 QCURVE SMOOTH",
"449 695 LINE SMOOTH",
"492 695 OFFCURVE",
"568 662 OFFCURVE",
"624 606 OFFCURVE",
"657 530 OFFCURVE",
"657 487 QCURVE"
);
}
);
width = 687;
}
);
unicode = 0067;
},
{
glyphname = h;
layers = (
{
layerId = "CEEBABA5-0094-4467-BB67-138482C8FCD7";
paths = (
{
nodes = (
"595 695 LINE",
"595 0 LINE",
"526 0 LINE",
"526 129 LINE",
"410 129 LINE",
"410 0 LINE",
"35 0 LINE",
"35 695 LINE",
"410 695 LINE",
"410 198 LINE",
"526 198 LINE",
"526 695 LINE"
);
}
);
width = 622;
}
);
unicode = 0068;
},
{
glyphname = i;
layers = (
{
layerId = "CEEBABA5-0094-4467-BB67-138482C8FCD7";
paths = (
{
nodes = (
"456 695 LINE",
"456 0 LINE",
"39 0 LINE",
"39 695 LINE"
);
}
);
width = 501;
}
);
unicode = 0069;
},
{
glyphname = j;
layers = (
{
layerId = "CEEBABA5-0094-4467-BB67-138482C8FCD7";
paths = (
{
nodes = (
"524 695 LINE",
"524 209 LINE SMOOTH",
"524 166 OFFCURVE",
"491 90 OFFCURVE",
"435 33 OFFCURVE",
"359 0 OFFCURVE",
"316 0 QCURVE SMOOTH",
"38 0 LINE",
"38 69 LINE",
"107 69 LINE",
"107 695 LINE"
);
}
);
width = 565;
}
);
unicode = 006A;
},
{
glyphname = k;
layers = (
{
layerId = "CEEBABA5-0094-4467-BB67-138482C8FCD7";
paths = (
{
nodes = (
"510 386 LINE",
"684 0 LINE",
"614 0 LINE",
"475 309 LINE",
"458 270 LINE",
"458 0 LINE",
"41 0 LINE",
"41 695 LINE",
"458 695 LINE",
"458 424 LINE",
"580 695 LINE",
"649 695 LINE"
);
}
);
width = 697;
}
);
unicode = 006B;
},
{
glyphname = l;
layers = (
{
layerId = "CEEBABA5-0094-4467-BB67-138482C8FCD7";
paths = (
{
nodes = (
"666 69 LINE",
"666 0 LINE",
"40 0 LINE",
"40 695 LINE",
"457 695 LINE",
"457 69 LINE"
);
}
);
width = 683;
}
);
unicode = 006C;
},
{
glyphname = m;
layers = (
{
layerId = "CEEBABA5-0094-4467-BB67-138482C8FCD7";
paths = (
{
nodes = (
"1089 695 LINE",
"1089 0 LINE",
"672 0 LINE",
"672 540 LINE",
"568 309 LINE",
"463 540 LINE",
"463 0 LINE",
"46 0 LINE",
"46 695 LINE",
"463 695 LINE",
"470 681 OFFCURVE",
"483 651 OFFCURVE",
"490 637 QCURVE SMOOTH",
"492 633 LINE",
"492 632 LINE",
"493 631 OFFCURVE",
"493 629 OFFCURVE",
"494 628 QCURVE",
"495 626 LINE",
"495 625 LINE",
"496 623 LINE",
"497 616 OFFCURVE",
"502 610 QCURVE",
"506 602 LINE",
"506 600 LINE",
"506 599 OFFCURVE",
"507 598 QCURVE",
"507 597 OFFCURVE",
"508 597 QCURVE",
"508 596 OFFCURVE",
"509 595 QCURVE",
"509 594 LINE",
"509 593 LINE",
"510 593 OFFCURVE",
"510 592 QCURVE",
"510 591 OFFCURVE",
"511 590 QCURVE",
"511 589 OFFCURVE",
"512 589 QCURVE",
"512 588 OFFCURVE",
"513 587 QCURVE",
"513 586 LINE",
"513 585 LINE",
"514 585 OFFCURVE",
"514 584 QCURVE",
"514 583 LINE",
"515 582 OFFCURVE",
"515 580 OFFCURVE",
"516 579 QCURVE",
"518 575 OFFCURVE",
"520 569 OFFCURVE",
"522 565 QCURVE SMOOTH",
"524 561 LINE SMOOTH",
"528 553 OFFCURVE",
"535 535 OFFCURVE",
"539 527 QCURVE",
"541 524 LINE",
"547 508 OFFCURVE",
"554 495 QCURVE",
"555 492 LINE",
"558 485 OFFCURVE",
"564 473 OFFCURVE",
"566 467 QCURVE",
"568 463 LINE",
"594 523 OFFCURVE",
"646 637 OFFCURVE",
"672 695 QCURVE"
);
}
);
width = 1138;
}
);
unicode = 006D;
},
{
glyphname = n;
layers = (
{
layerId = "CEEBABA5-0094-4467-BB67-138482C8FCD7";
paths = (
{
nodes = (
"669 695 LINE",
"669 0 LINE",
"600 0 LINE",
"600 232 LINE",
"461 540 LINE",
"461 0 LINE",
"44 0 LINE",
"44 695 LINE",
"461 695 LINE",
"600 386 LINE",
"600 695 LINE"
);
}
);
width = 719;
}
);
unicode = 006E;
},
{
glyphname = o;
layers = (
{
layerId = "CEEBABA5-0094-4467-BB67-138482C8FCD7";
paths = (
{
nodes = (
"665 201 LINE SMOOTH",
"665 159 OFFCURVE",
"630 86 OFFCURVE",
"573 32 OFFCURVE",
"497 0 OFFCURVE",
"457 0 QCURVE SMOOTH",
"248 0 LINE SMOOTH",
"205 0 OFFCURVE",
"129 33 OFFCURVE",
"73 89 OFFCURVE",
"40 165 OFFCURVE",
"40 208 QCURVE SMOOTH",
"40 486 LINE SMOOTH",
"40 529 OFFCURVE",
"73 605 OFFCURVE",
"129 662 OFFCURVE",
"205 695 OFFCURVE",
"248 695 QCURVE SMOOTH",
"457 695 LINE SMOOTH",
"500 695 OFFCURVE",
"576 662 OFFCURVE",
"632 605 OFFCURVE",
"665 529 OFFCURVE",
"665 486 QCURVE SMOOTH"
);
},
{
nodes = (
"457 69 LINE",
"494 69 OFFCURVE",
"546 95 OFFCURVE",
"580 139 OFFCURVE",
"596 199 OFFCURVE",
"596 232 QCURVE SMOOTH",
"596 486 LINE SMOOTH",
"596 515 OFFCURVE",
"574 566 OFFCURVE",
"537 603 OFFCURVE",
"486 625 OFFCURVE",
"457 625 QCURVE"
);
}
);
width = 706;
}
);
unicode = 006F;
},
{
glyphname = p;
layers = (
{
layerId = "CEEBABA5-0094-4467-BB67-138482C8FCD7";
paths = (
{
nodes = (
"460 0 LINE",
"43 0 LINE",
"43 695 LINE",
"460 695 LINE SMOOTH",
"497 695 OFFCURVE",
"560 668 OFFCURVE",
"607 620 OFFCURVE",
"634 556 OFFCURVE",
"634 520 QCURVE SMOOTH",
"634 484 OFFCURVE",
"606 422 OFFCURVE",
"559 375 OFFCURVE",
"496 348 OFFCURVE",
"460 348 QCURVE"
);
},
{
nodes = (
"564 542 OFFCURVE",
"548 581 OFFCURVE",
"519 609 OFFCURVE",
"481 626 OFFCURVE",
"460 626 QCURVE",
"460 417 LINE",
"481 417 OFFCURVE",
"519 433 OFFCURVE",
"548 462 OFFCURVE",
"564 500 OFFCURVE",
"564 521 QCURVE SMOOTH"
);
}
);
width = 649;
}
);
unicode = 0070;
},
{
glyphname = q;
layers = (
{
layerId = "CEEBABA5-0094-4467-BB67-138482C8FCD7";
paths = (
{
nodes = (
"532 14 LINE",
"488 0 OFFCURVE",
"456 0 QCURVE SMOOTH",
"247 0 LINE SMOOTH",
"204 0 OFFCURVE",
"128 33 OFFCURVE",
"72 89 OFFCURVE",
"39 165 OFFCURVE",
"39 208 QCURVE SMOOTH",
"39 486 LINE SMOOTH",
"39 529 OFFCURVE",
"72 605 OFFCURVE",
"128 662 OFFCURVE",
"204 695 OFFCURVE",
"247 695 QCURVE SMOOTH",
"456 695 LINE SMOOTH",
"499 695 OFFCURVE",
"575 662 OFFCURVE",
"631 605 OFFCURVE",
"664 529 OFFCURVE",
"664 486 QCURVE SMOOTH",
"664 422 OFFCURVE",
"665 295 OFFCURVE",
"665 232 QCURVE SMOOTH",
"665 190 OFFCURVE",
"648 118 OFFCURVE",
"622 83 QCURVE",
"587 162 LINE",
"589 169 OFFCURVE",
"592 200 OFFCURVE",
"594 242 OFFCURVE",
"595 292 OFFCURVE",
"595 318 QCURVE SMOOTH",
"595 486 LINE SMOOTH",
"595 515 OFFCURVE",
"573 566 OFFCURVE",
"536 603 OFFCURVE",
"485 625 OFFCURVE",
"456 625 QCURVE",
"456 69 LINE",
"480 69 OFFCURVE",
"503 78 QCURVE"
);
},
{
nodes = (
"635 0 LINE",
"565 0 LINE",
"548 37 OFFCURVE",
"515 112 OFFCURVE",
"498 150 QCURVE",
"567 150 LINE"
);
}
);
width = 709;
}
);
unicode = 0071;
},
{
glyphname = r;
layers = (
{
layerId = "CEEBABA5-0094-4467-BB67-138482C8FCD7";
paths = (
{
nodes = (
"608 180 OFFCURVE",
"691 0 QCURVE",
"621 0 LINE",
"465 347 LINE",
"465 0 LINE",
"48 0 LINE",
"48 695 LINE",
"465 695 LINE SMOOTH",
"501 695 OFFCURVE",
"565 668 OFFCURVE",
"612 620 OFFCURVE",
"639 556 OFFCURVE",
"639 520 QCURVE SMOOTH",
"639 457 OFFCURVE",
"589 383 OFFCURVE",
"529 360 QCURVE"
);
},
{
nodes = (
"569 566 OFFCURVE",
"510 625 OFFCURVE",
"465 625 QCURVE",
"465 417 LINE",
"510 417 OFFCURVE",
"569 476 OFFCURVE",
"569 521 QCURVE SMOOTH"
);
}
);
width = 704;
}
);
unicode = 0072;
},
{
glyphname = s;
layers = (
{
layerId = "CEEBABA5-0094-4467-BB67-138482C8FCD7";
paths = (
{
nodes = (
"252 0 LINE SMOOTH",
"209 0 OFFCURVE",
"133 33 OFFCURVE",
"77 89 OFFCURVE",
"44 165 OFFCURVE",
"44 208 QCURVE SMOOTH",
"44 278 LINE",
"461 278 LINE",
"461 69 LINE",
"490 69 OFFCURVE",
"541 91 OFFCURVE",
"578 128 OFFCURVE",
"600 179 OFFCURVE",
"600 208 QCURVE SMOOTH",
"600 237 OFFCURVE",
"578 288 OFFCURVE",
"541 325 OFFCURVE",
"490 347 OFFCURVE",
"461 347 QCURVE SMOOTH",
"218 347 LINE SMOOTH",
"182 347 OFFCURVE",
"119 374 OFFCURVE",
"71 422 OFFCURVE",
"44 485 OFFCURVE",
"44 521 QCURVE SMOOTH",
"44 557 OFFCURVE",
"71 620 OFFCURVE",
"119 668 OFFCURVE",
"182 695 OFFCURVE",
"218 695 QCURVE SMOOTH",
"461 695 LINE SMOOTH",
"504 695 OFFCURVE",
"580 662 OFFCURVE",
"637 605 OFFCURVE",
"670 529 OFFCURVE",
"670 486 QCURVE",
"600 486 LINE",
"600 515 OFFCURVE",
"578 566 OFFCURVE",
"541 603 OFFCURVE",
"490 625 OFFCURVE",
"461 625 QCURVE",
"461 417 LINE",
"504 417 OFFCURVE",
"579 385 OFFCURVE",
"636 329 OFFCURVE",
"669 254 OFFCURVE",
"669 211 QCURVE SMOOTH",
"669 168 OFFCURVE",
"637 92 OFFCURVE",
"580 34 OFFCURVE",
"504 0 OFFCURVE",
"461 0 QCURVE SMOOTH"
);
}
);
width = 719;
}
);
unicode = 0073;
},
{
glyphname = t;
layers = (
{
layerId = "CEEBABA5-0094-4467-BB67-138482C8FCD7";
paths = (
{
nodes = (
"715 695 LINE",
"715 625 LINE",
"575 625 LINE",
"575 0 LINE",
"161 0 LINE",
"160 625 LINE",
"20 625 LINE",
"20 695 LINE"
);
}
);
width = 732;
}
);
unicode = 0074;
},
{
glyphname = u;
layers = (
{
layerId = "CEEBABA5-0094-4467-BB67-138482C8FCD7";
paths = (
{
nodes = (
"672 281 OFFCURVE",
"673 249 OFFCURVE",
"673 244 QCURVE SMOOTH",
"673 233 OFFCURVE",
"672 212 OFFCURVE",
"671 201 QCURVE SMOOTH",
"669 159 OFFCURVE",
"635 86 OFFCURVE",
"579 31 OFFCURVE",
"504 0 OFFCURVE",
"462 0 QCURVE SMOOTH",
"254 0 LINE SMOOTH",
"211 0 OFFCURVE",
"135 33 OFFCURVE",
"78 89 OFFCURVE",
"45 165 OFFCURVE",
"45 208 QCURVE SMOOTH",
"45 695 LINE",
"462 695 LINE",
"462 69 LINE",
"500 69 OFFCURVE",
"554 96 OFFCURVE",
"576 128 QCURVE SMOOTH",
"597 159 OFFCURVE",
"601 220 OFFCURVE",
"601 255 QCURVE SMOOTH",
"601 695 LINE",
"671 695 LINE",
"671 598 OFFCURVE",
"672 405 OFFCURVE",
"672 308 QCURVE SMOOTH"
);
}
);
width = 714;
}
);
unicode = 0075;
},
{
glyphname = v;
layers = (
{
layerId = "CEEBABA5-0094-4467-BB67-138482C8FCD7";
paths = (
{
nodes = (
"699 695 LINE",
"386 0 LINE",
"317 0 LINE",
"4 695 LINE",
"421 695 LINE",
"525 463 LINE",
"629 695 LINE"
);
}
);
width = 705;
}
);
unicode = 0076;
},
{
glyphname = w;
layers = (
{
layerId = "CEEBABA5-0094-4467-BB67-138482C8FCD7";
paths = (
{
nodes = (
"931 542 LINE",
"990 695 LINE",
"1065 695 LINE",
"802 0 LINE",
"734 0 LINE",
"537 481 LINE",
"346 0 LINE",
"285 0 LINE",
"20 695 LINE",
"423 695 LINE",
"484 536 LINE",
"549 695 LINE",
"873 695 LINE"
);
}
);
width = 1098;
}
);
unicode = 0077;
},
{
glyphname = x;
layers = (
{
layerId = "CEEBABA5-0094-4467-BB67-138482C8FCD7";
paths = (
{
nodes = (
"45 0 LINE",
"239 230 LINE",
"30 695 LINE",
"447 695 LINE",
"511 553 LINE",
"631 695 LINE",
"760 695 LINE",
"556 453 LINE",
"760 0 LINE",
"343 0 LINE",
"284 131 LINE",
"174 0 LINE"
);
}
);
width = 782;
}
);
unicode = 0078;
},
{
glyphname = y;
layers = (
{
layerId = "CEEBABA5-0094-4467-BB67-138482C8FCD7";
paths = (
{
nodes = (
"340 695 LINE",
"757 695 LINE",
"444 0 LINE",
"27 0 LINE",
"221 430 LINE",
"101 695 LINE",
"188 695 LINE",
"264 526 LINE"
);
}
);
width = 782;
}
);
unicode = 0079;
},
{
glyphname = z;
layers = (
{
layerId = "CEEBABA5-0094-4467-BB67-138482C8FCD7";
paths = (
{
nodes = (
"722 626 LINE",
"444 70 LINE",
"722 70 LINE",
"722 0 LINE",
"27 0 LINE",
"27 70 LINE",
"305 626 LINE",
"27 626 LINE",
"27 695 LINE",
"722 695 LINE"
);
}
);
width = 748;
}
);
unicode = 007A;
},
{
glyphname = braceleft;
layers = (
{
layerId = "CEEBABA5-0094-4467-BB67-138482C8FCD7";
paths = (
{
nodes = (
"358 746 LINE",
"356 746 LINE",
"327 746 OFFCURVE",
"290 699 OFFCURVE",
"284 672 QCURVE",
"278 652 OFFCURVE",
"278 627 QCURVE SMOOTH",
"278 622 OFFCURVE",
"280 584 OFFCURVE",
"283 546 QCURVE SMOOTH",
"285 508 OFFCURVE",
"286 471 OFFCURVE",
"286 469 QCURVE",
"286 433 OFFCURVE",
"279 413 QCURVE",
"265 363 OFFCURVE",
"220 344 QCURVE",
"225 342 OFFCURVE",
"234 336 OFFCURVE",
"239 334 QCURVE",
"269 315 OFFCURVE",
"279 275 QCURVE",
"286 255 OFFCURVE",
"286 219 QCURVE",
"286 217 OFFCURVE",
"285 181 OFFCURVE",
"283 143 QCURVE SMOOTH",
"280 105 OFFCURVE",
"278 66 OFFCURVE",
"278 61 QCURVE SMOOTH",
"278 35 OFFCURVE",
"284 16 QCURVE",
"290 -11 OFFCURVE",
"327 -58 OFFCURVE",
"356 -58 QCURVE",
"358 -58 LINE",
"358 -125 LINE",
"327 -126 OFFCURVE",
"274 -130 OFFCURVE",
"260 -130 QCURVE SMOOTH",
"173 -130 OFFCURVE",
"98 -61 OFFCURVE",
"98 22 QCURVE SMOOTH",
"98 31 OFFCURVE",
"101 92 OFFCURVE",
"101 134 QCURVE",
"102 133 LINE",
"101 137 OFFCURVE",
"101 162 OFFCURVE",
"102 189 OFFCURVE",
"103 210 OFFCURVE",
"103 212 QCURVE",
"99 224 OFFCURVE",
"86 250 OFFCURVE",
"68 273 OFFCURVE",
"43 287 OFFCURVE",
"28 287 QCURVE",
"28 401 LINE",
"43 401 OFFCURVE",
"68 415 OFFCURVE",
"86 438 OFFCURVE",
"99 464 OFFCURVE",
"103 476 QCURVE",
"103 477 OFFCURVE",
"102 499 OFFCURVE",
"101 526 OFFCURVE",
"101 551 OFFCURVE",
"102 555 QCURVE",
"101 554 LINE",
"101 596 OFFCURVE",
"98 657 OFFCURVE",
"98 666 QCURVE SMOOTH",
"98 749 OFFCURVE",
"173 818 OFFCURVE",
"260 818 QCURVE SMOOTH",
"274 818 OFFCURVE",
"327 814 OFFCURVE",
"358 813 QCURVE"
);
}
);
width = 387;
}
);
unicode = 007B;
},
{
glyphname = bar;
layers = (
{
layerId = "CEEBABA5-0094-4467-BB67-138482C8FCD7";
paths = (
{
nodes = (
"488 867 LINE",
"488 -164 LINE",
"413 -164 LINE",
"413 867 LINE"
);
}
);
width = 833;
}
);
unicode = 007C;
},
{
glyphname = braceright;
layers = (
{
layerId = "CEEBABA5-0094-4467-BB67-138482C8FCD7";
paths = (
{
nodes = (
"28 813 LINE",
"59 814 OFFCURVE",
"112 818 OFFCURVE",
"126 818 QCURVE SMOOTH",
"213 818 OFFCURVE",
"288 749 OFFCURVE",
"288 666 QCURVE SMOOTH",
"288 657 OFFCURVE",
"285 596 OFFCURVE",
"285 554 QCURVE",
"284 555 LINE",
"285 551 OFFCURVE",
"285 526 OFFCURVE",
"284 499 OFFCURVE",
"283 477 OFFCURVE",
"283 476 QCURVE",
"287 464 OFFCURVE",
"300 438 OFFCURVE",
"318 415 OFFCURVE",
"343 401 OFFCURVE",
"358 401 QCURVE",
"358 287 LINE",
"343 287 OFFCURVE",
"318 273 OFFCURVE",
"300 250 OFFCURVE",
"287 224 OFFCURVE",
"283 212 QCURVE",
"283 210 OFFCURVE",
"284 189 OFFCURVE",
"285 162 OFFCURVE",
"285 137 OFFCURVE",
"284 133 QCURVE",
"285 134 LINE",
"285 92 OFFCURVE",
"288 31 OFFCURVE",
"288 22 QCURVE SMOOTH",
"288 -61 OFFCURVE",
"213 -130 OFFCURVE",
"126 -130 QCURVE SMOOTH",
"112 -130 OFFCURVE",
"59 -126 OFFCURVE",
"28 -125 QCURVE",
"28 -58 LINE",
"30 -58 LINE",
"59 -58 OFFCURVE",
"96 -11 OFFCURVE",
"102 16 QCURVE",
"108 35 OFFCURVE",
"108 61 QCURVE SMOOTH",
"108 66 OFFCURVE",
"106 105 OFFCURVE",
"104 143 QCURVE SMOOTH",
"101 181 OFFCURVE",
"100 217 OFFCURVE",
"100 219 QCURVE",
"100 255 OFFCURVE",
"107 275 QCURVE",
"117 315 OFFCURVE",
"147 334 QCURVE",
"152 336 OFFCURVE",
"161 342 OFFCURVE",
"166 344 QCURVE",
"121 363 OFFCURVE",
"107 413 QCURVE",
"100 433 OFFCURVE",
"100 469 QCURVE",
"100 471 OFFCURVE",
"101 508 OFFCURVE",
"104 546 QCURVE SMOOTH",
"106 584 OFFCURVE",
"108 622 OFFCURVE",
"108 627 QCURVE SMOOTH",
"108 652 OFFCURVE",
"102 672 QCURVE",
"96 699 OFFCURVE",
"59 746 OFFCURVE",
"30 746 QCURVE",
"28 746 LINE"
);
}
);
width = 387;
}
);
unicode = 007D;
},
{
glyphname = asciitilde;
layers = (
{
layerId = "CEEBABA5-0094-4467-BB67-138482C8FCD7";
paths = (
{
nodes = (
"563 484 LINE",
"556 454 OFFCURVE",
"541 378 OFFCURVE",
"512 309 OFFCURVE",
"462 262 OFFCURVE",
"420 262 QCURVE SMOOTH",
"401 262 OFFCURVE",
"357 271 OFFCURVE",
"311 283 OFFCURVE",
"266 298 OFFCURVE",
"246 304 QCURVE",
"246 305 LINE",
"243 305 OFFCURVE",
"219 312 OFFCURVE",
"194 319 OFFCURVE",
"172 326 OFFCURVE",
"171 326 QCURVE",
"159 326 OFFCURVE",
"130 321 OFFCURVE",
"104 309 OFFCURVE",
"83 289 OFFCURVE",
"79 274 QCURVE",
"13 292 LINE",
"20 323 OFFCURVE",
"35 400 OFFCURVE",
"64 467 OFFCURVE",
"114 513 OFFCURVE",
"156 513 QCURVE SMOOTH",
"183 513 OFFCURVE",
"251 493 OFFCURVE",
"319 470 OFFCURVE",
"384 450 OFFCURVE",
"408 450 QCURVE SMOOTH",
"421 450 OFFCURVE",
"450 455 OFFCURVE",
"476 468 OFFCURVE",
"495 488 OFFCURVE",
"498 503 QCURVE"
);
}
);
width = 587;
}
);
unicode = 007E;
},
{
glyphname = exclamdown;
layers = (
{
layerId = "CEEBABA5-0094-4467-BB67-138482C8FCD7";
paths = (
{
nodes = (
"40 548 LINE",
"349 548 LINE",
"349 0 LINE",
"40 0 LINE"
);
},
{
nodes = (
"40 695 LINE",
"349 695 LINE",
"349 604 LINE",
"40 604 LINE"
);
}
);
width = 390;
}
);
unicode = 00A1;
},
{
glyphname = cent;
layers = (
{
layerId = "CEEBABA5-0094-4467-BB67-138482C8FCD7";
paths = (
{
nodes = (
"592 487 LINE",
"592 516 OFFCURVE",
"570 567 OFFCURVE",
"533 604 OFFCURVE",
"482 626 OFFCURVE",
"453 626 QCURVE",
"453 70 LINE",
"482 70 OFFCURVE",
"533 92 OFFCURVE",
"570 129 OFFCURVE",
"592 180 OFFCURVE",
"592 209 QCURVE",
"661 209 LINE",
"661 166 OFFCURVE",
"628 90 OFFCURVE",
"572 33 OFFCURVE",
"496 0 OFFCURVE",
"453 0 QCURVE SMOOTH",
"386 0 LINE",
"386 -164 LINE",
"311 -164 LINE",
"311 0 LINE",
"244 0 LINE SMOOTH",
"201 0 OFFCURVE",
"125 33 OFFCURVE",
"69 90 OFFCURVE",
"36 166 OFFCURVE",
"36 209 QCURVE SMOOTH",
"36 487 LINE SMOOTH",
"36 530 OFFCURVE",
"69 606 OFFCURVE",
"125 663 OFFCURVE",
"201 696 OFFCURVE",
"244 696 QCURVE SMOOTH",
"311 696 LINE",
"311 867 LINE",
"386 867 LINE",
"386 696 LINE",
"453 696 LINE SMOOTH",
"496 696 OFFCURVE",
"572 663 OFFCURVE",
"628 606 OFFCURVE",
"661 530 OFFCURVE",
"661 487 QCURVE"
);
}
);
width = 697;
}
);
unicode = 00A2;
},
{
glyphname = sterling;
layers = (
{
layerId = "CEEBABA5-0094-4467-BB67-138482C8FCD7";
paths = (
{
nodes = (
"291 506 LINE SMOOTH",
"291 547 OFFCURVE",
"322 611 OFFCURVE",
"375 656 OFFCURVE",
"444 679 OFFCURVE",
"482 679 QCURVE SMOOTH",
"534 679 LINE SMOOTH",
"573 679 OFFCURVE",
"651 678 OFFCURVE",
"690 678 QCURVE SMOOTH",
"709 678 OFFCURVE",
"747 674 OFFCURVE",
"766 669 QCURVE SMOOTH",
"799 660 OFFCURVE",
"854 621 OFFCURVE",
"894 567 OFFCURVE",
"916 503 OFFCURVE",
"916 469 QCURVE",
"846 469 LINE",
"846 497 OFFCURVE",
"824 548 OFFCURVE",
"787 585 OFFCURVE",
"736 607 OFFCURVE",
"708 607 QCURVE",
"708 432 LINE",
"881 432 LINE",
"881 357 LINE",
"708 357 LINE",
"708 328 LINE SMOOTH",
"708 289 OFFCURVE",
"684 222 OFFCURVE",
"639 171 OFFCURVE",
"574 142 OFFCURVE",
"534 142 QCURVE SMOOTH",
"292 142 LINE",
"292 70 LINE",
"911 70 LINE",
"911 0 LINE",
"83 0 LINE",
"83 178 LINE SMOOTH",
"83 193 OFFCURVE",
"84 223 OFFCURVE",
"87 237 QCURVE SMOOTH",
"94 273 OFFCURVE",
"132 334 OFFCURVE",
"160 357 QCURVE",
"42 357 LINE",
"42 432 LINE",
"291 432 LINE"
);
}
);
width = 954;
}
);
unicode = 00A3;
},
{
glyphname = yen;
layers = (
{
layerId = "CEEBABA5-0094-4467-BB67-138482C8FCD7";
paths = (
{
nodes = (
"783 400 LINE",
"624 400 LINE",
"575 290 LINE",
"783 290 LINE",
"783 215 LINE",
"541 215 LINE",
"444 0 LINE",
"27 0 LINE",
"124 215 LINE",
"0 215 LINE",
"0 290 LINE",
"158 290 LINE",
"207 400 LINE",
"0 400 LINE",
"0 475 LINE",
"201 475 LINE",
"101 695 LINE",
"188 695 LINE",
"264 526 LINE",
"340 695 LINE",
"757 695 LINE",
"658 475 LINE",
"783 475 LINE"
);
}
);
width = 782;
}
);
unicode = 00A5;
},
{
glyphname = section;
layers = (
{
layerId = "CEEBABA5-0094-4467-BB67-138482C8FCD7";
paths = (
{
nodes = (
"26 -178 LINE",
"26 -109 LINE",
"450 -109 LINE SMOOTH",
"479 -109 OFFCURVE",
"530 -87 OFFCURVE",
"567 -50 OFFCURVE",
"589 1 OFFCURVE",
"589 30 QCURVE SMOOTH",
"589 59 OFFCURVE",
"567 110 OFFCURVE",
"530 147 OFFCURVE",
"479 169 OFFCURVE",
"450 169 QCURVE SMOOTH",
"207 169 LINE SMOOTH",
"171 169 OFFCURVE",
"108 196 OFFCURVE",
"60 244 OFFCURVE",
"33 307 OFFCURVE",
"33 343 QCURVE",
"450 343 LINE",
"450 239 LINE",
"477 240 OFFCURVE",
"525 263 OFFCURVE",
"561 300 OFFCURVE",
"582 350 OFFCURVE",
"582 378 QCURVE SMOOTH",
"582 407 OFFCURVE",
"560 458 OFFCURVE",
"523 495 OFFCURVE",
"472 517 OFFCURVE",
"443 517 QCURVE SMOOTH",
"200 517 LINE SMOOTH",
"164 517 OFFCURVE",
"101 544 OFFCURVE",
"53 592 OFFCURVE",
"26 655 OFFCURVE",
"26 691 QCURVE SMOOTH",
"26 727 OFFCURVE",
"53 790 OFFCURVE",
"101 838 OFFCURVE",
"164 865 OFFCURVE",
"200 865 QCURVE SMOOTH",
"443 865 LINE SMOOTH",
"486 865 OFFCURVE",
"562 832 OFFCURVE",
"619 775 OFFCURVE",
"652 699 OFFCURVE",
"652 656 QCURVE",
"582 656 LINE",
"582 685 OFFCURVE",
"560 736 OFFCURVE",
"523 773 OFFCURVE",
"472 795 OFFCURVE",
"443 795 QCURVE",
"443 587 LINE",
"486 587 OFFCURVE",
"561 555 OFFCURVE",
"618 499 OFFCURVE",
"651 424 OFFCURVE",
"651 381 QCURVE SMOOTH",
"651 327 OFFCURVE",
"603 236 OFFCURVE",
"561 207 QCURVE",
"606 179 OFFCURVE",
"658 90 OFFCURVE",
"658 33 QCURVE SMOOTH",
"658 -10 OFFCURVE",
"626 -86 OFFCURVE",
"569 -144 OFFCURVE",
"493 -178 OFFCURVE",
"450 -178 QCURVE SMOOTH"
);
}
);
width = 682;
}
);
unicode = 00A7;
},
{
glyphname = dieresis;
layers = (
{
layerId = "CEEBABA5-0094-4467-BB67-138482C8FCD7";
paths = (
{
nodes = (
"128 858 OFFCURVE",
"174 905 OFFCURVE",
"208 905 QCURVE SMOOTH",
"242 905 OFFCURVE",
"289 858 OFFCURVE",
"289 824 QCURVE SMOOTH",
"289 790 OFFCURVE",
"242 744 OFFCURVE",
"208 744 QCURVE SMOOTH",
"174 744 OFFCURVE",
"128 790 OFFCURVE",
"128 824 QCURVE SMOOTH"
);
},
{
nodes = (
"401 858 OFFCURVE",
"447 905 OFFCURVE",
"481 905 QCURVE SMOOTH",
"515 905 OFFCURVE",
"562 858 OFFCURVE",
"562 824 QCURVE SMOOTH",
"562 790 OFFCURVE",
"515 744 OFFCURVE",
"481 744 QCURVE SMOOTH",
"447 744 OFFCURVE",
"401 790 OFFCURVE",
"401 824 QCURVE SMOOTH"
);
}
);
width = 639;
}
);
unicode = 00A8;
},
{
glyphname = copyright;
layers = (
{
layerId = "CEEBABA5-0094-4467-BB67-138482C8FCD7";
paths = (
{
nodes = (
"275 51 OFFCURVE",
"160 100 OFFCURVE",
"75 185 OFFCURVE",
"26 300 OFFCURVE",
"26 365 QCURVE SMOOTH",
"26 430 OFFCURVE",
"75 545 OFFCURVE",
"160 630 OFFCURVE",
"275 679 OFFCURVE",
"340 679 QCURVE SMOOTH",
"405 679 OFFCURVE",
"520 630 OFFCURVE",
"605 545 OFFCURVE",
"654 430 OFFCURVE",
"654 365 QCURVE SMOOTH",
"654 300 OFFCURVE",
"605 185 OFFCURVE",
"520 100 OFFCURVE",
"405 51 OFFCURVE",
"340 51 QCURVE SMOOTH"
);
},
{
nodes = (
"288 615 OFFCURVE",
"197 576 OFFCURVE",
"129 508 OFFCURVE",
"90 417 OFFCURVE",
"90 365 QCURVE SMOOTH",
"90 313 OFFCURVE",
"129 222 OFFCURVE",
"197 154 OFFCURVE",
"288 115 OFFCURVE",
"340 115 QCURVE SMOOTH",
"392 115 OFFCURVE",
"483 154 OFFCURVE",
"551 222 OFFCURVE",
"590 313 OFFCURVE",
"590 365 QCURVE SMOOTH",
"590 417 OFFCURVE",
"551 508 OFFCURVE",
"483 576 OFFCURVE",
"392 615 OFFCURVE",
"340 615 QCURVE SMOOTH"
);
},
{
nodes = (
"486 259 LINE",
"461 225 OFFCURVE",
"385 185 OFFCURVE",
"340 185 QCURVE SMOOTH",
"302 185 OFFCURVE",
"237 213 OFFCURVE",
"187 262 OFFCURVE",
"159 327 OFFCURVE",
"159 365 QCURVE SMOOTH",
"159 402 OFFCURVE",
"187 468 OFFCURVE",
"237 518 OFFCURVE",
"302 546 OFFCURVE",
"340 546 QCURVE SMOOTH",
"377 546 OFFCURVE",
"441 518 OFFCURVE",
"465 495 QCURVE",
"421 449 LINE",
"405 464 OFFCURVE",
"363 482 OFFCURVE",
"340 482 QCURVE SMOOTH",
"316 482 OFFCURVE",
"273 463 OFFCURVE",
"242 432 OFFCURVE",
"223 389 OFFCURVE",
"223 365 QCURVE SMOOTH",
"223 341 OFFCURVE",
"242 299 OFFCURVE",
"273 267 OFFCURVE",
"316 249 OFFCURVE",
"340 249 QCURVE SMOOTH",
"369 249 OFFCURVE",
"418 275 OFFCURVE",
"434 297 QCURVE"
);
}
);
width = 680;
}
);
unicode = 00A9;
},
{
glyphname = ordfeminine;
layers = (
{
layerId = "CEEBABA5-0094-4467-BB67-138482C8FCD7";
paths = (
{
nodes = (
"363 393 LINE",
"275 392 LINE",
"103 392 LINE SMOOTH",
"72 392 OFFCURVE",
"25 436 OFFCURVE",
"25 467 QCURVE SMOOTH",
"25 513 LINE SMOOTH",
"25 545 OFFCURVE",
"48 568 QCURVE SMOOTH",
"59 579 OFFCURVE",
"87 591 OFFCURVE",
"108 591 QCURVE SMOOTH",
"165 591 LINE",
"165 653 LINE",
"26 653 LINE",
"26 680 LINE",
"285 680 LINE SMOOTH",
"318 680 OFFCURVE",
"363 634 OFFCURVE",
"363 602 QCURVE SMOOTH"
);
},
{
nodes = (
"103 565 LINE SMOOTH",
"81 565 OFFCURVE",
"51 534 OFFCURVE",
"51 513 QCURVE SMOOTH",
"51 478 LINE SMOOTH",
"51 454 OFFCURVE",
"75 418 OFFCURVE",
"103 418 QCURVE",
"167 419 LINE",
"167 565 LINE"
);
}
);
width = 381;
}
);
unicode = 00AA;
},
{
glyphname = registered;
layers = (
{
layerId = "CEEBABA5-0094-4467-BB67-138482C8FCD7";
paths = (
{
nodes = (
"275 65 OFFCURVE",
"164 111 OFFCURVE",
"119 156 QCURVE SMOOTH",
"27 248 OFFCURVE",
"27 376 QCURVE SMOOTH",
"27 439 OFFCURVE",
"74 551 OFFCURVE",
"119 596 QCURVE SMOOTH",
"164 641 OFFCURVE",
"275 687 OFFCURVE",
"338 687 QCURVE SMOOTH",
"401 687 OFFCURVE",
"513 641 OFFCURVE",
"558 596 QCURVE SMOOTH",
"603 551 OFFCURVE",
"650 439 OFFCURVE",
"650 376 QCURVE SMOOTH",
"650 248 OFFCURVE",
"558 156 QCURVE SMOOTH",
"513 111 OFFCURVE",
"401 65 OFFCURVE",
"338 65 QCURVE SMOOTH"
);
},
{
nodes = (
"283 641 OFFCURVE",
"187 599 OFFCURVE",
"115 527 OFFCURVE",
"73 431 OFFCURVE",
"73 376 QCURVE SMOOTH",
"73 321 OFFCURVE",
"115 225 OFFCURVE",
"187 153 OFFCURVE",
"283 111 OFFCURVE",
"338 111 QCURVE SMOOTH",
"393 111 OFFCURVE",
"490 153 OFFCURVE",
"562 225 OFFCURVE",
"604 321 OFFCURVE",
"604 376 QCURVE SMOOTH",
"604 431 OFFCURVE",
"562 527 OFFCURVE",
"490 599 OFFCURVE",
"393 641 OFFCURVE",
"338 641 QCURVE SMOOTH"
);
},
{
nodes = (
"449 335 OFFCURVE",
"492 239 OFFCURVE",
"514 191 QCURVE",
"476 191 LINE",
"394 376 LINE",
"394 191 LINE",
"172 191 LINE",
"172 561 LINE",
"394 561 LINE SMOOTH",
"433 561 OFFCURVE",
"486 507 OFFCURVE",
"486 468 QCURVE SMOOTH",
"486 434 OFFCURVE",
"459 395 OFFCURVE",
"428 383 QCURVE"
);
},
{
nodes = (
"449 492 OFFCURVE",
"417 524 OFFCURVE",
"394 524 QCURVE",
"394 413 LINE",
"417 413 OFFCURVE",
"449 444 OFFCURVE",
"449 468 QCURVE SMOOTH"
);
}
);
width = 682;
}
);
unicode = 00AE;
},
{
glyphname = macron;
layers = (
{
layerId = "CEEBABA5-0094-4467-BB67-138482C8FCD7";
paths = (
{
nodes = (
"92 856 LINE",
"493 856 LINE",
"493 745 LINE",
"92 745 LINE"
);
}
);
width = 596;
}
);
unicode = 00AF;
},
{
glyphname = degree;
layers = (
{
layerId = "CEEBABA5-0094-4467-BB67-138482C8FCD7";
paths = (
{
nodes = (
"169 316 OFFCURVE",
"102 344 OFFCURVE",
"53 393 OFFCURVE",
"25 460 OFFCURVE",
"25 498 QCURVE SMOOTH",
"25 535 OFFCURVE",
"53 601 OFFCURVE",
"102 651 OFFCURVE",
"169 680 OFFCURVE",
"207 680 QCURVE SMOOTH",
"244 680 OFFCURVE",
"310 651 OFFCURVE",
"360 601 OFFCURVE",
"389 535 OFFCURVE",
"389 498 QCURVE SMOOTH",
"389 460 OFFCURVE",
"360 393 OFFCURVE",
"310 344 OFFCURVE",
"244 316 OFFCURVE",
"207 316 QCURVE SMOOTH"
);
},
{
nodes = (
"183 616 OFFCURVE",
"140 597 OFFCURVE",
"108 565 OFFCURVE",
"89 522 OFFCURVE",
"89 498 QCURVE SMOOTH",
"89 474 OFFCURVE",
"108 431 OFFCURVE",
"140 399 OFFCURVE",
"183 380 OFFCURVE",
"207 380 QCURVE SMOOTH",
"231 380 OFFCURVE",
"274 399 OFFCURVE",
"306 431 OFFCURVE",
"325 474 OFFCURVE",
"325 498 QCURVE SMOOTH",
"325 522 OFFCURVE",
"306 565 OFFCURVE",
"274 597 OFFCURVE",
"231 616 OFFCURVE",
"207 616 QCURVE SMOOTH"
);
}
);
width = 410;
}
);
unicode = 00B0;
},
{
glyphname = acute;
layers = (
{
layerId = "CEEBABA5-0094-4467-BB67-138482C8FCD7";
paths = (
{
nodes = (
"220 743 LINE",
"134 777 LINE",
"195 947 LINE",
"317 888 LINE"
);
}
);
width = 402;
}
);
unicode = 00B4;
},
{
glyphname = paragraph;
layers = (
{
layerId = "CEEBABA5-0094-4467-BB67-138482C8FCD7";
paths = (
{
nodes = (
"732 620 LINE",
"652 620 LINE",
"652 -172 LINE",
"577 -172 LINE",
"577 620 LINE",
"439 620 LINE",
"439 -172 LINE",
"364 -172 LINE",
"364 347 LINE",
"218 347 LINE SMOOTH",
"182 347 OFFCURVE",
"119 374 OFFCURVE",
"71 422 OFFCURVE",
"44 485 OFFCURVE",
"44 521 QCURVE SMOOTH",
"44 557 OFFCURVE",
"71 620 OFFCURVE",
"119 668 OFFCURVE",
"182 695 OFFCURVE",
"218 695 QCURVE SMOOTH",
"732 695 LINE"
);
}
);
width = 753;
}
);
unicode = 00B6;
},
{
glyphname = periodcentered;
layers = (
{
layerId = "CEEBABA5-0094-4467-BB67-138482C8FCD7";
paths = (
{
nodes = (
"43 352 OFFCURVE",
"95 405 OFFCURVE",
"133 405 QCURVE SMOOTH",
"171 405 OFFCURVE",
"224 352 OFFCURVE",
"224 314 QCURVE SMOOTH",
"224 276 OFFCURVE",
"171 224 OFFCURVE",
"133 224 QCURVE SMOOTH",
"95 224 OFFCURVE",
"43 276 OFFCURVE",
"43 314 QCURVE SMOOTH"
);
}
);
width = 265;
}
);
unicode = 00B7;
},
{
glyphname = cedilla;
layers = (
{
layerId = "CEEBABA5-0094-4467-BB67-138482C8FCD7";
paths = (
{
nodes = (
"526 -192 LINE SMOOTH",
"526 -226 OFFCURVE",
"480 -270 OFFCURVE",
"446 -270 QCURVE SMOOTH",
"345 -270 LINE SMOOTH",
"326 -270 OFFCURVE",
"292 -255 OFFCURVE",
"266 -228 OFFCURVE",
"251 -191 OFFCURVE",
"251 -170 QCURVE",
"297 -170 LINE",
"297 -193 OFFCURVE",
"325 -227 OFFCURVE",
"345 -227 QCURVE SMOOTH",
"415 -227 LINE",
"415 -198 OFFCURVE",
"416 -135 OFFCURVE",
"416 -106 QCURVE",
"309 -106 LINE",
"309 0 LINE",
"403 0 LINE",
"403 -71 LINE",
"446 -71 LINE SMOOTH",
"480 -71 OFFCURVE",
"526 -117 OFFCURVE",
"526 -150 QCURVE SMOOTH"
);
}
);
width = 762;
}
);
unicode = 00B8;
},
{
glyphname = ordmasculine;
layers = (
{
layerId = "CEEBABA5-0094-4467-BB67-138482C8FCD7";
paths = (
{
nodes = (
"28 606 LINE SMOOTH",
"28 637 OFFCURVE",
"75 681 OFFCURVE",
"106 681 QCURVE SMOOTH",
"298 681 LINE SMOOTH",
"313 681 OFFCURVE",
"341 669 OFFCURVE",
"363 649 OFFCURVE",
"376 621 OFFCURVE",
"376 606 QCURVE SMOOTH",
"376 466 LINE SMOOTH",
"376 435 OFFCURVE",
"328 392 OFFCURVE",
"298 392 QCURVE SMOOTH",
"106 392 LINE SMOOTH",
"75 392 OFFCURVE",
"28 435 OFFCURVE",
"28 466 QCURVE SMOOTH"
);
},
{
nodes = (
"234 654 LINE",
"234 418 LINE",
"298 418 LINE SMOOTH",
"326 418 OFFCURVE",
"350 453 OFFCURVE",
"350 478 QCURVE SMOOTH",
"350 595 LINE SMOOTH",
"350 619 OFFCURVE",
"326 655 OFFCURVE",
"298 655 QCURVE"
);
}
);
width = 397;
}
);
unicode = 00BA;
},
{
glyphname = questiondown;
layers = (
{
layerId = "CEEBABA5-0094-4467-BB67-138482C8FCD7";
paths = (
{
nodes = (
"564 607 LINE",
"255 607 LINE",
"255 698 LINE",
"564 698 LINE"
);
},
{
nodes = (
"29 280 LINE SMOOTH",
"29 319 OFFCURVE",
"53 386 OFFCURVE",
"98 437 OFFCURVE",
"162 466 OFFCURVE",
"203 466 QCURVE SMOOTH",
"254 466 LINE",
"254 551 LINE",
"563 551 LINE",
"564 72 LINE",
"592 72 OFFCURVE",
"643 94 OFFCURVE",
"680 131 OFFCURVE",
"702 181 OFFCURVE",
"702 210 QCURVE",
"772 210 LINE",
"772 176 OFFCURVE",
"750 112 OFFCURVE",
"710 58 OFFCURVE",
"655 19 OFFCURVE",
"622 10 QCURVE SMOOTH",
"603 5 OFFCURVE",
"565 1 OFFCURVE",
"546 1 QCURVE SMOOTH",
"482 1 OFFCURVE",
"355 2 OFFCURVE",
"291 2 QCURVE SMOOTH",
"262 2 OFFCURVE",
"224 0 OFFCURVE",
"217 0 QCURVE SMOOTH",
"180 0 OFFCURVE",
"112 25 OFFCURVE",
"60 70 OFFCURVE",
"29 134 OFFCURVE",
"29 173 QCURVE SMOOTH"
);
}
);
width = 811;
}
);
unicode = 00BF;
},
{
glyphname = Agrave;
layers = (
{
layerId = "CEEBABA5-0094-4467-BB67-138482C8FCD7";
paths = (
{
nodes = (
"133 139 LINE",
"217 139 LINE",
"175 231 LINE"
);
},
{
nodes = (
"102 69 LINE",
"71 0 LINE",
"1 0 LINE",
"314 695 LINE",
"384 695 LINE",
"696 0 LINE",
"279 0 LINE",
"248 69 LINE"
);
},
{
nodes = (
"354 743 LINE",
"257 888 LINE",
"379 947 LINE",
"440 777 LINE"
);
}
);
width = 698;
}
);
unicode = 00C0;
},
{
glyphname = Aacute;
layers = (
{
layerId = "CEEBABA5-0094-4467-BB67-138482C8FCD7";
paths = (
{
nodes = (
"133 139 LINE",
"217 139 LINE",
"175 231 LINE"
);
},
{
nodes = (
"102 69 LINE",
"71 0 LINE",
"1 0 LINE",
"314 695 LINE",
"384 695 LINE",
"696 0 LINE",
"279 0 LINE",
"248 69 LINE"
);
},
{
nodes = (
"449 888 LINE",
"352 743 LINE",
"266 777 LINE",
"327 947 LINE"
);
}
);
width = 696;
}
);
unicode = 00C1;
},
{
glyphname = Acircumflex;
layers = (
{
layerId = "CEEBABA5-0094-4467-BB67-138482C8FCD7";
paths = (
{
nodes = (
"133 139 LINE",
"217 139 LINE",
"175 231 LINE"
);
},
{
nodes = (
"102 69 LINE",
"71 0 LINE",
"1 0 LINE",
"314 695 LINE",
"384 695 LINE",
"696 0 LINE",
"279 0 LINE",
"248 69 LINE"
);
},
{
nodes = (
"319 888 LINE",
"222 743 LINE",
"136 777 LINE",
"197 947 LINE"
);
},
{
nodes = (
"476 743 LINE",
"379 888 LINE",
"501 947 LINE",
"562 777 LINE"
);
}
);
width = 698;
}
);
unicode = 00C2;
},
{
glyphname = Atilde;
layers = (
{
layerId = "CEEBABA5-0094-4467-BB67-138482C8FCD7";
paths = (
{
nodes = (
"536 910 LINE",
"531 890 OFFCURVE",
"521 838 OFFCURVE",
"501 792 OFFCURVE",
"467 760 OFFCURVE",
"439 760 QCURVE SMOOTH",
"413 760 OFFCURVE",
"348 781 OFFCURVE",
"321 788 QCURVE",
"321 789 LINE",
"319 789 OFFCURVE",
"303 793 OFFCURVE",
"286 799 OFFCURVE",
"271 803 OFFCURVE",
"270 803 QCURVE",
"253 803 OFFCURVE",
"213 788 OFFCURVE",
"208 768 QCURVE",
"163 780 LINE",
"168 801 OFFCURVE",
"178 853 OFFCURVE",
"198 899 OFFCURVE",
"231 930 OFFCURVE",
"260 930 QCURVE SMOOTH",
"279 930 OFFCURVE",
"324 917 OFFCURVE",
"371 900 OFFCURVE",
"414 887 OFFCURVE",
"431 887 QCURVE SMOOTH",
"449 887 OFFCURVE",
"487 903 OFFCURVE",
"492 923 QCURVE"
);
},
{
nodes = (
"71 0 LINE",
"1 0 LINE",
"314 695 LINE",
"384 695 LINE",
"696 0 LINE",
"279 0 LINE",
"248 69 LINE",
"102 69 LINE"
);
},
{
nodes = (
"217 139 LINE",
"175 231 LINE",
"133 139 LINE"
);
}
);
width = 698;
}
);
unicode = 00C3;
},
{
glyphname = Adieresis;
layers = (
{
layerId = "CEEBABA5-0094-4467-BB67-138482C8FCD7";
paths = (
{
nodes = (
"132 858 OFFCURVE",
"178 905 OFFCURVE",
"212 905 QCURVE SMOOTH",
"246 905 OFFCURVE",
"293 858 OFFCURVE",
"293 824 QCURVE SMOOTH",
"293 790 OFFCURVE",
"246 744 OFFCURVE",
"212 744 QCURVE SMOOTH",
"178 744 OFFCURVE",
"132 790 OFFCURVE",
"132 824 QCURVE SMOOTH"
);
},
{
nodes = (
"405 858 OFFCURVE",
"451 905 OFFCURVE",
"485 905 QCURVE SMOOTH",
"519 905 OFFCURVE",
"566 858 OFFCURVE",
"566 824 QCURVE SMOOTH",
"566 790 OFFCURVE",
"519 744 OFFCURVE",
"485 744 QCURVE SMOOTH",
"451 744 OFFCURVE",
"405 790 OFFCURVE",
"405 824 QCURVE SMOOTH"
);
},
{
nodes = (
"71 0 LINE",
"1 0 LINE",
"314 695 LINE",
"384 695 LINE",
"696 0 LINE",
"279 0 LINE",
"248 69 LINE",
"102 69 LINE"
);
},
{
nodes = (
"217 139 LINE",
"175 231 LINE",
"133 139 LINE"
);
}
);
width = 698;
}
);
unicode = 00C4;
},
{
glyphname = Aring;
layers = (
{
layerId = "CEEBABA5-0094-4467-BB67-138482C8FCD7";
paths = (
{
nodes = (
"328 740 OFFCURVE",
"290 756 OFFCURVE",
"262 785 OFFCURVE",
"246 822 OFFCURVE",
"246 843 QCURVE SMOOTH",
"246 886 OFFCURVE",
"306 944 OFFCURVE",
"349 944 QCURVE SMOOTH",
"370 944 OFFCURVE",
"407 928 OFFCURVE",
"435 901 OFFCURVE",
"452 864 OFFCURVE",
"452 843 QCURVE SMOOTH",
"452 822 OFFCURVE",
"435 785 OFFCURVE",
"407 756 OFFCURVE",
"370 740 OFFCURVE",
"349 740 QCURVE SMOOTH"
);
},
{
nodes = (
"330 890 OFFCURVE",
"303 864 OFFCURVE",
"303 844 QCURVE SMOOTH",
"303 827 OFFCURVE",
"330 798 OFFCURVE",
"352 798 QCURVE SMOOTH",
"372 798 OFFCURVE",
"400 827 OFFCURVE",
"400 844 QCURVE SMOOTH",
"400 864 OFFCURVE",
"372 890 OFFCURVE",
"352 890 QCURVE SMOOTH"
);
},
{
nodes = (
"71 0 LINE",
"1 0 LINE",
"314 695 LINE",
"384 695 LINE",
"696 0 LINE",
"279 0 LINE",
"248 69 LINE",
"102 69 LINE"
);
},
{
nodes = (
"217 139 LINE",
"175 231 LINE",
"133 139 LINE"
);
}
);
width = 698;
}
);
unicode = 00C5;
},
{
glyphname = AE;
layers = (
{
layerId = "CEEBABA5-0094-4467-BB67-138482C8FCD7";
paths = (
{
nodes = (
"181 139 LINE",
"469 139 LINE",
"469 583 LINE"
);
},
{
nodes = (
"138 69 LINE",
"89 0 LINE",
"19 0 LINE",
"463 695 LINE",
"1060 695 LINE",
"1060 625 LINE",
"887 625 LINE",
"887 417 LINE",
"1060 417 LINE",
"1060 347 LINE",
"887 347 LINE",
"887 69 LINE",
"1060 69 LINE",
"1060 0 LINE",
"469 0 LINE",
"469 69 LINE"
);
}
);
width = 1084;
}
);
unicode = 00C6;
},
{
glyphname = Ccedilla;
layers = (
{
layerId = "CEEBABA5-0094-4467-BB67-138482C8FCD7";
paths = (
{
nodes = (
"592 487 LINE",
"592 516 OFFCURVE",
"570 567 OFFCURVE",
"533 604 OFFCURVE",
"482 626 OFFCURVE",
"453 626 QCURVE",
"453 70 LINE",
"482 70 OFFCURVE",
"533 92 OFFCURVE",
"570 129 OFFCURVE",
"592 180 OFFCURVE",
"592 209 QCURVE",
"661 209 LINE",
"661 166 OFFCURVE",
"628 90 OFFCURVE",
"572 33 OFFCURVE",
"496 0 OFFCURVE",
"453 0 QCURVE SMOOTH",
"363 0 LINE",
"363 -71 LINE",
"406 -71 LINE SMOOTH",
"440 -71 OFFCURVE",
"486 -117 OFFCURVE",
"486 -150 QCURVE SMOOTH",
"486 -192 LINE SMOOTH",
"486 -226 OFFCURVE",
"440 -270 OFFCURVE",
"406 -270 QCURVE SMOOTH",
"305 -270 LINE SMOOTH",
"286 -270 OFFCURVE",
"252 -255 OFFCURVE",
"226 -228 OFFCURVE",
"211 -191 OFFCURVE",
"211 -170 QCURVE",
"257 -170 LINE",
"257 -193 OFFCURVE",
"285 -227 OFFCURVE",
"305 -227 QCURVE SMOOTH",
"375 -227 LINE",
"375 -198 OFFCURVE",
"376 -135 OFFCURVE",
"376 -106 QCURVE",
"269 -106 LINE",
"269 0 LINE",
"244 0 LINE SMOOTH",
"201 0 OFFCURVE",
"125 33 OFFCURVE",
"69 90 OFFCURVE",
"36 166 OFFCURVE",
"36 209 QCURVE SMOOTH",
"36 487 LINE SMOOTH",
"36 530 OFFCURVE",
"69 606 OFFCURVE",
"125 663 OFFCURVE",
"201 696 OFFCURVE",
"244 696 QCURVE SMOOTH",
"453 696 LINE SMOOTH",
"496 696 OFFCURVE",
"572 663 OFFCURVE",
"628 606 OFFCURVE",
"661 530 OFFCURVE",
"661 487 QCURVE"
);
}
);
width = 697;
}
);
unicode = 00C7;
},
{
glyphname = Egrave;
layers = (
{
layerId = "CEEBABA5-0094-4467-BB67-138482C8FCD7";
paths = (
{
nodes = (
"629 69 LINE",
"629 0 LINE",
"38 0 LINE",
"38 695 LINE",
"629 695 LINE",
"629 625 LINE",
"456 625 LINE",
"456 417 LINE",
"629 417 LINE",
"629 347 LINE",
"456 347 LINE",
"456 69 LINE"
);
},
{
nodes = (
"241 888 LINE",
"363 947 LINE",
"424 777 LINE",
"338 743 LINE"
);
}
);
width = 665;
}
);
unicode = 00C8;
},
{
glyphname = Eacute;
layers = (
{
layerId = "CEEBABA5-0094-4467-BB67-138482C8FCD7";
paths = (
{
nodes = (
"629 69 LINE",
"629 0 LINE",
"38 0 LINE",
"38 695 LINE",
"629 695 LINE",
"629 625 LINE",
"456 625 LINE",
"456 417 LINE",
"629 417 LINE",
"629 347 LINE",
"456 347 LINE",
"456 69 LINE"
);
},
{
nodes = (
"327 740 LINE",
"241 774 LINE",
"302 944 LINE",
"424 885 LINE"
);
}
);
width = 665;
}
);
unicode = 00C9;
},
{
glyphname = Ecircumflex;
layers = (
{
layerId = "CEEBABA5-0094-4467-BB67-138482C8FCD7";
paths = (
{
nodes = (
"629 69 LINE",
"629 0 LINE",
"38 0 LINE",
"38 695 LINE",
"629 695 LINE",
"629 625 LINE",
"456 625 LINE",
"456 417 LINE",
"629 417 LINE",
"629 347 LINE",
"456 347 LINE",
"456 69 LINE"
);
},
{
nodes = (
"363 888 LINE",
"485 947 LINE",
"546 777 LINE",
"460 743 LINE"
);
},
{
nodes = (
"206 743 LINE",
"120 777 LINE",
"181 947 LINE",
"303 888 LINE"
);
}
);
width = 665;
}
);
unicode = 00CA;
},
{
glyphname = Edieresis;
layers = (
{
layerId = "CEEBABA5-0094-4467-BB67-138482C8FCD7";
paths = (
{
nodes = (
"116 858 OFFCURVE",
"162 905 OFFCURVE",
"196 905 QCURVE SMOOTH",
"230 905 OFFCURVE",
"277 858 OFFCURVE",
"277 824 QCURVE SMOOTH",
"277 790 OFFCURVE",
"230 744 OFFCURVE",
"196 744 QCURVE SMOOTH",
"162 744 OFFCURVE",
"116 790 OFFCURVE",
"116 824 QCURVE SMOOTH"
);
},
{
nodes = (
"389 858 OFFCURVE",
"435 905 OFFCURVE",
"469 905 QCURVE SMOOTH",
"503 905 OFFCURVE",
"550 858 OFFCURVE",
"550 824 QCURVE SMOOTH",
"550 790 OFFCURVE",
"503 744 OFFCURVE",
"469 744 QCURVE SMOOTH",
"435 744 OFFCURVE",
"389 790 OFFCURVE",
"389 824 QCURVE SMOOTH"
);
},
{
nodes = (
"629 69 LINE",
"629 0 LINE",
"38 0 LINE",
"38 695 LINE",
"629 695 LINE",
"629 625 LINE",
"456 625 LINE",
"456 417 LINE",
"629 417 LINE",
"629 347 LINE",
"456 347 LINE",
"456 69 LINE"
);
}
);
width = 665;
}
);
unicode = 00CB;
},
{
glyphname = Igrave;
layers = (
{
layerId = "CEEBABA5-0094-4467-BB67-138482C8FCD7";
paths = (
{
nodes = (
"456 695 LINE",
"456 0 LINE",
"39 0 LINE",
"39 695 LINE"
);
},
{
nodes = (
"159 888 LINE",
"281 947 LINE",
"342 777 LINE",
"256 743 LINE"
);
}
);
width = 501;
}
);
unicode = 00CC;
},
{
glyphname = Iacute;
layers = (
{
layerId = "CEEBABA5-0094-4467-BB67-138482C8FCD7";
paths = (
{
nodes = (
"456 695 LINE",
"456 0 LINE",
"39 0 LINE",
"39 695 LINE"
);
},
{
nodes = (
"245 740 LINE",
"159 774 LINE",
"220 944 LINE",
"342 885 LINE"
);
}
);
width = 501;
}
);
unicode = 00CD;
},
{
glyphname = Icircumflex;
layers = (
{
layerId = "CEEBABA5-0094-4467-BB67-138482C8FCD7";
paths = (
{
nodes = (
"456 695 LINE",
"456 0 LINE",
"39 0 LINE",
"39 695 LINE"
);
},
{
nodes = (
"281 888 LINE",
"403 947 LINE",
"464 777 LINE",
"378 743 LINE"
);
},
{
nodes = (
"124 743 LINE",
"38 777 LINE",
"99 947 LINE",
"221 888 LINE"
);
}
);
width = 501;
}
);
unicode = 00CE;
},
{
glyphname = Idieresis;
layers = (
{
layerId = "CEEBABA5-0094-4467-BB67-138482C8FCD7";
paths = (
{
nodes = (
"34 858 OFFCURVE",
"80 905 OFFCURVE",
"114 905 QCURVE SMOOTH",
"148 905 OFFCURVE",
"195 858 OFFCURVE",
"195 824 QCURVE SMOOTH",
"195 790 OFFCURVE",
"148 744 OFFCURVE",
"114 744 QCURVE SMOOTH",
"80 744 OFFCURVE",
"34 790 OFFCURVE",
"34 824 QCURVE SMOOTH"
);
},
{
nodes = (
"307 858 OFFCURVE",
"353 905 OFFCURVE",
"387 905 QCURVE SMOOTH",
"421 905 OFFCURVE",
"468 858 OFFCURVE",
"468 824 QCURVE SMOOTH",
"468 790 OFFCURVE",
"421 744 OFFCURVE",
"387 744 QCURVE SMOOTH",
"353 744 OFFCURVE",
"307 790 OFFCURVE",
"307 824 QCURVE SMOOTH"
);
},
{
nodes = (
"456 695 LINE",
"456 0 LINE",
"39 0 LINE",
"39 695 LINE"
);
}
);
width = 501;
}
);
unicode = 00CF;
},
{
glyphname = Eth;
layers = (
{
layerId = "CEEBABA5-0094-4467-BB67-138482C8FCD7";
paths = (
{
nodes = (
"726 258 LINE SMOOTH",
"726 244 OFFCURVE",
"725 215 OFFCURVE",
"724 201 QCURVE SMOOTH",
"722 159 OFFCURVE",
"689 86 OFFCURVE",
"633 31 OFFCURVE",
"559 0 OFFCURVE",
"516 0 QCURVE SMOOTH",
"99 0 LINE",
"99 321 LINE",
"31 321 LINE",
"31 383 LINE",
"99 383 LINE",
"99 695 LINE",
"516 695 LINE SMOOTH",
"559 695 OFFCURVE",
"635 662 OFFCURVE",
"692 606 OFFCURVE",
"725 530 OFFCURVE",
"725 487 QCURVE SMOOTH",
"725 444 OFFCURVE",
"726 360 OFFCURVE",
"726 315 QCURVE SMOOTH"
);
},
{
nodes = (
"516 69 LINE",
"551 69 OFFCURVE",
"603 94 OFFCURVE",
"638 136 OFFCURVE",
"655 194 OFFCURVE",
"655 227 QCURVE SMOOTH",
"655 487 LINE SMOOTH",
"655 515 OFFCURVE",
"633 566 OFFCURVE",
"595 604 OFFCURVE",
"544 626 OFFCURVE",
"516 626 QCURVE",
"516 383 LINE",
"572 383 LINE",
"572 321 LINE",
"516 321 LINE"
);
}
);
width = 752;
}
);
unicode = 00D0;
},
{
glyphname = Ntilde;
layers = (
{
layerId = "CEEBABA5-0094-4467-BB67-138482C8FCD7";
paths = (
{
nodes = (
"546 910 LINE",
"541 890 OFFCURVE",
"531 838 OFFCURVE",
"511 792 OFFCURVE",
"477 760 OFFCURVE",
"449 760 QCURVE SMOOTH",
"423 760 OFFCURVE",
"358 781 OFFCURVE",
"331 788 QCURVE",
"331 789 LINE",
"329 789 OFFCURVE",
"313 793 OFFCURVE",
"296 799 OFFCURVE",
"281 803 OFFCURVE",
"280 803 QCURVE",
"263 803 OFFCURVE",
"223 788 OFFCURVE",
"218 768 QCURVE",
"173 780 LINE",
"178 801 OFFCURVE",
"188 853 OFFCURVE",
"208 899 OFFCURVE",
"241 930 OFFCURVE",
"270 930 QCURVE SMOOTH",
"289 930 OFFCURVE",
"334 917 OFFCURVE",
"381 900 OFFCURVE",
"424 887 OFFCURVE",
"441 887 QCURVE SMOOTH",
"459 887 OFFCURVE",
"497 903 OFFCURVE",
"502 923 QCURVE"
);
},
{
nodes = (
"669 695 LINE",
"669 0 LINE",
"600 0 LINE",
"600 232 LINE",
"461 540 LINE",
"461 0 LINE",
"44 0 LINE",
"44 695 LINE",
"461 695 LINE",
"600 386 LINE",
"600 695 LINE"
);
}
);
width = 719;
}
);
unicode = 00D1;
},
{
glyphname = Ograve;
layers = (
{
layerId = "CEEBABA5-0094-4467-BB67-138482C8FCD7";
paths = (
{
nodes = (
"261 888 LINE",
"383 947 LINE",
"444 777 LINE",
"358 743 LINE"
);
},
{
nodes = (
"665 201 LINE SMOOTH",
"665 159 OFFCURVE",
"630 86 OFFCURVE",
"573 32 OFFCURVE",
"497 0 OFFCURVE",
"457 0 QCURVE SMOOTH",
"248 0 LINE SMOOTH",
"205 0 OFFCURVE",
"129 33 OFFCURVE",
"73 89 OFFCURVE",
"40 165 OFFCURVE",
"40 208 QCURVE SMOOTH",
"40 486 LINE SMOOTH",
"40 529 OFFCURVE",
"73 605 OFFCURVE",
"129 662 OFFCURVE",
"205 695 OFFCURVE",
"248 695 QCURVE SMOOTH",
"457 695 LINE SMOOTH",
"500 695 OFFCURVE",
"576 662 OFFCURVE",
"632 605 OFFCURVE",
"665 529 OFFCURVE",
"665 486 QCURVE SMOOTH"
);
},
{
nodes = (
"457 69 LINE",
"494 69 OFFCURVE",
"546 95 OFFCURVE",
"580 139 OFFCURVE",
"596 199 OFFCURVE",
"596 232 QCURVE SMOOTH",
"596 486 LINE SMOOTH",
"596 515 OFFCURVE",
"574 566 OFFCURVE",
"537 603 OFFCURVE",
"486 625 OFFCURVE",
"457 625 QCURVE"
);
}
);
width = 706;
}
);
unicode = 00D2;
},
{
glyphname = Oacute;
layers = (
{
layerId = "CEEBABA5-0094-4467-BB67-138482C8FCD7";
paths = (
{
nodes = (
"347 740 LINE",
"261 774 LINE",
"322 944 LINE",
"444 885 LINE"
);
},
{
nodes = (
"665 201 LINE SMOOTH",
"665 159 OFFCURVE",
"630 86 OFFCURVE",
"573 32 OFFCURVE",
"497 0 OFFCURVE",
"457 0 QCURVE SMOOTH",
"248 0 LINE SMOOTH",
"205 0 OFFCURVE",
"129 33 OFFCURVE",
"73 89 OFFCURVE",
"40 165 OFFCURVE",
"40 208 QCURVE SMOOTH",
"40 486 LINE SMOOTH",
"40 529 OFFCURVE",
"73 605 OFFCURVE",
"129 662 OFFCURVE",
"205 695 OFFCURVE",
"248 695 QCURVE SMOOTH",
"457 695 LINE SMOOTH",
"500 695 OFFCURVE",
"576 662 OFFCURVE",
"632 605 OFFCURVE",
"665 529 OFFCURVE",
"665 486 QCURVE SMOOTH"
);
},
{
nodes = (
"457 69 LINE",
"494 69 OFFCURVE",
"546 95 OFFCURVE",
"580 139 OFFCURVE",
"596 199 OFFCURVE",
"596 232 QCURVE SMOOTH",
"596 486 LINE SMOOTH",
"596 515 OFFCURVE",
"574 566 OFFCURVE",
"537 603 OFFCURVE",
"486 625 OFFCURVE",
"457 625 QCURVE"
);
}
);
width = 706;
}
);
unicode = 00D3;
},
{
glyphname = Ocircumflex;
layers = (
{
layerId = "CEEBABA5-0094-4467-BB67-138482C8FCD7";
paths = (
{
nodes = (
"383 888 LINE",
"505 947 LINE",
"566 777 LINE",
"480 743 LINE"
);
},
{
nodes = (
"226 743 LINE",
"140 777 LINE",
"201 947 LINE",
"323 888 LINE"
);
},
{
nodes = (
"665 201 LINE SMOOTH",
"665 159 OFFCURVE",
"630 86 OFFCURVE",
"573 32 OFFCURVE",
"497 0 OFFCURVE",
"457 0 QCURVE SMOOTH",
"248 0 LINE SMOOTH",
"205 0 OFFCURVE",
"129 33 OFFCURVE",
"73 89 OFFCURVE",
"40 165 OFFCURVE",
"40 208 QCURVE SMOOTH",
"40 486 LINE SMOOTH",
"40 529 OFFCURVE",
"73 605 OFFCURVE",
"129 662 OFFCURVE",
"205 695 OFFCURVE",
"248 695 QCURVE SMOOTH",
"457 695 LINE SMOOTH",
"500 695 OFFCURVE",
"576 662 OFFCURVE",
"632 605 OFFCURVE",
"665 529 OFFCURVE",
"665 486 QCURVE SMOOTH"
);
},
{
nodes = (
"457 69 LINE",
"494 69 OFFCURVE",
"546 95 OFFCURVE",
"580 139 OFFCURVE",
"596 199 OFFCURVE",
"596 232 QCURVE SMOOTH",
"596 486 LINE SMOOTH",
"596 515 OFFCURVE",
"574 566 OFFCURVE",
"537 603 OFFCURVE",
"486 625 OFFCURVE",
"457 625 QCURVE"
);
}
);
width = 706;
}
);
unicode = 00D4;
},
{
glyphname = Otilde;
layers = (
{
layerId = "CEEBABA5-0094-4467-BB67-138482C8FCD7";
paths = (
{
nodes = (
"539 910 LINE",
"534 890 OFFCURVE",
"524 838 OFFCURVE",
"504 792 OFFCURVE",
"470 760 OFFCURVE",
"442 760 QCURVE SMOOTH",
"416 760 OFFCURVE",
"351 781 OFFCURVE",
"324 788 QCURVE",
"324 789 LINE",
"322 789 OFFCURVE",
"306 793 OFFCURVE",
"289 799 OFFCURVE",
"274 803 OFFCURVE",
"273 803 QCURVE",
"256 803 OFFCURVE",
"216 788 OFFCURVE",
"211 768 QCURVE",
"166 780 LINE",
"171 801 OFFCURVE",
"181 853 OFFCURVE",
"201 899 OFFCURVE",
"234 930 OFFCURVE",
"263 930 QCURVE SMOOTH",
"282 930 OFFCURVE",
"327 917 OFFCURVE",
"374 900 OFFCURVE",
"417 887 OFFCURVE",
"434 887 QCURVE SMOOTH",
"452 887 OFFCURVE",
"490 903 OFFCURVE",
"495 923 QCURVE"
);
},
{
nodes = (
"665 201 LINE SMOOTH",
"665 159 OFFCURVE",
"630 86 OFFCURVE",
"573 32 OFFCURVE",
"497 0 OFFCURVE",
"457 0 QCURVE SMOOTH",
"248 0 LINE SMOOTH",
"205 0 OFFCURVE",
"129 33 OFFCURVE",
"73 89 OFFCURVE",
"40 165 OFFCURVE",
"40 208 QCURVE SMOOTH",
"40 486 LINE SMOOTH",
"40 529 OFFCURVE",
"73 605 OFFCURVE",
"129 662 OFFCURVE",
"205 695 OFFCURVE",
"248 695 QCURVE SMOOTH",
"457 695 LINE SMOOTH",
"500 695 OFFCURVE",
"576 662 OFFCURVE",
"632 605 OFFCURVE",
"665 529 OFFCURVE",
"665 486 QCURVE SMOOTH"
);
},
{
nodes = (
"457 69 LINE",
"494 69 OFFCURVE",
"546 95 OFFCURVE",
"580 139 OFFCURVE",
"596 199 OFFCURVE",
"596 232 QCURVE SMOOTH",
"596 486 LINE SMOOTH",
"596 515 OFFCURVE",
"574 566 OFFCURVE",
"537 603 OFFCURVE",
"486 625 OFFCURVE",
"457 625 QCURVE"
);
}
);
width = 706;
}
);
unicode = 00D5;
},
{
glyphname = Odieresis;
layers = (
{
layerId = "CEEBABA5-0094-4467-BB67-138482C8FCD7";
paths = (
{
nodes = (
"136 858 OFFCURVE",
"182 905 OFFCURVE",
"216 905 QCURVE SMOOTH",
"250 905 OFFCURVE",
"297 858 OFFCURVE",
"297 824 QCURVE SMOOTH",
"297 790 OFFCURVE",
"250 744 OFFCURVE",
"216 744 QCURVE SMOOTH",
"182 744 OFFCURVE",
"136 790 OFFCURVE",
"136 824 QCURVE SMOOTH"
);
},
{
nodes = (
"409 858 OFFCURVE",
"455 905 OFFCURVE",
"489 905 QCURVE SMOOTH",
"523 905 OFFCURVE",
"570 858 OFFCURVE",
"570 824 QCURVE SMOOTH",
"570 790 OFFCURVE",
"523 744 OFFCURVE",
"489 744 QCURVE SMOOTH",
"455 744 OFFCURVE",
"409 790 OFFCURVE",
"409 824 QCURVE SMOOTH"
);
},
{
nodes = (
"665 201 LINE SMOOTH",
"665 159 OFFCURVE",
"630 86 OFFCURVE",
"573 32 OFFCURVE",
"497 0 OFFCURVE",
"457 0 QCURVE SMOOTH",
"248 0 LINE SMOOTH",
"205 0 OFFCURVE",
"129 33 OFFCURVE",
"73 89 OFFCURVE",
"40 165 OFFCURVE",
"40 208 QCURVE SMOOTH",
"40 486 LINE SMOOTH",
"40 529 OFFCURVE",
"73 605 OFFCURVE",
"129 662 OFFCURVE",
"205 695 OFFCURVE",
"248 695 QCURVE SMOOTH",
"457 695 LINE SMOOTH",
"500 695 OFFCURVE",
"576 662 OFFCURVE",
"632 605 OFFCURVE",
"665 529 OFFCURVE",
"665 486 QCURVE SMOOTH"
);
},
{
nodes = (
"457 69 LINE",
"494 69 OFFCURVE",
"546 95 OFFCURVE",
"580 139 OFFCURVE",
"596 199 OFFCURVE",
"596 232 QCURVE SMOOTH",
"596 486 LINE SMOOTH",
"596 515 OFFCURVE",
"574 566 OFFCURVE",
"537 603 OFFCURVE",
"486 625 OFFCURVE",
"457 625 QCURVE"
);
}
);
width = 706;
}
);
unicode = 00D6;
},
{
glyphname = multiply;
layers = (
{
layerId = "CEEBABA5-0094-4467-BB67-138482C8FCD7";
paths = (
{
nodes = (
"445 480 LINE",
"294 359 LINE",
"445 238 LINE",
"398 180 LINE",
"234 311 LINE",
"71 180 LINE",
"24 239 LINE",
"174 359 LINE",
"24 479 LINE",
"71 538 LINE",
"234 407 LINE",
"398 538 LINE"
);
}
);
width = 488;
}
);
unicode = 00D7;
},
{
glyphname = Oslash;
layers = (
{
layerId = "CEEBABA5-0094-4467-BB67-138482C8FCD7";
paths = (
{
nodes = (
"665 201 LINE SMOOTH",
"665 169 OFFCURVE",
"645 113 OFFCURVE",
"610 65 OFFCURVE",
"563 28 OFFCURVE",
"535 16 QCURVE SMOOTH",
"524 11 OFFCURVE",
"500 5 OFFCURVE",
"489 3 QCURVE",
"480 -46 LINE",
"422 -46 LINE",
"431 0 LINE",
"248 0 LINE SMOOTH",
"205 0 OFFCURVE",
"129 33 OFFCURVE",
"73 89 OFFCURVE",
"40 165 OFFCURVE",
"40 208 QCURVE SMOOTH",
"40 486 LINE SMOOTH",
"40 529 OFFCURVE",
"73 605 OFFCURVE",
"129 662 OFFCURVE",
"205 695 OFFCURVE",
"248 695 QCURVE SMOOTH",
"457 695 LINE SMOOTH",
"502 695 OFFCURVE",
"538 679 QCURVE SMOOTH",
"548 675 OFFCURVE",
"558 668 QCURVE",
"570 729 LINE",
"628 729 LINE",
"609 628 LINE",
"621 615 OFFCURVE",
"641 584 OFFCURVE",
"649 567 QCURVE SMOOTH",
"665 531 OFFCURVE",
"665 486 QCURVE SMOOTH"
);
},
{
nodes = (
"457 137 LINE",
"544 594 LINE",
"530 607 OFFCURVE",
"512 614 QCURVE SMOOTH",
"485 625 OFFCURVE",
"457 625 QCURVE"
);
},
{
nodes = (
"503 75 LINE",
"508 77 OFFCURVE",
"516 80 OFFCURVE",
"520 82 QCURVE SMOOTH",
"559 102 OFFCURVE",
"596 181 OFFCURVE",
"596 232 QCURVE SMOOTH",
"596 486 LINE SMOOTH",
"596 508 OFFCURVE",
"590 528 QCURVE"
);
}
);
width = 706;
}
);
unicode = 00D8;
},
{
glyphname = Ugrave;
layers = (
{
layerId = "CEEBABA5-0094-4467-BB67-138482C8FCD7";
paths = (
{
nodes = (
"265 888 LINE",
"387 947 LINE",
"448 777 LINE",
"362 743 LINE"
);
},
{
nodes = (
"672 281 OFFCURVE",
"673 249 OFFCURVE",
"673 244 QCURVE SMOOTH",
"673 233 OFFCURVE",
"672 212 OFFCURVE",
"671 201 QCURVE SMOOTH",
"669 159 OFFCURVE",
"635 86 OFFCURVE",
"579 31 OFFCURVE",
"504 0 OFFCURVE",
"462 0 QCURVE SMOOTH",
"254 0 LINE SMOOTH",
"211 0 OFFCURVE",
"135 33 OFFCURVE",
"78 89 OFFCURVE",
"45 165 OFFCURVE",
"45 208 QCURVE SMOOTH",
"45 695 LINE",
"462 695 LINE",
"462 69 LINE",
"500 69 OFFCURVE",
"554 96 OFFCURVE",
"576 128 QCURVE SMOOTH",
"597 159 OFFCURVE",
"601 220 OFFCURVE",
"601 255 QCURVE SMOOTH",
"601 695 LINE",
"671 695 LINE",
"671 598 OFFCURVE",
"672 405 OFFCURVE",
"672 308 QCURVE SMOOTH"
);
}
);
width = 714;
}
);
unicode = 00D9;
},
{
glyphname = Uacute;
layers = (
{
layerId = "CEEBABA5-0094-4467-BB67-138482C8FCD7";
paths = (
{
nodes = (
"351 740 LINE",
"265 774 LINE",
"326 944 LINE",
"448 885 LINE"
);
},
{
nodes = (
"672 281 OFFCURVE",
"673 249 OFFCURVE",
"673 244 QCURVE SMOOTH",
"673 233 OFFCURVE",
"672 212 OFFCURVE",
"671 201 QCURVE SMOOTH",
"669 159 OFFCURVE",
"635 86 OFFCURVE",
"579 31 OFFCURVE",
"504 0 OFFCURVE",
"462 0 QCURVE SMOOTH",
"254 0 LINE SMOOTH",
"211 0 OFFCURVE",
"135 33 OFFCURVE",
"78 89 OFFCURVE",
"45 165 OFFCURVE",
"45 208 QCURVE SMOOTH",
"45 695 LINE",
"462 695 LINE",
"462 69 LINE",
"500 69 OFFCURVE",
"554 96 OFFCURVE",
"576 128 QCURVE SMOOTH",
"597 159 OFFCURVE",
"601 220 OFFCURVE",
"601 255 QCURVE SMOOTH",
"601 695 LINE",
"671 695 LINE",
"671 598 OFFCURVE",
"672 405 OFFCURVE",
"672 308 QCURVE SMOOTH"
);
}
);
width = 714;
}
);
unicode = 00DA;
},
{
glyphname = Ucircumflex;
layers = (
{
layerId = "CEEBABA5-0094-4467-BB67-138482C8FCD7";
paths = (
{
nodes = (
"387 888 LINE",
"509 947 LINE",
"570 777 LINE",
"484 743 LINE"
);
},
{
nodes = (
"230 743 LINE",
"144 777 LINE",
"205 947 LINE",
"327 888 LINE"
);
},
{
nodes = (
"672 281 OFFCURVE",
"673 249 OFFCURVE",
"673 244 QCURVE SMOOTH",
"673 233 OFFCURVE",
"672 212 OFFCURVE",
"671 201 QCURVE SMOOTH",
"669 159 OFFCURVE",
"635 86 OFFCURVE",
"579 31 OFFCURVE",
"504 0 OFFCURVE",
"462 0 QCURVE SMOOTH",
"254 0 LINE SMOOTH",
"211 0 OFFCURVE",
"135 33 OFFCURVE",
"78 89 OFFCURVE",
"45 165 OFFCURVE",
"45 208 QCURVE SMOOTH",
"45 695 LINE",
"462 695 LINE",
"462 69 LINE",
"500 69 OFFCURVE",
"554 96 OFFCURVE",
"576 128 QCURVE SMOOTH",
"597 159 OFFCURVE",
"601 220 OFFCURVE",
"601 255 QCURVE SMOOTH",
"601 695 LINE",
"671 695 LINE",
"671 598 OFFCURVE",
"672 405 OFFCURVE",
"672 308 QCURVE SMOOTH"
);
}
);
width = 714;
}
);
unicode = 00DB;
},
{
glyphname = Udieresis;
layers = (
{
layerId = "CEEBABA5-0094-4467-BB67-138482C8FCD7";
paths = (
{
nodes = (
"140 858 OFFCURVE",
"186 905 OFFCURVE",
"220 905 QCURVE SMOOTH",
"254 905 OFFCURVE",
"301 858 OFFCURVE",
"301 824 QCURVE SMOOTH",
"301 790 OFFCURVE",
"254 744 OFFCURVE",
"220 744 QCURVE SMOOTH",
"186 744 OFFCURVE",
"140 790 OFFCURVE",
"140 824 QCURVE SMOOTH"
);
},
{
nodes = (
"413 858 OFFCURVE",
"459 905 OFFCURVE",
"493 905 QCURVE SMOOTH",
"527 905 OFFCURVE",
"574 858 OFFCURVE",
"574 824 QCURVE SMOOTH",
"574 790 OFFCURVE",
"527 744 OFFCURVE",
"493 744 QCURVE SMOOTH",
"459 744 OFFCURVE",
"413 790 OFFCURVE",
"413 824 QCURVE SMOOTH"
);
},
{
nodes = (
"672 281 OFFCURVE",
"673 249 OFFCURVE",
"673 244 QCURVE SMOOTH",
"673 233 OFFCURVE",
"672 212 OFFCURVE",
"671 201 QCURVE SMOOTH",
"669 159 OFFCURVE",
"635 86 OFFCURVE",
"579 31 OFFCURVE",
"504 0 OFFCURVE",
"462 0 QCURVE SMOOTH",
"254 0 LINE SMOOTH",
"211 0 OFFCURVE",
"135 33 OFFCURVE",
"78 89 OFFCURVE",
"45 165 OFFCURVE",
"45 208 QCURVE SMOOTH",
"45 695 LINE",
"462 695 LINE",
"462 69 LINE",
"500 69 OFFCURVE",
"554 96 OFFCURVE",
"576 128 QCURVE SMOOTH",
"597 159 OFFCURVE",
"601 220 OFFCURVE",
"601 255 QCURVE SMOOTH",
"601 695 LINE",
"671 695 LINE",
"671 598 OFFCURVE",
"672 405 OFFCURVE",
"672 308 QCURVE SMOOTH"
);
}
);
width = 714;
}
);
unicode = 00DC;
},
{
glyphname = Yacute;
layers = (
{
layerId = "CEEBABA5-0094-4467-BB67-138482C8FCD7";
paths = (
{
nodes = (
"722 626 LINE",
"444 70 LINE",
"722 70 LINE",
"722 0 LINE",
"27 0 LINE",
"27 70 LINE",
"305 626 LINE",
"27 626 LINE",
"27 695 LINE",
"722 695 LINE"
);
},
{
nodes = (
"368 740 LINE",
"282 774 LINE",
"343 944 LINE",
"465 885 LINE"
);
}
);
width = 748;
}
);
unicode = 00DD;
},
{
glyphname = Thorn;
layers = (
{
layerId = "CEEBABA5-0094-4467-BB67-138482C8FCD7";
paths = (
{
nodes = (
"666 201 LINE SMOOTH",
"666 159 OFFCURVE",
"631 86 OFFCURVE",
"574 32 OFFCURVE",
"498 0 OFFCURVE",
"458 0 QCURVE SMOOTH",
"115 0 LINE",
"115 -164 LINE",
"40 -164 LINE",
"40 867 LINE",
"115 867 LINE",
"115 695 LINE",
"458 695 LINE SMOOTH",
"501 695 OFFCURVE",
"577 662 OFFCURVE",
"633 605 OFFCURVE",
"666 529 OFFCURVE",
"666 486 QCURVE SMOOTH"
);
},
{
nodes = (
"458 69 LINE",
"495 69 OFFCURVE",
"547 95 OFFCURVE",
"581 139 OFFCURVE",
"597 199 OFFCURVE",
"597 232 QCURVE SMOOTH",
"597 486 LINE SMOOTH",
"597 515 OFFCURVE",
"575 566 OFFCURVE",
"538 603 OFFCURVE",
"487 625 OFFCURVE",
"458 625 QCURVE"
);
}
);
width = 693;
}
);
unicode = 00DE;
},
{
glyphname = germandbls;
layers = (
{
layerId = "CEEBABA5-0094-4467-BB67-138482C8FCD7";
paths = (
{
nodes = (
"609 357 OFFCURVE",
"661 267 OFFCURVE",
"661 210 QCURVE SMOOTH",
"661 166 OFFCURVE",
"629 90 OFFCURVE",
"573 33 OFFCURVE",
"496 0 OFFCURVE",
"452 0 QCURVE SMOOTH",
"25 0 LINE",
"25 486 LINE SMOOTH",
"25 529 OFFCURVE",
"58 605 OFFCURVE",
"114 662 OFFCURVE",
"190 695 OFFCURVE",
"233 695 QCURVE SMOOTH",
"452 695 LINE SMOOTH",
"489 695 OFFCURVE",
"552 668 OFFCURVE",
"599 621 OFFCURVE",
"626 557 OFFCURVE",
"626 520 QCURVE SMOOTH",
"626 480 OFFCURVE",
"592 411 OFFCURVE",
"561 386 QCURVE"
);
},
{
nodes = (
"556 566 OFFCURVE",
"497 625 OFFCURVE",
"452 625 QCURVE",
"452 417 LINE",
"497 417 OFFCURVE",
"556 476 OFFCURVE",
"556 521 QCURVE SMOOTH"
);
},
{
nodes = (
"591 237 OFFCURVE",
"569 288 OFFCURVE",
"532 325 OFFCURVE",
"481 347 OFFCURVE",
"452 347 QCURVE",
"452 69 LINE",
"481 69 OFFCURVE",
"532 91 OFFCURVE",
"569 128 OFFCURVE",
"591 179 OFFCURVE",
"591 208 QCURVE SMOOTH"
);
}
);
width = 683;
}
);
unicode = 00DF;
},
{
glyphname = agrave;
layers = (
{
layerId = "CEEBABA5-0094-4467-BB67-138482C8FCD7";
paths = (
{
nodes = (
"133 139 LINE",
"217 139 LINE",
"175 231 LINE"
);
},
{
nodes = (
"102 69 LINE",
"71 0 LINE",
"1 0 LINE",
"314 695 LINE",
"384 695 LINE",
"696 0 LINE",
"279 0 LINE",
"248 69 LINE"
);
},
{
nodes = (
"354 743 LINE",
"257 888 LINE",
"379 947 LINE",
"440 777 LINE"
);
}
);
width = 698;
}
);
unicode = 00E0;
},
{
glyphname = aacute;
layers = (
{
layerId = "CEEBABA5-0094-4467-BB67-138482C8FCD7";
paths = (
{
nodes = (
"133 139 LINE",
"217 139 LINE",
"175 231 LINE"
);
},
{
nodes = (
"102 69 LINE",
"71 0 LINE",
"1 0 LINE",
"314 695 LINE",
"384 695 LINE",
"696 0 LINE",
"279 0 LINE",
"248 69 LINE"
);
},
{
nodes = (
"449 888 LINE",
"352 743 LINE",
"266 777 LINE",
"327 947 LINE"
);
}
);
width = 696;
}
);
unicode = 00E1;
},
{
glyphname = acircumflex;
layers = (
{
layerId = "CEEBABA5-0094-4467-BB67-138482C8FCD7";
paths = (
{
nodes = (
"133 139 LINE",
"217 139 LINE",
"175 231 LINE"
);
},
{
nodes = (
"102 69 LINE",
"71 0 LINE",
"1 0 LINE",
"314 695 LINE",
"384 695 LINE",
"696 0 LINE",
"279 0 LINE",
"248 69 LINE"
);
},
{
nodes = (
"319 888 LINE",
"222 743 LINE",
"136 777 LINE",
"197 947 LINE"
);
},
{
nodes = (
"476 743 LINE",
"379 888 LINE",
"501 947 LINE",
"562 777 LINE"
);
}
);
width = 698;
}
);
unicode = 00E2;
},
{
glyphname = atilde;
layers = (
{
layerId = "CEEBABA5-0094-4467-BB67-138482C8FCD7";
paths = (
{
nodes = (
"536 910 LINE",
"531 890 OFFCURVE",
"521 838 OFFCURVE",
"501 792 OFFCURVE",
"467 760 OFFCURVE",
"439 760 QCURVE SMOOTH",
"413 760 OFFCURVE",
"348 781 OFFCURVE",
"321 788 QCURVE",
"321 789 LINE",
"319 789 OFFCURVE",
"303 793 OFFCURVE",
"286 799 OFFCURVE",
"271 803 OFFCURVE",
"270 803 QCURVE",
"253 803 OFFCURVE",
"213 788 OFFCURVE",
"208 768 QCURVE",
"163 780 LINE",
"168 801 OFFCURVE",
"178 853 OFFCURVE",
"198 899 OFFCURVE",
"231 930 OFFCURVE",
"260 930 QCURVE SMOOTH",
"279 930 OFFCURVE",
"324 917 OFFCURVE",
"371 900 OFFCURVE",
"414 887 OFFCURVE",
"431 887 QCURVE SMOOTH",
"449 887 OFFCURVE",
"487 903 OFFCURVE",
"492 923 QCURVE"
);
},
{
nodes = (
"71 0 LINE",
"1 0 LINE",
"314 695 LINE",
"384 695 LINE",
"696 0 LINE",
"279 0 LINE",
"248 69 LINE",
"102 69 LINE"
);
},
{
nodes = (
"217 139 LINE",
"175 231 LINE",
"133 139 LINE"
);
}
);
width = 698;
}
);
unicode = 00E3;
},
{
glyphname = adieresis;
layers = (
{
layerId = "CEEBABA5-0094-4467-BB67-138482C8FCD7";
paths = (
{
nodes = (
"132 858 OFFCURVE",
"178 905 OFFCURVE",
"212 905 QCURVE SMOOTH",
"246 905 OFFCURVE",
"293 858 OFFCURVE",
"293 824 QCURVE SMOOTH",
"293 790 OFFCURVE",
"246 744 OFFCURVE",
"212 744 QCURVE SMOOTH",
"178 744 OFFCURVE",
"132 790 OFFCURVE",
"132 824 QCURVE SMOOTH"
);
},
{
nodes = (
"405 858 OFFCURVE",
"451 905 OFFCURVE",
"485 905 QCURVE SMOOTH",
"519 905 OFFCURVE",
"566 858 OFFCURVE",
"566 824 QCURVE SMOOTH",
"566 790 OFFCURVE",
"519 744 OFFCURVE",
"485 744 QCURVE SMOOTH",
"451 744 OFFCURVE",
"405 790 OFFCURVE",
"405 824 QCURVE SMOOTH"
);
},
{
nodes = (
"71 0 LINE",
"1 0 LINE",
"314 695 LINE",
"384 695 LINE",
"696 0 LINE",
"279 0 LINE",
"248 69 LINE",
"102 69 LINE"
);
},
{
nodes = (
"217 139 LINE",
"175 231 LINE",
"133 139 LINE"
);
}
);
width = 698;
}
);
unicode = 00E4;
},
{
glyphname = aring;
layers = (
{
layerId = "CEEBABA5-0094-4467-BB67-138482C8FCD7";
paths = (
{
nodes = (
"328 740 OFFCURVE",
"290 756 OFFCURVE",
"262 785 OFFCURVE",
"246 822 OFFCURVE",
"246 843 QCURVE SMOOTH",
"246 886 OFFCURVE",
"306 944 OFFCURVE",
"349 944 QCURVE SMOOTH",
"370 944 OFFCURVE",
"407 928 OFFCURVE",
"435 901 OFFCURVE",
"452 864 OFFCURVE",
"452 843 QCURVE SMOOTH",
"452 822 OFFCURVE",
"435 785 OFFCURVE",
"407 756 OFFCURVE",
"370 740 OFFCURVE",
"349 740 QCURVE SMOOTH"
);
},
{
nodes = (
"330 890 OFFCURVE",
"303 864 OFFCURVE",
"303 844 QCURVE SMOOTH",
"303 827 OFFCURVE",
"330 798 OFFCURVE",
"352 798 QCURVE SMOOTH",
"372 798 OFFCURVE",
"400 827 OFFCURVE",
"400 844 QCURVE SMOOTH",
"400 864 OFFCURVE",
"372 890 OFFCURVE",
"352 890 QCURVE SMOOTH"
);
},
{
nodes = (
"71 0 LINE",
"1 0 LINE",
"314 695 LINE",
"384 695 LINE",
"696 0 LINE",
"279 0 LINE",
"248 69 LINE",
"102 69 LINE"
);
},
{
nodes = (
"217 139 LINE",
"175 231 LINE",
"133 139 LINE"
);
}
);
width = 698;
}
);
unicode = 00E5;
},
{
glyphname = ae;
layers = (
{
layerId = "CEEBABA5-0094-4467-BB67-138482C8FCD7";
paths = (
{
nodes = (
"181 139 LINE",
"469 139 LINE",
"469 583 LINE"
);
},
{
nodes = (
"138 69 LINE",
"89 0 LINE",
"19 0 LINE",
"463 695 LINE",
"1060 695 LINE",
"1060 625 LINE",
"887 625 LINE",
"887 417 LINE",
"1060 417 LINE",
"1060 347 LINE",
"887 347 LINE",
"887 69 LINE",
"1060 69 LINE",
"1060 0 LINE",
"469 0 LINE",
"469 69 LINE"
);
}
);
width = 1084;
}
);
unicode = 00E6;
},
{
glyphname = ccedilla;
layers = (
{
layerId = "CEEBABA5-0094-4467-BB67-138482C8FCD7";
paths = (
{
nodes = (
"592 487 LINE",
"592 516 OFFCURVE",
"570 567 OFFCURVE",
"533 604 OFFCURVE",
"482 626 OFFCURVE",
"453 626 QCURVE",
"453 70 LINE",
"482 70 OFFCURVE",
"533 92 OFFCURVE",
"570 129 OFFCURVE",
"592 180 OFFCURVE",
"592 209 QCURVE",
"661 209 LINE",
"661 166 OFFCURVE",
"628 90 OFFCURVE",
"572 33 OFFCURVE",
"496 0 OFFCURVE",
"453 0 QCURVE SMOOTH",
"363 0 LINE",
"363 -71 LINE",
"406 -71 LINE SMOOTH",
"440 -71 OFFCURVE",
"486 -117 OFFCURVE",
"486 -150 QCURVE SMOOTH",
"486 -192 LINE SMOOTH",
"486 -226 OFFCURVE",
"440 -270 OFFCURVE",
"406 -270 QCURVE SMOOTH",
"305 -270 LINE SMOOTH",
"286 -270 OFFCURVE",
"252 -255 OFFCURVE",
"226 -228 OFFCURVE",
"211 -191 OFFCURVE",
"211 -170 QCURVE",
"257 -170 LINE",
"257 -193 OFFCURVE",
"285 -227 OFFCURVE",
"305 -227 QCURVE SMOOTH",
"375 -227 LINE",
"375 -198 OFFCURVE",
"376 -135 OFFCURVE",
"376 -106 QCURVE",
"269 -106 LINE",
"269 0 LINE",
"244 0 LINE SMOOTH",
"201 0 OFFCURVE",
"125 33 OFFCURVE",
"69 90 OFFCURVE",
"36 166 OFFCURVE",
"36 209 QCURVE SMOOTH",
"36 487 LINE SMOOTH",
"36 530 OFFCURVE",
"69 606 OFFCURVE",
"125 663 OFFCURVE",
"201 696 OFFCURVE",
"244 696 QCURVE SMOOTH",
"453 696 LINE SMOOTH",
"496 696 OFFCURVE",
"572 663 OFFCURVE",
"628 606 OFFCURVE",
"661 530 OFFCURVE",
"661 487 QCURVE"
);
}
);
width = 697;
}
);
unicode = 00E7;
},
{
glyphname = egrave;
layers = (
{
layerId = "CEEBABA5-0094-4467-BB67-138482C8FCD7";
paths = (
{
nodes = (
"629 69 LINE",
"629 0 LINE",
"38 0 LINE",
"38 695 LINE",
"629 695 LINE",
"629 625 LINE",
"456 625 LINE",
"456 417 LINE",
"629 417 LINE",
"629 347 LINE",
"456 347 LINE",
"456 69 LINE"
);
},
{
nodes = (
"241 888 LINE",
"363 947 LINE",
"424 777 LINE",
"338 743 LINE"
);
}
);
width = 665;
}
);
unicode = 00E8;
},
{
glyphname = eacute;
layers = (
{
layerId = "CEEBABA5-0094-4467-BB67-138482C8FCD7";
paths = (
{
nodes = (
"629 69 LINE",
"629 0 LINE",
"38 0 LINE",
"38 695 LINE",
"629 695 LINE",
"629 625 LINE",
"456 625 LINE",
"456 417 LINE",
"629 417 LINE",
"629 347 LINE",
"456 347 LINE",
"456 69 LINE"
);
},
{
nodes = (
"327 740 LINE",
"241 774 LINE",
"302 944 LINE",
"424 885 LINE"
);
}
);
width = 665;
}
);
unicode = 00E9;
},
{
glyphname = ecircumflex;
layers = (
{
layerId = "CEEBABA5-0094-4467-BB67-138482C8FCD7";
paths = (
{
nodes = (
"629 69 LINE",
"629 0 LINE",
"38 0 LINE",
"38 695 LINE",
"629 695 LINE",
"629 625 LINE",
"456 625 LINE",
"456 417 LINE",
"629 417 LINE",
"629 347 LINE",
"456 347 LINE",
"456 69 LINE"
);
},
{
nodes = (
"363 888 LINE",
"485 947 LINE",
"546 777 LINE",
"460 743 LINE"
);
},
{
nodes = (
"206 743 LINE",
"120 777 LINE",
"181 947 LINE",
"303 888 LINE"
);
}
);
width = 665;
}
);
unicode = 00EA;
},
{
glyphname = edieresis;
layers = (
{
layerId = "CEEBABA5-0094-4467-BB67-138482C8FCD7";
paths = (
{
nodes = (
"116 858 OFFCURVE",
"162 905 OFFCURVE",
"196 905 QCURVE SMOOTH",
"230 905 OFFCURVE",
"277 858 OFFCURVE",
"277 824 QCURVE SMOOTH",
"277 790 OFFCURVE",
"230 744 OFFCURVE",
"196 744 QCURVE SMOOTH",
"162 744 OFFCURVE",
"116 790 OFFCURVE",
"116 824 QCURVE SMOOTH"
);
},
{
nodes = (
"389 858 OFFCURVE",
"435 905 OFFCURVE",
"469 905 QCURVE SMOOTH",
"503 905 OFFCURVE",
"550 858 OFFCURVE",
"550 824 QCURVE SMOOTH",
"550 790 OFFCURVE",
"503 744 OFFCURVE",
"469 744 QCURVE SMOOTH",
"435 744 OFFCURVE",
"389 790 OFFCURVE",
"389 824 QCURVE SMOOTH"
);
},
{
nodes = (
"629 69 LINE",
"629 0 LINE",
"38 0 LINE",
"38 695 LINE",
"629 695 LINE",
"629 625 LINE",
"456 625 LINE",
"456 417 LINE",
"629 417 LINE",
"629 347 LINE",
"456 347 LINE",
"456 69 LINE"
);
}
);
width = 665;
}
);
unicode = 00EB;
},
{
glyphname = igrave;
layers = (
{
layerId = "CEEBABA5-0094-4467-BB67-138482C8FCD7";
paths = (
{
nodes = (
"456 695 LINE",
"456 0 LINE",
"39 0 LINE",
"39 695 LINE"
);
},
{
nodes = (
"159 888 LINE",
"281 947 LINE",
"342 777 LINE",
"256 743 LINE"
);
}
);
width = 501;
}
);
unicode = 00EC;
},
{
glyphname = iacute;
layers = (
{
layerId = "CEEBABA5-0094-4467-BB67-138482C8FCD7";
paths = (
{
nodes = (
"456 695 LINE",
"456 0 LINE",
"39 0 LINE",
"39 695 LINE"
);
},
{
nodes = (
"245 740 LINE",
"159 774 LINE",
"220 944 LINE",
"342 885 LINE"
);
}
);
width = 501;
}
);
unicode = 00ED;
},
{
glyphname = icircumflex;
layers = (
{
layerId = "CEEBABA5-0094-4467-BB67-138482C8FCD7";
paths = (
{
nodes = (
"456 695 LINE",
"456 0 LINE",
"39 0 LINE",
"39 695 LINE"
);
},
{
nodes = (
"281 888 LINE",
"403 947 LINE",
"464 777 LINE",
"378 743 LINE"
);
},
{
nodes = (
"124 743 LINE",
"38 777 LINE",
"99 947 LINE",
"221 888 LINE"
);
}
);
width = 501;
}
);
unicode = 00EE;
},
{
glyphname = idieresis;
layers = (
{
layerId = "CEEBABA5-0094-4467-BB67-138482C8FCD7";
paths = (
{
nodes = (
"34 858 OFFCURVE",
"80 905 OFFCURVE",
"114 905 QCURVE SMOOTH",
"148 905 OFFCURVE",
"195 858 OFFCURVE",
"195 824 QCURVE SMOOTH",
"195 790 OFFCURVE",
"148 744 OFFCURVE",
"114 744 QCURVE SMOOTH",
"80 744 OFFCURVE",
"34 790 OFFCURVE",
"34 824 QCURVE SMOOTH"
);
},
{
nodes = (
"307 858 OFFCURVE",
"353 905 OFFCURVE",
"387 905 QCURVE SMOOTH",
"421 905 OFFCURVE",
"468 858 OFFCURVE",
"468 824 QCURVE SMOOTH",
"468 790 OFFCURVE",
"421 744 OFFCURVE",
"387 744 QCURVE SMOOTH",
"353 744 OFFCURVE",
"307 790 OFFCURVE",
"307 824 QCURVE SMOOTH"
);
},
{
nodes = (
"456 695 LINE",
"456 0 LINE",
"39 0 LINE",
"39 695 LINE"
);
}
);
width = 501;
}
);
unicode = 00EF;
},
{
glyphname = eth;
layers = (
{
layerId = "CEEBABA5-0094-4467-BB67-138482C8FCD7";
paths = (
{
nodes = (
"726 258 LINE SMOOTH",
"726 244 OFFCURVE",
"725 215 OFFCURVE",
"724 201 QCURVE SMOOTH",
"722 159 OFFCURVE",
"689 86 OFFCURVE",
"633 31 OFFCURVE",
"559 0 OFFCURVE",
"516 0 QCURVE SMOOTH",
"99 0 LINE",
"99 321 LINE",
"31 321 LINE",
"31 383 LINE",
"99 383 LINE",
"99 695 LINE",
"516 695 LINE SMOOTH",
"559 695 OFFCURVE",
"635 662 OFFCURVE",
"692 606 OFFCURVE",
"725 530 OFFCURVE",
"725 487 QCURVE SMOOTH",
"725 444 OFFCURVE",
"726 360 OFFCURVE",
"726 315 QCURVE SMOOTH"
);
},
{
nodes = (
"516 69 LINE",
"551 69 OFFCURVE",
"603 94 OFFCURVE",
"638 136 OFFCURVE",
"655 194 OFFCURVE",
"655 227 QCURVE SMOOTH",
"655 487 LINE SMOOTH",
"655 515 OFFCURVE",
"633 566 OFFCURVE",
"595 604 OFFCURVE",
"544 626 OFFCURVE",
"516 626 QCURVE",
"516 383 LINE",
"572 383 LINE",
"572 321 LINE",
"516 321 LINE"
);
}
);
width = 752;
}
);
unicode = 00F0;
},
{
glyphname = ntilde;
layers = (
{
layerId = "CEEBABA5-0094-4467-BB67-138482C8FCD7";
paths = (
{
nodes = (
"546 910 LINE",
"541 890 OFFCURVE",
"531 838 OFFCURVE",
"511 792 OFFCURVE",
"477 760 OFFCURVE",
"449 760 QCURVE SMOOTH",
"423 760 OFFCURVE",
"358 781 OFFCURVE",
"331 788 QCURVE",
"331 789 LINE",
"329 789 OFFCURVE",
"313 793 OFFCURVE",
"296 799 OFFCURVE",
"281 803 OFFCURVE",
"280 803 QCURVE",
"263 803 OFFCURVE",
"223 788 OFFCURVE",
"218 768 QCURVE",
"173 780 LINE",
"178 801 OFFCURVE",
"188 853 OFFCURVE",
"208 899 OFFCURVE",
"241 930 OFFCURVE",
"270 930 QCURVE SMOOTH",
"289 930 OFFCURVE",
"334 917 OFFCURVE",
"381 900 OFFCURVE",
"424 887 OFFCURVE",
"441 887 QCURVE SMOOTH",
"459 887 OFFCURVE",
"497 903 OFFCURVE",
"502 923 QCURVE"
);
},
{
nodes = (
"669 695 LINE",
"669 0 LINE",
"600 0 LINE",
"600 232 LINE",
"461 540 LINE",
"461 0 LINE",
"44 0 LINE",
"44 695 LINE",
"461 695 LINE",
"600 386 LINE",
"600 695 LINE"
);
}
);
width = 719;
}
);
unicode = 00F1;
},
{
glyphname = ograve;
layers = (
{
layerId = "CEEBABA5-0094-4467-BB67-138482C8FCD7";
paths = (
{
nodes = (
"261 888 LINE",
"383 947 LINE",
"444 777 LINE",
"358 743 LINE"
);
},
{
nodes = (
"665 201 LINE SMOOTH",
"665 159 OFFCURVE",
"630 86 OFFCURVE",
"573 32 OFFCURVE",
"497 0 OFFCURVE",
"457 0 QCURVE SMOOTH",
"248 0 LINE SMOOTH",
"205 0 OFFCURVE",
"129 33 OFFCURVE",
"73 89 OFFCURVE",
"40 165 OFFCURVE",
"40 208 QCURVE SMOOTH",
"40 486 LINE SMOOTH",
"40 529 OFFCURVE",
"73 605 OFFCURVE",
"129 662 OFFCURVE",
"205 695 OFFCURVE",
"248 695 QCURVE SMOOTH",
"457 695 LINE SMOOTH",
"500 695 OFFCURVE",
"576 662 OFFCURVE",
"632 605 OFFCURVE",
"665 529 OFFCURVE",
"665 486 QCURVE SMOOTH"
);
},
{
nodes = (
"457 69 LINE",
"494 69 OFFCURVE",
"546 95 OFFCURVE",
"580 139 OFFCURVE",
"596 199 OFFCURVE",
"596 232 QCURVE SMOOTH",
"596 486 LINE SMOOTH",
"596 515 OFFCURVE",
"574 566 OFFCURVE",
"537 603 OFFCURVE",
"486 625 OFFCURVE",
"457 625 QCURVE"
);
}
);
width = 706;
}
);
unicode = 00F2;
},
{
glyphname = oacute;
layers = (
{
layerId = "CEEBABA5-0094-4467-BB67-138482C8FCD7";
paths = (
{
nodes = (
"347 740 LINE",
"261 774 LINE",
"322 944 LINE",
"444 885 LINE"
);
},
{
nodes = (
"665 201 LINE SMOOTH",
"665 159 OFFCURVE",
"630 86 OFFCURVE",
"573 32 OFFCURVE",
"497 0 OFFCURVE",
"457 0 QCURVE SMOOTH",
"248 0 LINE SMOOTH",
"205 0 OFFCURVE",
"129 33 OFFCURVE",
"73 89 OFFCURVE",
"40 165 OFFCURVE",
"40 208 QCURVE SMOOTH",
"40 486 LINE SMOOTH",
"40 529 OFFCURVE",
"73 605 OFFCURVE",
"129 662 OFFCURVE",
"205 695 OFFCURVE",
"248 695 QCURVE SMOOTH",
"457 695 LINE SMOOTH",
"500 695 OFFCURVE",
"576 662 OFFCURVE",
"632 605 OFFCURVE",
"665 529 OFFCURVE",
"665 486 QCURVE SMOOTH"
);
},
{
nodes = (
"457 69 LINE",
"494 69 OFFCURVE",
"546 95 OFFCURVE",
"580 139 OFFCURVE",
"596 199 OFFCURVE",
"596 232 QCURVE SMOOTH",
"596 486 LINE SMOOTH",
"596 515 OFFCURVE",
"574 566 OFFCURVE",
"537 603 OFFCURVE",
"486 625 OFFCURVE",
"457 625 QCURVE"
);
}
);
width = 706;
}
);
unicode = 00F3;
},
{
glyphname = ocircumflex;
layers = (
{
layerId = "CEEBABA5-0094-4467-BB67-138482C8FCD7";
paths = (
{
nodes = (
"383 888 LINE",
"505 947 LINE",
"566 777 LINE",
"480 743 LINE"
);
},
{
nodes = (
"226 743 LINE",
"140 777 LINE",
"201 947 LINE",
"323 888 LINE"
);
},
{
nodes = (
"665 201 LINE SMOOTH",
"665 159 OFFCURVE",
"630 86 OFFCURVE",
"573 32 OFFCURVE",
"497 0 OFFCURVE",
"457 0 QCURVE SMOOTH",
"248 0 LINE SMOOTH",
"205 0 OFFCURVE",
"129 33 OFFCURVE",
"73 89 OFFCURVE",
"40 165 OFFCURVE",
"40 208 QCURVE SMOOTH",
"40 486 LINE SMOOTH",
"40 529 OFFCURVE",
"73 605 OFFCURVE",
"129 662 OFFCURVE",
"205 695 OFFCURVE",
"248 695 QCURVE SMOOTH",
"457 695 LINE SMOOTH",
"500 695 OFFCURVE",
"576 662 OFFCURVE",
"632 605 OFFCURVE",
"665 529 OFFCURVE",
"665 486 QCURVE SMOOTH"
);
},
{
nodes = (
"457 69 LINE",
"494 69 OFFCURVE",
"546 95 OFFCURVE",
"580 139 OFFCURVE",
"596 199 OFFCURVE",
"596 232 QCURVE SMOOTH",
"596 486 LINE SMOOTH",
"596 515 OFFCURVE",
"574 566 OFFCURVE",
"537 603 OFFCURVE",
"486 625 OFFCURVE",
"457 625 QCURVE"
);
}
);
width = 706;
}
);
unicode = 00F4;
},
{
glyphname = otilde;
layers = (
{
layerId = "CEEBABA5-0094-4467-BB67-138482C8FCD7";
paths = (
{
nodes = (
"539 910 LINE",
"534 890 OFFCURVE",
"524 838 OFFCURVE",
"504 792 OFFCURVE",
"470 760 OFFCURVE",
"442 760 QCURVE SMOOTH",
"416 760 OFFCURVE",
"351 781 OFFCURVE",
"324 788 QCURVE",
"324 789 LINE",
"322 789 OFFCURVE",
"306 793 OFFCURVE",
"289 799 OFFCURVE",
"274 803 OFFCURVE",
"273 803 QCURVE",
"256 803 OFFCURVE",
"216 788 OFFCURVE",
"211 768 QCURVE",
"166 780 LINE",
"171 801 OFFCURVE",
"181 853 OFFCURVE",
"201 899 OFFCURVE",
"234 930 OFFCURVE",
"263 930 QCURVE SMOOTH",
"282 930 OFFCURVE",
"327 917 OFFCURVE",
"374 900 OFFCURVE",
"417 887 OFFCURVE",
"434 887 QCURVE SMOOTH",
"452 887 OFFCURVE",
"490 903 OFFCURVE",
"495 923 QCURVE"
);
},
{
nodes = (
"665 201 LINE SMOOTH",
"665 159 OFFCURVE",
"630 86 OFFCURVE",
"573 32 OFFCURVE",
"497 0 OFFCURVE",
"457 0 QCURVE SMOOTH",
"248 0 LINE SMOOTH",
"205 0 OFFCURVE",
"129 33 OFFCURVE",
"73 89 OFFCURVE",
"40 165 OFFCURVE",
"40 208 QCURVE SMOOTH",
"40 486 LINE SMOOTH",
"40 529 OFFCURVE",
"73 605 OFFCURVE",
"129 662 OFFCURVE",
"205 695 OFFCURVE",
"248 695 QCURVE SMOOTH",
"457 695 LINE SMOOTH",
"500 695 OFFCURVE",
"576 662 OFFCURVE",
"632 605 OFFCURVE",
"665 529 OFFCURVE",
"665 486 QCURVE SMOOTH"
);
},
{
nodes = (
"457 69 LINE",
"494 69 OFFCURVE",
"546 95 OFFCURVE",
"580 139 OFFCURVE",
"596 199 OFFCURVE",
"596 232 QCURVE SMOOTH",
"596 486 LINE SMOOTH",
"596 515 OFFCURVE",
"574 566 OFFCURVE",
"537 603 OFFCURVE",
"486 625 OFFCURVE",
"457 625 QCURVE"
);
}
);
width = 706;
}
);
unicode = 00F5;
},
{
glyphname = odieresis;
layers = (
{
layerId = "CEEBABA5-0094-4467-BB67-138482C8FCD7";
paths = (
{
nodes = (
"136 858 OFFCURVE",
"182 905 OFFCURVE",
"216 905 QCURVE SMOOTH",
"250 905 OFFCURVE",
"297 858 OFFCURVE",
"297 824 QCURVE SMOOTH",
"297 790 OFFCURVE",
"250 744 OFFCURVE",
"216 744 QCURVE SMOOTH",
"182 744 OFFCURVE",
"136 790 OFFCURVE",
"136 824 QCURVE SMOOTH"
);
},
{
nodes = (
"409 858 OFFCURVE",
"455 905 OFFCURVE",
"489 905 QCURVE SMOOTH",
"523 905 OFFCURVE",
"570 858 OFFCURVE",
"570 824 QCURVE SMOOTH",
"570 790 OFFCURVE",
"523 744 OFFCURVE",
"489 744 QCURVE SMOOTH",
"455 744 OFFCURVE",
"409 790 OFFCURVE",
"409 824 QCURVE SMOOTH"
);
},
{
nodes = (
"665 201 LINE SMOOTH",
"665 159 OFFCURVE",
"630 86 OFFCURVE",
"573 32 OFFCURVE",
"497 0 OFFCURVE",
"457 0 QCURVE SMOOTH",
"248 0 LINE SMOOTH",
"205 0 OFFCURVE",
"129 33 OFFCURVE",
"73 89 OFFCURVE",
"40 165 OFFCURVE",
"40 208 QCURVE SMOOTH",
"40 486 LINE SMOOTH",
"40 529 OFFCURVE",
"73 605 OFFCURVE",
"129 662 OFFCURVE",
"205 695 OFFCURVE",
"248 695 QCURVE SMOOTH",
"457 695 LINE SMOOTH",
"500 695 OFFCURVE",
"576 662 OFFCURVE",
"632 605 OFFCURVE",
"665 529 OFFCURVE",
"665 486 QCURVE SMOOTH"
);
},
{
nodes = (
"457 69 LINE",
"494 69 OFFCURVE",
"546 95 OFFCURVE",
"580 139 OFFCURVE",
"596 199 OFFCURVE",
"596 232 QCURVE SMOOTH",
"596 486 LINE SMOOTH",
"596 515 OFFCURVE",
"574 566 OFFCURVE",
"537 603 OFFCURVE",
"486 625 OFFCURVE",
"457 625 QCURVE"
);
}
);
width = 706;
}
);
unicode = 00F6;
},
{
glyphname = divide;
layers = (
{
layerId = "CEEBABA5-0094-4467-BB67-138482C8FCD7";
paths = (
{
nodes = (
"201 538 OFFCURVE",
"238 576 OFFCURVE",
"265 576 QCURVE SMOOTH",
"292 576 OFFCURVE",
"330 538 OFFCURVE",
"330 511 QCURVE SMOOTH",
"330 484 OFFCURVE",
"292 447 OFFCURVE",
"265 447 QCURVE SMOOTH",
"238 447 OFFCURVE",
"201 484 OFFCURVE",
"201 511 QCURVE SMOOTH"
);
},
{
nodes = (
"505 285 LINE",
"26 285 LINE",
"26 360 LINE",
"505 360 LINE"
);
},
{
nodes = (
"201 165 OFFCURVE",
"238 203 OFFCURVE",
"265 203 QCURVE SMOOTH",
"292 203 OFFCURVE",
"330 165 OFFCURVE",
"330 138 QCURVE SMOOTH",
"330 111 OFFCURVE",
"292 74 OFFCURVE",
"265 74 QCURVE SMOOTH",
"238 74 OFFCURVE",
"201 111 OFFCURVE",
"201 138 QCURVE SMOOTH"
);
}
);
width = 525;
}
);
unicode = 00F7;
},
{
glyphname = oslash;
layers = (
{
layerId = "CEEBABA5-0094-4467-BB67-138482C8FCD7";
paths = (
{
nodes = (
"665 201 LINE SMOOTH",
"665 169 OFFCURVE",
"645 113 OFFCURVE",
"610 65 OFFCURVE",
"563 28 OFFCURVE",
"535 16 QCURVE SMOOTH",
"524 11 OFFCURVE",
"500 5 OFFCURVE",
"489 3 QCURVE",
"480 -46 LINE",
"422 -46 LINE",
"431 0 LINE",
"248 0 LINE SMOOTH",
"205 0 OFFCURVE",
"129 33 OFFCURVE",
"73 89 OFFCURVE",
"40 165 OFFCURVE",
"40 208 QCURVE SMOOTH",
"40 486 LINE SMOOTH",
"40 529 OFFCURVE",
"73 605 OFFCURVE",
"129 662 OFFCURVE",
"205 695 OFFCURVE",
"248 695 QCURVE SMOOTH",
"457 695 LINE SMOOTH",
"502 695 OFFCURVE",
"538 679 QCURVE SMOOTH",
"548 675 OFFCURVE",
"558 668 QCURVE",
"570 729 LINE",
"628 729 LINE",
"609 628 LINE",
"621 615 OFFCURVE",
"641 584 OFFCURVE",
"649 567 QCURVE SMOOTH",
"665 531 OFFCURVE",
"665 486 QCURVE SMOOTH"
);
},
{
nodes = (
"457 137 LINE",
"544 594 LINE",
"530 607 OFFCURVE",
"512 614 QCURVE SMOOTH",
"485 625 OFFCURVE",
"457 625 QCURVE"
);
},
{
nodes = (
"503 75 LINE",
"508 77 OFFCURVE",
"516 80 OFFCURVE",
"520 82 QCURVE SMOOTH",
"559 102 OFFCURVE",
"596 181 OFFCURVE",
"596 232 QCURVE SMOOTH",
"596 486 LINE SMOOTH",
"596 508 OFFCURVE",
"590 528 QCURVE"
);
}
);
width = 706;
}
);
unicode = 00F8;
},
{
glyphname = ugrave;
layers = (
{
layerId = "CEEBABA5-0094-4467-BB67-138482C8FCD7";
paths = (
{
nodes = (
"265 888 LINE",
"387 947 LINE",
"448 777 LINE",
"362 743 LINE"
);
},
{
nodes = (
"672 281 OFFCURVE",
"673 249 OFFCURVE",
"673 244 QCURVE SMOOTH",
"673 233 OFFCURVE",
"672 212 OFFCURVE",
"671 201 QCURVE SMOOTH",
"669 159 OFFCURVE",
"635 86 OFFCURVE",
"579 31 OFFCURVE",
"504 0 OFFCURVE",
"462 0 QCURVE SMOOTH",
"254 0 LINE SMOOTH",
"211 0 OFFCURVE",
"135 33 OFFCURVE",
"78 89 OFFCURVE",
"45 165 OFFCURVE",
"45 208 QCURVE SMOOTH",
"45 695 LINE",
"462 695 LINE",
"462 69 LINE",
"500 69 OFFCURVE",
"554 96 OFFCURVE",
"576 128 QCURVE SMOOTH",
"597 159 OFFCURVE",
"601 220 OFFCURVE",
"601 255 QCURVE SMOOTH",
"601 695 LINE",
"671 695 LINE",
"671 598 OFFCURVE",
"672 405 OFFCURVE",
"672 308 QCURVE SMOOTH"
);
}
);
width = 714;
}
);
unicode = 00F9;
},
{
glyphname = uacute;
layers = (
{
layerId = "CEEBABA5-0094-4467-BB67-138482C8FCD7";
paths = (
{
nodes = (
"351 740 LINE",
"265 774 LINE",
"326 944 LINE",
"448 885 LINE"
);
},
{
nodes = (
"672 281 OFFCURVE",
"673 249 OFFCURVE",
"673 244 QCURVE SMOOTH",
"673 233 OFFCURVE",
"672 212 OFFCURVE",
"671 201 QCURVE SMOOTH",
"669 159 OFFCURVE",
"635 86 OFFCURVE",
"579 31 OFFCURVE",
"504 0 OFFCURVE",
"462 0 QCURVE SMOOTH",
"254 0 LINE SMOOTH",
"211 0 OFFCURVE",
"135 33 OFFCURVE",
"78 89 OFFCURVE",
"45 165 OFFCURVE",
"45 208 QCURVE SMOOTH",
"45 695 LINE",
"462 695 LINE",
"462 69 LINE",
"500 69 OFFCURVE",
"554 96 OFFCURVE",
"576 128 QCURVE SMOOTH",
"597 159 OFFCURVE",
"601 220 OFFCURVE",
"601 255 QCURVE SMOOTH",
"601 695 LINE",
"671 695 LINE",
"671 598 OFFCURVE",
"672 405 OFFCURVE",
"672 308 QCURVE SMOOTH"
);
}
);
width = 714;
}
);
unicode = 00FA;
},
{
glyphname = ucircumflex;
layers = (
{
layerId = "CEEBABA5-0094-4467-BB67-138482C8FCD7";
paths = (
{
nodes = (
"387 888 LINE",
"509 947 LINE",
"570 777 LINE",
"484 743 LINE"
);
},
{
nodes = (
"230 743 LINE",
"144 777 LINE",
"205 947 LINE",
"327 888 LINE"
);
},
{
nodes = (
"672 281 OFFCURVE",
"673 249 OFFCURVE",
"673 244 QCURVE SMOOTH",
"673 233 OFFCURVE",
"672 212 OFFCURVE",
"671 201 QCURVE SMOOTH",
"669 159 OFFCURVE",
"635 86 OFFCURVE",
"579 31 OFFCURVE",
"504 0 OFFCURVE",
"462 0 QCURVE SMOOTH",
"254 0 LINE SMOOTH",
"211 0 OFFCURVE",
"135 33 OFFCURVE",
"78 89 OFFCURVE",
"45 165 OFFCURVE",
"45 208 QCURVE SMOOTH",
"45 695 LINE",
"462 695 LINE",
"462 69 LINE",
"500 69 OFFCURVE",
"554 96 OFFCURVE",
"576 128 QCURVE SMOOTH",
"597 159 OFFCURVE",
"601 220 OFFCURVE",
"601 255 QCURVE SMOOTH",
"601 695 LINE",
"671 695 LINE",
"671 598 OFFCURVE",
"672 405 OFFCURVE",
"672 308 QCURVE SMOOTH"
);
}
);
width = 714;
}
);
unicode = 00FB;
},
{
glyphname = udieresis;
layers = (
{
layerId = "CEEBABA5-0094-4467-BB67-138482C8FCD7";
paths = (
{
nodes = (
"140 858 OFFCURVE",
"186 905 OFFCURVE",
"220 905 QCURVE SMOOTH",
"254 905 OFFCURVE",
"301 858 OFFCURVE",
"301 824 QCURVE SMOOTH",
"301 790 OFFCURVE",
"254 744 OFFCURVE",
"220 744 QCURVE SMOOTH",
"186 744 OFFCURVE",
"140 790 OFFCURVE",
"140 824 QCURVE SMOOTH"
);
},
{
nodes = (
"413 858 OFFCURVE",
"459 905 OFFCURVE",
"493 905 QCURVE SMOOTH",
"527 905 OFFCURVE",
"574 858 OFFCURVE",
"574 824 QCURVE SMOOTH",
"574 790 OFFCURVE",
"527 744 OFFCURVE",
"493 744 QCURVE SMOOTH",
"459 744 OFFCURVE",
"413 790 OFFCURVE",
"413 824 QCURVE SMOOTH"
);
},
{
nodes = (
"672 281 OFFCURVE",
"673 249 OFFCURVE",
"673 244 QCURVE SMOOTH",
"673 233 OFFCURVE",
"672 212 OFFCURVE",
"671 201 QCURVE SMOOTH",
"669 159 OFFCURVE",
"635 86 OFFCURVE",
"579 31 OFFCURVE",
"504 0 OFFCURVE",
"462 0 QCURVE SMOOTH",
"254 0 LINE SMOOTH",
"211 0 OFFCURVE",
"135 33 OFFCURVE",
"78 89 OFFCURVE",
"45 165 OFFCURVE",
"45 208 QCURVE SMOOTH",
"45 695 LINE",
"462 695 LINE",
"462 69 LINE",
"500 69 OFFCURVE",
"554 96 OFFCURVE",
"576 128 QCURVE SMOOTH",
"597 159 OFFCURVE",
"601 220 OFFCURVE",
"601 255 QCURVE SMOOTH",
"601 695 LINE",
"671 695 LINE",
"671 598 OFFCURVE",
"672 405 OFFCURVE",
"672 308 QCURVE SMOOTH"
);
}
);
width = 714;
}
);
unicode = 00FC;
},
{
glyphname = yacute;
layers = (
{
layerId = "CEEBABA5-0094-4467-BB67-138482C8FCD7";
paths = (
{
nodes = (
"340 695 LINE",
"757 695 LINE",
"444 0 LINE",
"27 0 LINE",
"221 430 LINE",
"101 695 LINE",
"188 695 LINE",
"264 526 LINE"
);
},
{
nodes = (
"385 740 LINE",
"299 774 LINE",
"360 944 LINE",
"482 885 LINE"
);
}
);
width = 782;
}
);
unicode = 00FD;
},
{
glyphname = thorn;
layers = (
{
layerId = "CEEBABA5-0094-4467-BB67-138482C8FCD7";
paths = (
{
nodes = (
"666 201 LINE SMOOTH",
"666 159 OFFCURVE",
"631 86 OFFCURVE",
"574 32 OFFCURVE",
"498 0 OFFCURVE",
"458 0 QCURVE SMOOTH",
"115 0 LINE",
"115 -164 LINE",
"40 -164 LINE",
"40 867 LINE",
"115 867 LINE",
"115 695 LINE",
"458 695 LINE SMOOTH",
"501 695 OFFCURVE",
"577 662 OFFCURVE",
"633 605 OFFCURVE",
"666 529 OFFCURVE",
"666 486 QCURVE SMOOTH"
);
},
{
nodes = (
"458 69 LINE",
"495 69 OFFCURVE",
"547 95 OFFCURVE",
"581 139 OFFCURVE",
"597 199 OFFCURVE",
"597 232 QCURVE SMOOTH",
"597 486 LINE SMOOTH",
"597 515 OFFCURVE",
"575 566 OFFCURVE",
"538 603 OFFCURVE",
"487 625 OFFCURVE",
"458 625 QCURVE"
);
}
);
width = 693;
}
);
unicode = 00FE;
},
{
glyphname = ydieresis;
layers = (
{
layerId = "CEEBABA5-0094-4467-BB67-138482C8FCD7";
paths = (
{
nodes = (
"174 858 OFFCURVE",
"220 905 OFFCURVE",
"254 905 QCURVE SMOOTH",
"288 905 OFFCURVE",
"335 858 OFFCURVE",
"335 824 QCURVE SMOOTH",
"335 790 OFFCURVE",
"288 744 OFFCURVE",
"254 744 QCURVE SMOOTH",
"220 744 OFFCURVE",
"174 790 OFFCURVE",
"174 824 QCURVE SMOOTH"
);
},
{
nodes = (
"447 858 OFFCURVE",
"493 905 OFFCURVE",
"527 905 QCURVE SMOOTH",
"561 905 OFFCURVE",
"608 858 OFFCURVE",
"608 824 QCURVE SMOOTH",
"608 790 OFFCURVE",
"561 744 OFFCURVE",
"527 744 QCURVE SMOOTH",
"493 744 OFFCURVE",
"447 790 OFFCURVE",
"447 824 QCURVE SMOOTH"
);
},
{
nodes = (
"340 695 LINE",
"757 695 LINE",
"444 0 LINE",
"27 0 LINE",
"221 430 LINE",
"101 695 LINE",
"188 695 LINE",
"264 526 LINE"
);
}
);
width = 782;
}
);
unicode = 00FF;
},
{
glyphname = Amacron;
layers = (
{
layerId = "CEEBABA5-0094-4467-BB67-138482C8FCD7";
paths = (
{
nodes = (
"133 139 LINE",
"217 139 LINE",
"175 231 LINE"
);
},
{
nodes = (
"102 69 LINE",
"71 0 LINE",
"1 0 LINE",
"314 695 LINE",
"384 695 LINE",
"696 0 LINE",
"279 0 LINE",
"248 69 LINE"
);
},
{
nodes = (
"148 745 LINE",
"148 856 LINE",
"549 856 LINE",
"549 745 LINE"
);
}
);
width = 698;
}
);
unicode = 0100;
},
{
glyphname = amacron;
layers = (
{
layerId = "CEEBABA5-0094-4467-BB67-138482C8FCD7";
paths = (
{
nodes = (
"133 139 LINE",
"217 139 LINE",
"175 231 LINE"
);
},
{
nodes = (
"102 69 LINE",
"71 0 LINE",
"1 0 LINE",
"314 695 LINE",
"384 695 LINE",
"696 0 LINE",
"279 0 LINE",
"248 69 LINE"
);
},
{
nodes = (
"148 745 LINE",
"148 856 LINE",
"549 856 LINE",
"549 745 LINE"
);
}
);
width = 698;
}
);
unicode = 0101;
},
{
glyphname = Abreve;
layers = (
{
layerId = "CEEBABA5-0094-4467-BB67-138482C8FCD7";
paths = (
{
nodes = (
"375 827 OFFCURVE",
"411 870 OFFCURVE",
"411 899 QCURVE",
"505 899 LINE",
"505 865 OFFCURVE",
"481 805 OFFCURVE",
"439 760 OFFCURVE",
"382 733 OFFCURVE",
"349 733 QCURVE SMOOTH",
"317 733 OFFCURVE",
"261 760 OFFCURVE",
"218 805 OFFCURVE",
"193 865 OFFCURVE",
"193 899 QCURVE",
"287 899 LINE",
"287 870 OFFCURVE",
"323 827 OFFCURVE",
"349 827 QCURVE SMOOTH"
);
},
{
nodes = (
"71 0 LINE",
"1 0 LINE",
"314 695 LINE",
"384 695 LINE",
"696 0 LINE",
"279 0 LINE",
"248 69 LINE",
"102 69 LINE"
);
},
{
nodes = (
"217 139 LINE",
"175 231 LINE",
"133 139 LINE"
);
}
);
width = 698;
}
);
unicode = 0102;
},
{
glyphname = abreve;
layers = (
{
layerId = "CEEBABA5-0094-4467-BB67-138482C8FCD7";
paths = (
{
nodes = (
"375 827 OFFCURVE",
"411 870 OFFCURVE",
"411 899 QCURVE",
"505 899 LINE",
"505 865 OFFCURVE",
"481 805 OFFCURVE",
"439 760 OFFCURVE",
"382 733 OFFCURVE",
"349 733 QCURVE SMOOTH",
"317 733 OFFCURVE",
"261 760 OFFCURVE",
"218 805 OFFCURVE",
"193 865 OFFCURVE",
"193 899 QCURVE",
"287 899 LINE",
"287 870 OFFCURVE",
"323 827 OFFCURVE",
"349 827 QCURVE SMOOTH"
);
},
{
nodes = (
"71 0 LINE",
"1 0 LINE",
"314 695 LINE",
"384 695 LINE",
"696 0 LINE",
"279 0 LINE",
"248 69 LINE",
"102 69 LINE"
);
},
{
nodes = (
"217 139 LINE",
"175 231 LINE",
"133 139 LINE"
);
}
);
width = 698;
}
);
unicode = 0103;
},
{
glyphname = Aogonek;
layers = (
{
layerId = "CEEBABA5-0094-4467-BB67-138482C8FCD7";
paths = (
{
nodes = (
"71 0 LINE",
"1 0 LINE",
"314 695 LINE",
"384 695 LINE",
"696 0 LINE",
"638 0 LINE",
"638 -106 LINE",
"531 -106 LINE",
"531 -135 OFFCURVE",
"532 -198 OFFCURVE",
"532 -227 QCURVE",
"602 -227 LINE SMOOTH",
"622 -227 OFFCURVE",
"650 -193 OFFCURVE",
"650 -170 QCURVE",
"696 -170 LINE",
"696 -191 OFFCURVE",
"681 -228 OFFCURVE",
"655 -255 OFFCURVE",
"621 -270 OFFCURVE",
"602 -270 QCURVE SMOOTH",
"501 -270 LINE SMOOTH",
"467 -270 OFFCURVE",
"421 -226 OFFCURVE",
"421 -192 QCURVE SMOOTH",
"421 -150 LINE SMOOTH",
"421 -117 OFFCURVE",
"467 -71 OFFCURVE",
"501 -71 QCURVE SMOOTH",
"544 -71 LINE",
"544 0 LINE",
"279 0 LINE",
"248 69 LINE",
"102 69 LINE"
);
},
{
nodes = (
"217 139 LINE",
"175 231 LINE",
"133 139 LINE"
);
}
);
width = 698;
}
);
unicode = 0104;
},
{
glyphname = aogonek;
layers = (
{
layerId = "CEEBABA5-0094-4467-BB67-138482C8FCD7";
paths = (
{
nodes = (
"71 0 LINE",
"1 0 LINE",
"314 695 LINE",
"384 695 LINE",
"696 0 LINE",
"638 0 LINE",
"638 -106 LINE",
"531 -106 LINE",
"531 -135 OFFCURVE",
"532 -198 OFFCURVE",
"532 -227 QCURVE",
"602 -227 LINE SMOOTH",
"622 -227 OFFCURVE",
"650 -193 OFFCURVE",
"650 -170 QCURVE",
"696 -170 LINE",
"696 -191 OFFCURVE",
"681 -228 OFFCURVE",
"655 -255 OFFCURVE",
"621 -270 OFFCURVE",
"602 -270 QCURVE SMOOTH",
"501 -270 LINE SMOOTH",
"467 -270 OFFCURVE",
"421 -226 OFFCURVE",
"421 -192 QCURVE SMOOTH",
"421 -150 LINE SMOOTH",
"421 -117 OFFCURVE",
"467 -71 OFFCURVE",
"501 -71 QCURVE SMOOTH",
"544 -71 LINE",
"544 0 LINE",
"279 0 LINE",
"248 69 LINE",
"102 69 LINE"
);
},
{
nodes = (
"217 139 LINE",
"175 231 LINE",
"133 139 LINE"
);
}
);
width = 698;
}
);
unicode = 0105;
},
{
glyphname = Cacute;
layers = (
{
layerId = "CEEBABA5-0094-4467-BB67-138482C8FCD7";
paths = (
{
nodes = (
"343 740 LINE",
"257 774 LINE",
"318 944 LINE",
"440 885 LINE"
);
},
{
nodes = (
"592 487 LINE",
"592 516 OFFCURVE",
"570 567 OFFCURVE",
"533 604 OFFCURVE",
"482 626 OFFCURVE",
"453 626 QCURVE",
"453 70 LINE",
"482 70 OFFCURVE",
"533 92 OFFCURVE",
"570 129 OFFCURVE",
"592 180 OFFCURVE",
"592 209 QCURVE",
"661 209 LINE",
"661 166 OFFCURVE",
"628 90 OFFCURVE",
"572 33 OFFCURVE",
"496 0 OFFCURVE",
"453 0 QCURVE SMOOTH",
"244 0 LINE SMOOTH",
"201 0 OFFCURVE",
"125 33 OFFCURVE",
"69 90 OFFCURVE",
"36 166 OFFCURVE",
"36 209 QCURVE SMOOTH",
"36 487 LINE SMOOTH",
"36 530 OFFCURVE",
"69 606 OFFCURVE",
"125 663 OFFCURVE",
"201 696 OFFCURVE",
"244 696 QCURVE SMOOTH",
"453 696 LINE SMOOTH",
"496 696 OFFCURVE",
"572 663 OFFCURVE",
"628 606 OFFCURVE",
"661 530 OFFCURVE",
"661 487 QCURVE"
);
}
);
width = 697;
}
);
unicode = 0106;
},
{
glyphname = cacute;
layers = (
{
layerId = "CEEBABA5-0094-4467-BB67-138482C8FCD7";
paths = (
{
nodes = (
"343 740 LINE",
"257 774 LINE",
"318 944 LINE",
"440 885 LINE"
);
},
{
nodes = (
"592 487 LINE",
"592 516 OFFCURVE",
"570 567 OFFCURVE",
"533 604 OFFCURVE",
"482 626 OFFCURVE",
"453 626 QCURVE",
"453 70 LINE",
"482 70 OFFCURVE",
"533 92 OFFCURVE",
"570 129 OFFCURVE",
"592 180 OFFCURVE",
"592 209 QCURVE",
"661 209 LINE",
"661 166 OFFCURVE",
"628 90 OFFCURVE",
"572 33 OFFCURVE",
"496 0 OFFCURVE",
"453 0 QCURVE SMOOTH",
"244 0 LINE SMOOTH",
"201 0 OFFCURVE",
"125 33 OFFCURVE",
"69 90 OFFCURVE",
"36 166 OFFCURVE",
"36 209 QCURVE SMOOTH",
"36 487 LINE SMOOTH",
"36 530 OFFCURVE",
"69 606 OFFCURVE",
"125 663 OFFCURVE",
"201 696 OFFCURVE",
"244 696 QCURVE SMOOTH",
"453 696 LINE SMOOTH",
"496 696 OFFCURVE",
"572 663 OFFCURVE",
"628 606 OFFCURVE",
"661 530 OFFCURVE",
"661 487 QCURVE"
);
}
);
width = 697;
}
);
unicode = 0107;
},
{
glyphname = Cdotaccent;
layers = (
{
layerId = "CEEBABA5-0094-4467-BB67-138482C8FCD7";
paths = (
{
nodes = (
"252 856 OFFCURVE",
"266 888 OFFCURVE",
"289 913 OFFCURVE",
"321 927 OFFCURVE",
"339 927 QCURVE SMOOTH",
"357 927 OFFCURVE",
"389 913 OFFCURVE",
"413 888 OFFCURVE",
"427 856 OFFCURVE",
"427 838 QCURVE SMOOTH",
"427 820 OFFCURVE",
"413 787 OFFCURVE",
"389 763 OFFCURVE",
"357 749 OFFCURVE",
"339 749 QCURVE SMOOTH",
"303 749 OFFCURVE",
"252 801 OFFCURVE",
"252 838 QCURVE SMOOTH"
);
},
{
nodes = (
"592 487 LINE",
"592 516 OFFCURVE",
"570 567 OFFCURVE",
"533 604 OFFCURVE",
"482 626 OFFCURVE",
"453 626 QCURVE",
"453 70 LINE",
"482 70 OFFCURVE",
"533 92 OFFCURVE",
"570 129 OFFCURVE",
"592 180 OFFCURVE",
"592 209 QCURVE",
"661 209 LINE",
"661 166 OFFCURVE",
"628 90 OFFCURVE",
"572 33 OFFCURVE",
"496 0 OFFCURVE",
"453 0 QCURVE SMOOTH",
"244 0 LINE SMOOTH",
"201 0 OFFCURVE",
"125 33 OFFCURVE",
"69 90 OFFCURVE",
"36 166 OFFCURVE",
"36 209 QCURVE SMOOTH",
"36 487 LINE SMOOTH",
"36 530 OFFCURVE",
"69 606 OFFCURVE",
"125 663 OFFCURVE",
"201 696 OFFCURVE",
"244 696 QCURVE SMOOTH",
"453 696 LINE SMOOTH",
"496 696 OFFCURVE",
"572 663 OFFCURVE",
"628 606 OFFCURVE",
"661 530 OFFCURVE",
"661 487 QCURVE"
);
}
);
width = 697;
}
);
unicode = 010A;
},
{
glyphname = cdotaccent;
layers = (
{
layerId = "CEEBABA5-0094-4467-BB67-138482C8FCD7";
paths = (
{
nodes = (
"252 856 OFFCURVE",
"266 888 OFFCURVE",
"289 913 OFFCURVE",
"321 927 OFFCURVE",
"339 927 QCURVE SMOOTH",
"357 927 OFFCURVE",
"389 913 OFFCURVE",
"413 888 OFFCURVE",
"427 856 OFFCURVE",
"427 838 QCURVE SMOOTH",
"427 820 OFFCURVE",
"413 787 OFFCURVE",
"389 763 OFFCURVE",
"357 749 OFFCURVE",
"339 749 QCURVE SMOOTH",
"303 749 OFFCURVE",
"252 801 OFFCURVE",
"252 838 QCURVE SMOOTH"
);
},
{
nodes = (
"592 487 LINE",
"592 516 OFFCURVE",
"570 567 OFFCURVE",
"533 604 OFFCURVE",
"482 626 OFFCURVE",
"453 626 QCURVE",
"453 70 LINE",
"482 70 OFFCURVE",
"533 92 OFFCURVE",
"570 129 OFFCURVE",
"592 180 OFFCURVE",
"592 209 QCURVE",
"661 209 LINE",
"661 166 OFFCURVE",
"628 90 OFFCURVE",
"572 33 OFFCURVE",
"496 0 OFFCURVE",
"453 0 QCURVE SMOOTH",
"244 0 LINE SMOOTH",
"201 0 OFFCURVE",
"125 33 OFFCURVE",
"69 90 OFFCURVE",
"36 166 OFFCURVE",
"36 209 QCURVE SMOOTH",
"36 487 LINE SMOOTH",
"36 530 OFFCURVE",
"69 606 OFFCURVE",
"125 663 OFFCURVE",
"201 696 OFFCURVE",
"244 696 QCURVE SMOOTH",
"453 696 LINE SMOOTH",
"496 696 OFFCURVE",
"572 663 OFFCURVE",
"628 606 OFFCURVE",
"661 530 OFFCURVE",
"661 487 QCURVE"
);
}
);
width = 697;
}
);
unicode = 010B;
},
{
glyphname = Ccaron;
layers = (
{
layerId = "CEEBABA5-0094-4467-BB67-138482C8FCD7";
paths = (
{
nodes = (
"437 957 LINE",
"523 923 LINE",
"454 749 LINE",
"243 749 LINE",
"174 923 LINE",
"260 957 LINE",
"348 826 LINE"
);
},
{
nodes = (
"592 487 LINE",
"592 516 OFFCURVE",
"570 567 OFFCURVE",
"533 604 OFFCURVE",
"482 626 OFFCURVE",
"453 626 QCURVE",
"453 70 LINE",
"482 70 OFFCURVE",
"533 92 OFFCURVE",
"570 129 OFFCURVE",
"592 180 OFFCURVE",
"592 209 QCURVE",
"661 209 LINE",
"661 166 OFFCURVE",
"628 90 OFFCURVE",
"572 33 OFFCURVE",
"496 0 OFFCURVE",
"453 0 QCURVE SMOOTH",
"244 0 LINE SMOOTH",
"201 0 OFFCURVE",
"125 33 OFFCURVE",
"69 90 OFFCURVE",
"36 166 OFFCURVE",
"36 209 QCURVE SMOOTH",
"36 487 LINE SMOOTH",
"36 530 OFFCURVE",
"69 606 OFFCURVE",
"125 663 OFFCURVE",
"201 696 OFFCURVE",
"244 696 QCURVE SMOOTH",
"453 696 LINE SMOOTH",
"496 696 OFFCURVE",
"572 663 OFFCURVE",
"628 606 OFFCURVE",
"661 530 OFFCURVE",
"661 487 QCURVE"
);
}
);
width = 697;
}
);
unicode = 010C;
},
{
glyphname = ccaron;
layers = (
{
layerId = "CEEBABA5-0094-4467-BB67-138482C8FCD7";
paths = (
{
nodes = (
"437 957 LINE",
"523 923 LINE",
"454 749 LINE",
"243 749 LINE",
"174 923 LINE",
"260 957 LINE",
"348 826 LINE"
);
},
{
nodes = (
"592 487 LINE",
"592 516 OFFCURVE",
"570 567 OFFCURVE",
"533 604 OFFCURVE",
"482 626 OFFCURVE",
"453 626 QCURVE",
"453 70 LINE",
"482 70 OFFCURVE",
"533 92 OFFCURVE",
"570 129 OFFCURVE",
"592 180 OFFCURVE",
"592 209 QCURVE",
"661 209 LINE",
"661 166 OFFCURVE",
"628 90 OFFCURVE",
"572 33 OFFCURVE",
"496 0 OFFCURVE",
"453 0 QCURVE SMOOTH",
"244 0 LINE SMOOTH",
"201 0 OFFCURVE",
"125 33 OFFCURVE",
"69 90 OFFCURVE",
"36 166 OFFCURVE",
"36 209 QCURVE SMOOTH",
"36 487 LINE SMOOTH",
"36 530 OFFCURVE",
"69 606 OFFCURVE",
"125 663 OFFCURVE",
"201 696 OFFCURVE",
"244 696 QCURVE SMOOTH",
"453 696 LINE SMOOTH",
"496 696 OFFCURVE",
"572 663 OFFCURVE",
"628 606 OFFCURVE",
"661 530 OFFCURVE",
"661 487 QCURVE"
);
}
);
width = 697;
}
);
unicode = 010D;
},
{
glyphname = Dcaron;
layers = (
{
layerId = "CEEBABA5-0094-4467-BB67-138482C8FCD7";
paths = (
{
nodes = (
"382 957 LINE",
"468 923 LINE",
"399 749 LINE",
"188 749 LINE",
"119 923 LINE",
"205 957 LINE",
"293 826 LINE"
);
},
{
nodes = (
"670 258 LINE SMOOTH",
"670 244 OFFCURVE",
"669 215 OFFCURVE",
"668 201 QCURVE SMOOTH",
"666 159 OFFCURVE",
"633 86 OFFCURVE",
"577 31 OFFCURVE",
"503 0 OFFCURVE",
"460 0 QCURVE SMOOTH",
"43 0 LINE",
"43 695 LINE",
"460 695 LINE SMOOTH",
"503 695 OFFCURVE",
"579 662 OFFCURVE",
"636 606 OFFCURVE",
"669 530 OFFCURVE",
"669 487 QCURVE SMOOTH",
"669 444 OFFCURVE",
"670 360 OFFCURVE",
"670 315 QCURVE SMOOTH"
);
},
{
nodes = (
"460 69 LINE",
"495 69 OFFCURVE",
"547 94 OFFCURVE",
"582 136 OFFCURVE",
"599 194 OFFCURVE",
"599 227 QCURVE SMOOTH",
"599 487 LINE SMOOTH",
"599 515 OFFCURVE",
"577 566 OFFCURVE",
"539 604 OFFCURVE",
"488 626 OFFCURVE",
"460 626 QCURVE"
);
}
);
width = 706;
}
);
unicode = 010E;
},
{
glyphname = dcaron;
layers = (
{
layerId = "CEEBABA5-0094-4467-BB67-138482C8FCD7";
paths = (
{
nodes = (
"670 258 LINE SMOOTH",
"670 244 OFFCURVE",
"669 215 OFFCURVE",
"668 201 QCURVE SMOOTH",
"666 159 OFFCURVE",
"633 86 OFFCURVE",
"577 31 OFFCURVE",
"503 0 OFFCURVE",
"460 0 QCURVE SMOOTH",
"43 0 LINE",
"43 695 LINE",
"460 695 LINE SMOOTH",
"503 695 OFFCURVE",
"579 662 OFFCURVE",
"636 606 OFFCURVE",
"669 530 OFFCURVE",
"669 487 QCURVE SMOOTH",
"669 444 OFFCURVE",
"670 360 OFFCURVE",
"670 315 QCURVE SMOOTH"
);
},
{
nodes = (
"692 649 LINE",
"800 649 LINE",
"800 558 LINE",
"692 491 LINE"
);
},
{
nodes = (
"460 69 LINE",
"495 69 OFFCURVE",
"547 94 OFFCURVE",
"582 136 OFFCURVE",
"599 194 OFFCURVE",
"599 227 QCURVE SMOOTH",
"599 487 LINE SMOOTH",
"599 515 OFFCURVE",
"577 566 OFFCURVE",
"539 604 OFFCURVE",
"488 626 OFFCURVE",
"460 626 QCURVE"
);
}
);
width = 828;
}
);
unicode = 010F;
},
{
glyphname = Dcroat;
layers = (
{
layerId = "CEEBABA5-0094-4467-BB67-138482C8FCD7";
paths = (
{
nodes = (
"726 258 LINE SMOOTH",
"726 244 OFFCURVE",
"725 215 OFFCURVE",
"724 201 QCURVE SMOOTH",
"722 159 OFFCURVE",
"689 86 OFFCURVE",
"633 31 OFFCURVE",
"559 0 OFFCURVE",
"516 0 QCURVE SMOOTH",
"99 0 LINE",
"99 321 LINE",
"31 321 LINE",
"31 383 LINE",
"99 383 LINE",
"99 695 LINE",
"516 695 LINE SMOOTH",
"559 695 OFFCURVE",
"635 662 OFFCURVE",
"692 606 OFFCURVE",
"725 530 OFFCURVE",
"725 487 QCURVE SMOOTH",
"725 444 OFFCURVE",
"726 360 OFFCURVE",
"726 315 QCURVE SMOOTH"
);
},
{
nodes = (
"516 69 LINE",
"551 69 OFFCURVE",
"603 94 OFFCURVE",
"638 136 OFFCURVE",
"655 194 OFFCURVE",
"655 227 QCURVE SMOOTH",
"655 487 LINE SMOOTH",
"655 515 OFFCURVE",
"633 566 OFFCURVE",
"595 604 OFFCURVE",
"544 626 OFFCURVE",
"516 626 QCURVE",
"516 383 LINE",
"572 383 LINE",
"572 321 LINE",
"516 321 LINE"
);
}
);
width = 752;
}
);
unicode = 0110;
},
{
glyphname = dcroat;
layers = (
{
layerId = "CEEBABA5-0094-4467-BB67-138482C8FCD7";
paths = (
{
nodes = (
"726 258 LINE SMOOTH",
"726 244 OFFCURVE",
"725 215 OFFCURVE",
"724 201 QCURVE SMOOTH",
"722 159 OFFCURVE",
"689 86 OFFCURVE",
"633 31 OFFCURVE",
"559 0 OFFCURVE",
"516 0 QCURVE SMOOTH",
"99 0 LINE",
"99 321 LINE",
"31 321 LINE",
"31 383 LINE",
"99 383 LINE",
"99 695 LINE",
"516 695 LINE SMOOTH",
"559 695 OFFCURVE",
"635 662 OFFCURVE",
"692 606 OFFCURVE",
"725 530 OFFCURVE",
"725 487 QCURVE SMOOTH",
"725 444 OFFCURVE",
"726 360 OFFCURVE",
"726 315 QCURVE SMOOTH"
);
},
{
nodes = (
"516 69 LINE",
"551 69 OFFCURVE",
"603 94 OFFCURVE",
"638 136 OFFCURVE",
"655 194 OFFCURVE",
"655 227 QCURVE SMOOTH",
"655 487 LINE SMOOTH",
"655 515 OFFCURVE",
"633 566 OFFCURVE",
"595 604 OFFCURVE",
"544 626 OFFCURVE",
"516 626 QCURVE",
"516 383 LINE",
"572 383 LINE",
"572 321 LINE",
"516 321 LINE"
);
}
);
width = 752;
}
);
unicode = 0111;
},
{
glyphname = Emacron;
layers = (
{
layerId = "CEEBABA5-0094-4467-BB67-138482C8FCD7";
paths = (
{
nodes = (
"629 69 LINE",
"629 0 LINE",
"38 0 LINE",
"38 695 LINE",
"629 695 LINE",
"629 625 LINE",
"456 625 LINE",
"456 417 LINE",
"629 417 LINE",
"629 347 LINE",
"456 347 LINE",
"456 69 LINE"
);
},
{
nodes = (
"132 856 LINE",
"533 856 LINE",
"533 745 LINE",
"132 745 LINE"
);
}
);
width = 665;
}
);
unicode = 0112;
},
{
glyphname = emacron;
layers = (
{
layerId = "CEEBABA5-0094-4467-BB67-138482C8FCD7";
paths = (
{
nodes = (
"629 69 LINE",
"629 0 LINE",
"38 0 LINE",
"38 695 LINE",
"629 695 LINE",
"629 625 LINE",
"456 625 LINE",
"456 417 LINE",
"629 417 LINE",
"629 347 LINE",
"456 347 LINE",
"456 69 LINE"
);
},
{
nodes = (
"132 856 LINE",
"533 856 LINE",
"533 745 LINE",
"132 745 LINE"
);
}
);
width = 665;
}
);
unicode = 0113;
},
{
glyphname = Edotaccent;
layers = (
{
layerId = "CEEBABA5-0094-4467-BB67-138482C8FCD7";
paths = (
{
nodes = (
"265 856 OFFCURVE",
"279 888 OFFCURVE",
"302 913 OFFCURVE",
"334 927 OFFCURVE",
"352 927 QCURVE SMOOTH",
"370 927 OFFCURVE",
"402 913 OFFCURVE",
"426 888 OFFCURVE",
"440 856 OFFCURVE",
"440 838 QCURVE SMOOTH",
"440 820 OFFCURVE",
"426 787 OFFCURVE",
"402 763 OFFCURVE",
"370 749 OFFCURVE",
"352 749 QCURVE SMOOTH",
"316 749 OFFCURVE",
"265 801 OFFCURVE",
"265 838 QCURVE SMOOTH"
);
},
{
nodes = (
"629 69 LINE",
"629 0 LINE",
"38 0 LINE",
"38 695 LINE",
"629 695 LINE",
"629 625 LINE",
"456 625 LINE",
"456 417 LINE",
"629 417 LINE",
"629 347 LINE",
"456 347 LINE",
"456 69 LINE"
);
}
);
width = 665;
}
);
unicode = 0116;
},
{
glyphname = edotaccent;
layers = (
{
layerId = "CEEBABA5-0094-4467-BB67-138482C8FCD7";
paths = (
{
nodes = (
"265 856 OFFCURVE",
"279 888 OFFCURVE",
"302 913 OFFCURVE",
"334 927 OFFCURVE",
"352 927 QCURVE SMOOTH",
"370 927 OFFCURVE",
"402 913 OFFCURVE",
"426 888 OFFCURVE",
"440 856 OFFCURVE",
"440 838 QCURVE SMOOTH",
"440 820 OFFCURVE",
"426 787 OFFCURVE",
"402 763 OFFCURVE",
"370 749 OFFCURVE",
"352 749 QCURVE SMOOTH",
"316 749 OFFCURVE",
"265 801 OFFCURVE",
"265 838 QCURVE SMOOTH"
);
},
{
nodes = (
"629 69 LINE",
"629 0 LINE",
"38 0 LINE",
"38 695 LINE",
"629 695 LINE",
"629 625 LINE",
"456 625 LINE",
"456 417 LINE",
"629 417 LINE",
"629 347 LINE",
"456 347 LINE",
"456 69 LINE"
);
}
);
width = 665;
}
);
unicode = 0117;
},
{
glyphname = Eogonek;
layers = (
{
layerId = "CEEBABA5-0094-4467-BB67-138482C8FCD7";
paths = (
{
nodes = (
"629 69 LINE",
"629 0 LINE",
"571 0 LINE",
"571 -106 LINE",
"464 -106 LINE",
"464 -135 OFFCURVE",
"465 -198 OFFCURVE",
"465 -227 QCURVE",
"535 -227 LINE SMOOTH",
"555 -227 OFFCURVE",
"583 -193 OFFCURVE",
"583 -170 QCURVE",
"629 -170 LINE",
"629 -191 OFFCURVE",
"614 -228 OFFCURVE",
"588 -255 OFFCURVE",
"554 -270 OFFCURVE",
"535 -270 QCURVE SMOOTH",
"434 -270 LINE SMOOTH",
"400 -270 OFFCURVE",
"354 -226 OFFCURVE",
"354 -192 QCURVE SMOOTH",
"354 -150 LINE SMOOTH",
"354 -117 OFFCURVE",
"400 -71 OFFCURVE",
"434 -71 QCURVE SMOOTH",
"477 -71 LINE",
"477 0 LINE",
"38 0 LINE",
"38 695 LINE",
"629 695 LINE",
"629 625 LINE",
"456 625 LINE",
"456 417 LINE",
"629 417 LINE",
"629 347 LINE",
"456 347 LINE",
"456 69 LINE"
);
}
);
width = 665;
}
);
unicode = 0118;
},
{
glyphname = eogonek;
layers = (
{
layerId = "CEEBABA5-0094-4467-BB67-138482C8FCD7";
paths = (
{
nodes = (
"629 69 LINE",
"629 0 LINE",
"571 0 LINE",
"571 -106 LINE",
"464 -106 LINE",
"464 -135 OFFCURVE",
"465 -198 OFFCURVE",
"465 -227 QCURVE",
"535 -227 LINE SMOOTH",
"555 -227 OFFCURVE",
"583 -193 OFFCURVE",
"583 -170 QCURVE",
"629 -170 LINE",
"629 -191 OFFCURVE",
"614 -228 OFFCURVE",
"588 -255 OFFCURVE",
"554 -270 OFFCURVE",
"535 -270 QCURVE SMOOTH",
"434 -270 LINE SMOOTH",
"400 -270 OFFCURVE",
"354 -226 OFFCURVE",
"354 -192 QCURVE SMOOTH",
"354 -150 LINE SMOOTH",
"354 -117 OFFCURVE",
"400 -71 OFFCURVE",
"434 -71 QCURVE SMOOTH",
"477 -71 LINE",
"477 0 LINE",
"38 0 LINE",
"38 695 LINE",
"629 695 LINE",
"629 625 LINE",
"456 625 LINE",
"456 417 LINE",
"629 417 LINE",
"629 347 LINE",
"456 347 LINE",
"456 69 LINE"
);
}
);
width = 665;
}
);
unicode = 0119;
},
{
glyphname = Ecaron;
layers = (
{
layerId = "CEEBABA5-0094-4467-BB67-138482C8FCD7";
paths = (
{
nodes = (
"629 69 LINE",
"629 0 LINE",
"38 0 LINE",
"38 695 LINE",
"629 695 LINE",
"629 625 LINE",
"456 625 LINE",
"456 417 LINE",
"629 417 LINE",
"629 347 LINE",
"456 347 LINE",
"456 69 LINE"
);
},
{
nodes = (
"421 957 LINE",
"507 923 LINE",
"438 749 LINE",
"227 749 LINE",
"158 923 LINE",
"244 957 LINE",
"332 826 LINE"
);
}
);
width = 665;
}
);
unicode = 011A;
},
{
glyphname = ecaron;
layers = (
{
layerId = "CEEBABA5-0094-4467-BB67-138482C8FCD7";
paths = (
{
nodes = (
"629 69 LINE",
"629 0 LINE",
"38 0 LINE",
"38 695 LINE",
"629 695 LINE",
"629 625 LINE",
"456 625 LINE",
"456 417 LINE",
"629 417 LINE",
"629 347 LINE",
"456 347 LINE",
"456 69 LINE"
);
},
{
nodes = (
"421 957 LINE",
"507 923 LINE",
"438 749 LINE",
"227 749 LINE",
"158 923 LINE",
"244 957 LINE",
"332 826 LINE"
);
}
);
width = 665;
}
);
unicode = 011B;
},
{
glyphname = Gbreve;
layers = (
{
layerId = "CEEBABA5-0094-4467-BB67-138482C8FCD7";
paths = (
{
nodes = (
"369 827 OFFCURVE",
"405 870 OFFCURVE",
"405 899 QCURVE",
"499 899 LINE",
"499 865 OFFCURVE",
"475 805 OFFCURVE",
"433 760 OFFCURVE",
"376 733 OFFCURVE",
"343 733 QCURVE SMOOTH",
"311 733 OFFCURVE",
"255 760 OFFCURVE",
"212 805 OFFCURVE",
"187 865 OFFCURVE",
"187 899 QCURVE",
"281 899 LINE",
"281 870 OFFCURVE",
"317 827 OFFCURVE",
"343 827 QCURVE SMOOTH"
);
},
{
nodes = (
"588 487 LINE",
"588 516 OFFCURVE",
"566 566 OFFCURVE",
"528 604 OFFCURVE",
"477 625 OFFCURVE",
"449 625 QCURVE",
"449 69 LINE",
"477 69 OFFCURVE",
"528 91 OFFCURVE",
"566 129 OFFCURVE",
"588 179 OFFCURVE",
"588 208 QCURVE SMOOTH",
"588 243 LINE",
"518 243 LINE",
"518 313 LINE",
"657 313 LINE",
"657 208 LINE SMOOTH",
"657 165 OFFCURVE",
"624 89 OFFCURVE",
"568 33 OFFCURVE",
"492 0 OFFCURVE",
"449 0 QCURVE SMOOTH",
"240 0 LINE SMOOTH",
"197 0 OFFCURVE",
"121 33 OFFCURVE",
"65 89 OFFCURVE",
"32 165 OFFCURVE",
"32 208 QCURVE SMOOTH",
"32 487 LINE SMOOTH",
"32 530 OFFCURVE",
"65 606 OFFCURVE",
"121 662 OFFCURVE",
"197 695 OFFCURVE",
"240 695 QCURVE SMOOTH",
"449 695 LINE SMOOTH",
"492 695 OFFCURVE",
"568 662 OFFCURVE",
"624 606 OFFCURVE",
"657 530 OFFCURVE",
"657 487 QCURVE"
);
}
);
width = 687;
}
);
unicode = 011E;
},
{
glyphname = gbreve;
layers = (
{
layerId = "CEEBABA5-0094-4467-BB67-138482C8FCD7";
paths = (
{
nodes = (
"369 827 OFFCURVE",
"405 870 OFFCURVE",
"405 899 QCURVE",
"499 899 LINE",
"499 865 OFFCURVE",
"475 805 OFFCURVE",
"433 760 OFFCURVE",
"376 733 OFFCURVE",
"343 733 QCURVE SMOOTH",
"311 733 OFFCURVE",
"255 760 OFFCURVE",
"212 805 OFFCURVE",
"187 865 OFFCURVE",
"187 899 QCURVE",
"281 899 LINE",
"281 870 OFFCURVE",
"317 827 OFFCURVE",
"343 827 QCURVE SMOOTH"
);
},
{
nodes = (
"588 487 LINE",
"588 516 OFFCURVE",
"566 566 OFFCURVE",
"528 604 OFFCURVE",
"477 625 OFFCURVE",
"449 625 QCURVE",
"449 69 LINE",
"477 69 OFFCURVE",
"528 91 OFFCURVE",
"566 129 OFFCURVE",
"588 179 OFFCURVE",
"588 208 QCURVE SMOOTH",
"588 243 LINE",
"518 243 LINE",
"518 313 LINE",
"657 313 LINE",
"657 208 LINE SMOOTH",
"657 165 OFFCURVE",
"624 89 OFFCURVE",
"568 33 OFFCURVE",
"492 0 OFFCURVE",
"449 0 QCURVE SMOOTH",
"240 0 LINE SMOOTH",
"197 0 OFFCURVE",
"121 33 OFFCURVE",
"65 89 OFFCURVE",
"32 165 OFFCURVE",
"32 208 QCURVE SMOOTH",
"32 487 LINE SMOOTH",
"32 530 OFFCURVE",
"65 606 OFFCURVE",
"121 662 OFFCURVE",
"197 695 OFFCURVE",
"240 695 QCURVE SMOOTH",
"449 695 LINE SMOOTH",
"492 695 OFFCURVE",
"568 662 OFFCURVE",
"624 606 OFFCURVE",
"657 530 OFFCURVE",
"657 487 QCURVE"
);
}
);
width = 687;
}
);
unicode = 011F;
},
{
glyphname = Gdotaccent;
layers = (
{
layerId = "CEEBABA5-0094-4467-BB67-138482C8FCD7";
paths = (
{
nodes = (
"265 856 OFFCURVE",
"279 888 OFFCURVE",
"302 913 OFFCURVE",
"334 927 OFFCURVE",
"352 927 QCURVE SMOOTH",
"370 927 OFFCURVE",
"402 913 OFFCURVE",
"426 888 OFFCURVE",
"440 856 OFFCURVE",
"440 838 QCURVE SMOOTH",
"440 820 OFFCURVE",
"426 787 OFFCURVE",
"402 763 OFFCURVE",
"370 749 OFFCURVE",
"352 749 QCURVE SMOOTH",
"316 749 OFFCURVE",
"265 801 OFFCURVE",
"265 838 QCURVE SMOOTH"
);
},
{
nodes = (
"588 487 LINE",
"588 516 OFFCURVE",
"566 566 OFFCURVE",
"528 604 OFFCURVE",
"477 625 OFFCURVE",
"449 625 QCURVE",
"449 69 LINE",
"477 69 OFFCURVE",
"528 91 OFFCURVE",
"566 129 OFFCURVE",
"588 179 OFFCURVE",
"588 208 QCURVE SMOOTH",
"588 243 LINE",
"518 243 LINE",
"518 313 LINE",
"657 313 LINE",
"657 208 LINE SMOOTH",
"657 165 OFFCURVE",
"624 89 OFFCURVE",
"568 33 OFFCURVE",
"492 0 OFFCURVE",
"449 0 QCURVE SMOOTH",
"240 0 LINE SMOOTH",
"197 0 OFFCURVE",
"121 33 OFFCURVE",
"65 89 OFFCURVE",
"32 165 OFFCURVE",
"32 208 QCURVE SMOOTH",
"32 487 LINE SMOOTH",
"32 530 OFFCURVE",
"65 606 OFFCURVE",
"121 662 OFFCURVE",
"197 695 OFFCURVE",
"240 695 QCURVE SMOOTH",
"449 695 LINE SMOOTH",
"492 695 OFFCURVE",
"568 662 OFFCURVE",
"624 606 OFFCURVE",
"657 530 OFFCURVE",
"657 487 QCURVE"
);
}
);
width = 687;
}
);
unicode = 0120;
},
{
glyphname = gdotaccent;
layers = (
{
layerId = "CEEBABA5-0094-4467-BB67-138482C8FCD7";
paths = (
{
nodes = (
"265 856 OFFCURVE",
"279 888 OFFCURVE",
"302 913 OFFCURVE",
"334 927 OFFCURVE",
"352 927 QCURVE SMOOTH",
"370 927 OFFCURVE",
"402 913 OFFCURVE",
"426 888 OFFCURVE",
"440 856 OFFCURVE",
"440 838 QCURVE SMOOTH",
"440 820 OFFCURVE",
"426 787 OFFCURVE",
"402 763 OFFCURVE",
"370 749 OFFCURVE",
"352 749 QCURVE SMOOTH",
"316 749 OFFCURVE",
"265 801 OFFCURVE",
"265 838 QCURVE SMOOTH"
);
},
{
nodes = (
"588 487 LINE",
"588 516 OFFCURVE",
"566 566 OFFCURVE",
"528 604 OFFCURVE",
"477 625 OFFCURVE",
"449 625 QCURVE",
"449 69 LINE",
"477 69 OFFCURVE",
"528 91 OFFCURVE",
"566 129 OFFCURVE",
"588 179 OFFCURVE",
"588 208 QCURVE SMOOTH",
"588 243 LINE",
"518 243 LINE",
"518 313 LINE",
"657 313 LINE",
"657 208 LINE SMOOTH",
"657 165 OFFCURVE",
"624 89 OFFCURVE",
"568 33 OFFCURVE",
"492 0 OFFCURVE",
"449 0 QCURVE SMOOTH",
"240 0 LINE SMOOTH",
"197 0 OFFCURVE",
"121 33 OFFCURVE",
"65 89 OFFCURVE",
"32 165 OFFCURVE",
"32 208 QCURVE SMOOTH",
"32 487 LINE SMOOTH",
"32 530 OFFCURVE",
"65 606 OFFCURVE",
"121 662 OFFCURVE",
"197 695 OFFCURVE",
"240 695 QCURVE SMOOTH",
"449 695 LINE SMOOTH",
"492 695 OFFCURVE",
"568 662 OFFCURVE",
"624 606 OFFCURVE",
"657 530 OFFCURVE",
"657 487 QCURVE"
);
}
);
width = 687;
}
);
unicode = 0121;
},
{
glyphname = uni0122;
layers = (
{
layerId = "CEEBABA5-0094-4467-BB67-138482C8FCD7";
paths = (
{
nodes = (
"343 740 LINE",
"257 774 LINE",
"318 944 LINE",
"440 885 LINE"
);
},
{
nodes = (
"588 487 LINE",
"588 516 OFFCURVE",
"566 566 OFFCURVE",
"528 604 OFFCURVE",
"477 625 OFFCURVE",
"449 625 QCURVE",
"449 69 LINE",
"477 69 OFFCURVE",
"528 91 OFFCURVE",
"566 129 OFFCURVE",
"588 179 OFFCURVE",
"588 208 QCURVE SMOOTH",
"588 243 LINE",
"518 243 LINE",
"518 313 LINE",
"657 313 LINE",
"657 208 LINE SMOOTH",
"657 165 OFFCURVE",
"624 89 OFFCURVE",
"568 33 OFFCURVE",
"492 0 OFFCURVE",
"449 0 QCURVE SMOOTH",
"240 0 LINE SMOOTH",
"197 0 OFFCURVE",
"121 33 OFFCURVE",
"65 89 OFFCURVE",
"32 165 OFFCURVE",
"32 208 QCURVE SMOOTH",
"32 487 LINE SMOOTH",
"32 530 OFFCURVE",
"65 606 OFFCURVE",
"121 662 OFFCURVE",
"197 695 OFFCURVE",
"240 695 QCURVE SMOOTH",
"449 695 LINE SMOOTH",
"492 695 OFFCURVE",
"568 662 OFFCURVE",
"624 606 OFFCURVE",
"657 530 OFFCURVE",
"657 487 QCURVE"
);
}
);
width = 678;
}
);
unicode = 0122;
},
{
glyphname = uni0123;
layers = (
{
layerId = "CEEBABA5-0094-4467-BB67-138482C8FCD7";
paths = (
{
nodes = (
"343 740 LINE",
"257 774 LINE",
"318 944 LINE",
"440 885 LINE"
);
},
{
nodes = (
"588 487 LINE",
"588 516 OFFCURVE",
"566 566 OFFCURVE",
"528 604 OFFCURVE",
"477 625 OFFCURVE",
"449 625 QCURVE",
"449 69 LINE",
"477 69 OFFCURVE",
"528 91 OFFCURVE",
"566 129 OFFCURVE",
"588 179 OFFCURVE",
"588 208 QCURVE SMOOTH",
"588 243 LINE",
"518 243 LINE",
"518 313 LINE",
"657 313 LINE",
"657 208 LINE SMOOTH",
"657 165 OFFCURVE",
"624 89 OFFCURVE",
"568 33 OFFCURVE",
"492 0 OFFCURVE",
"449 0 QCURVE SMOOTH",
"240 0 LINE SMOOTH",
"197 0 OFFCURVE",
"121 33 OFFCURVE",
"65 89 OFFCURVE",
"32 165 OFFCURVE",
"32 208 QCURVE SMOOTH",
"32 487 LINE SMOOTH",
"32 530 OFFCURVE",
"65 606 OFFCURVE",
"121 662 OFFCURVE",
"197 695 OFFCURVE",
"240 695 QCURVE SMOOTH",
"449 695 LINE SMOOTH",
"492 695 OFFCURVE",
"568 662 OFFCURVE",
"624 606 OFFCURVE",
"657 530 OFFCURVE",
"657 487 QCURVE"
);
}
);
width = 684;
}
);
unicode = 0123;
},
{
glyphname = Hbar;
layers = (
{
layerId = "CEEBABA5-0094-4467-BB67-138482C8FCD7";
paths = (
{
nodes = (
"567 198 LINE",
"567 318 LINE",
"451 318 LINE",
"451 198 LINE"
);
},
{
nodes = (
"698 400 LINE",
"698 318 LINE",
"636 318 LINE",
"636 0 LINE",
"567 0 LINE",
"567 129 LINE",
"451 129 LINE",
"451 0 LINE",
"76 0 LINE",
"76 318 LINE",
"21 318 LINE",
"21 400 LINE",
"76 400 LINE",
"76 695 LINE",
"451 695 LINE",
"451 400 LINE",
"567 400 LINE",
"567 695 LINE",
"636 695 LINE",
"636 400 LINE"
);
}
);
width = 712;
}
);
unicode = 0126;
},
{
glyphname = hbar;
layers = (
{
layerId = "CEEBABA5-0094-4467-BB67-138482C8FCD7";
paths = (
{
nodes = (
"567 198 LINE",
"567 318 LINE",
"451 318 LINE",
"451 198 LINE"
);
},
{
nodes = (
"698 400 LINE",
"698 318 LINE",
"636 318 LINE",
"636 0 LINE",
"567 0 LINE",
"567 129 LINE",
"451 129 LINE",
"451 0 LINE",
"76 0 LINE",
"76 318 LINE",
"21 318 LINE",
"21 400 LINE",
"76 400 LINE",
"76 695 LINE",
"451 695 LINE",
"451 400 LINE",
"567 400 LINE",
"567 695 LINE",
"636 695 LINE",
"636 400 LINE"
);
}
);
width = 712;
}
);
unicode = 0127;
},
{
glyphname = Imacron;
layers = (
{
layerId = "CEEBABA5-0094-4467-BB67-138482C8FCD7";
paths = (
{
nodes = (
"456 695 LINE",
"456 0 LINE",
"39 0 LINE",
"39 695 LINE"
);
},
{
nodes = (
"50 856 LINE",
"451 856 LINE",
"451 745 LINE",
"50 745 LINE"
);
}
);
width = 501;
}
);
unicode = 012A;
},
{
glyphname = imacron;
layers = (
{
layerId = "CEEBABA5-0094-4467-BB67-138482C8FCD7";
paths = (
{
nodes = (
"456 695 LINE",
"456 0 LINE",
"39 0 LINE",
"39 695 LINE"
);
},
{
nodes = (
"50 856 LINE",
"451 856 LINE",
"451 745 LINE",
"50 745 LINE"
);
}
);
width = 501;
}
);
unicode = 012B;
},
{
glyphname = Iogonek;
layers = (
{
layerId = "CEEBABA5-0094-4467-BB67-138482C8FCD7";
paths = (
{
nodes = (
"456 695 LINE",
"456 0 LINE",
"330 0 LINE",
"330 -106 LINE",
"223 -106 LINE",
"223 -135 OFFCURVE",
"224 -198 OFFCURVE",
"224 -227 QCURVE",
"294 -227 LINE SMOOTH",
"314 -227 OFFCURVE",
"342 -193 OFFCURVE",
"342 -170 QCURVE",
"388 -170 LINE",
"388 -191 OFFCURVE",
"373 -228 OFFCURVE",
"347 -255 OFFCURVE",
"313 -270 OFFCURVE",
"294 -270 QCURVE SMOOTH",
"193 -270 LINE SMOOTH",
"159 -270 OFFCURVE",
"113 -226 OFFCURVE",
"113 -192 QCURVE SMOOTH",
"113 -150 LINE SMOOTH",
"113 -117 OFFCURVE",
"159 -71 OFFCURVE",
"193 -71 QCURVE SMOOTH",
"236 -71 LINE",
"236 0 LINE",
"39 0 LINE",
"39 695 LINE"
);
}
);
width = 501;
}
);
unicode = 012E;
},
{
glyphname = iogonek;
layers = (
{
layerId = "CEEBABA5-0094-4467-BB67-138482C8FCD7";
paths = (
{
nodes = (
"456 695 LINE",
"456 0 LINE",
"330 0 LINE",
"330 -106 LINE",
"223 -106 LINE",
"223 -135 OFFCURVE",
"224 -198 OFFCURVE",
"224 -227 QCURVE",
"294 -227 LINE SMOOTH",
"314 -227 OFFCURVE",
"342 -193 OFFCURVE",
"342 -170 QCURVE",
"388 -170 LINE",
"388 -191 OFFCURVE",
"373 -228 OFFCURVE",
"347 -255 OFFCURVE",
"313 -270 OFFCURVE",
"294 -270 QCURVE SMOOTH",
"193 -270 LINE SMOOTH",
"159 -270 OFFCURVE",
"113 -226 OFFCURVE",
"113 -192 QCURVE SMOOTH",
"113 -150 LINE SMOOTH",
"113 -117 OFFCURVE",
"159 -71 OFFCURVE",
"193 -71 QCURVE SMOOTH",
"236 -71 LINE",
"236 0 LINE",
"39 0 LINE",
"39 695 LINE"
);
}
);
width = 501;
}
);
unicode = 012F;
},
{
glyphname = Idotaccent;
layers = (
{
layerId = "CEEBABA5-0094-4467-BB67-138482C8FCD7";
paths = (
{
nodes = (
"167 856 OFFCURVE",
"181 888 OFFCURVE",
"204 913 OFFCURVE",
"236 927 OFFCURVE",
"254 927 QCURVE SMOOTH",
"272 927 OFFCURVE",
"304 913 OFFCURVE",
"328 888 OFFCURVE",
"342 856 OFFCURVE",
"342 838 QCURVE SMOOTH",
"342 820 OFFCURVE",
"328 787 OFFCURVE",
"304 763 OFFCURVE",
"272 749 OFFCURVE",
"254 749 QCURVE SMOOTH",
"218 749 OFFCURVE",
"167 801 OFFCURVE",
"167 838 QCURVE SMOOTH"
);
},
{
nodes = (
"456 695 LINE",
"456 0 LINE",
"39 0 LINE",
"39 695 LINE"
);
}
);
width = 501;
}
);
unicode = 0130;
},
{
glyphname = dotlessi;
layers = (
{
layerId = "CEEBABA5-0094-4467-BB67-138482C8FCD7";
paths = (
{
nodes = (
"456 695 LINE",
"456 0 LINE",
"39 0 LINE",
"39 695 LINE"
);
}
);
width = 501;
}
);
unicode = 0131;
},
{
glyphname = uni0136;
layers = (
{
layerId = "CEEBABA5-0094-4467-BB67-138482C8FCD7";
paths = (
{
nodes = (
"510 386 LINE",
"684 0 LINE",
"614 0 LINE",
"475 309 LINE",
"458 270 LINE",
"458 0 LINE",
"41 0 LINE",
"41 695 LINE",
"458 695 LINE",
"458 424 LINE",
"580 695 LINE",
"649 695 LINE"
);
},
{
nodes = (
"276 -44 LINE",
"384 -44 LINE",
"384 -135 LINE",
"276 -202 LINE"
);
}
);
width = 713;
}
);
unicode = 0136;
},
{
glyphname = uni0137;
layers = (
{
layerId = "CEEBABA5-0094-4467-BB67-138482C8FCD7";
paths = (
{
nodes = (
"510 386 LINE",
"684 0 LINE",
"614 0 LINE",
"475 309 LINE",
"458 270 LINE",
"458 0 LINE",
"41 0 LINE",
"41 695 LINE",
"458 695 LINE",
"458 424 LINE",
"580 695 LINE",
"649 695 LINE"
);
},
{
nodes = (
"276 -44 LINE",
"384 -44 LINE",
"384 -135 LINE",
"276 -202 LINE"
);
}
);
width = 720;
}
);
unicode = 0137;
},
{
glyphname = Lacute;
layers = (
{
layerId = "CEEBABA5-0094-4467-BB67-138482C8FCD7";
paths = (
{
nodes = (
"666 69 LINE",
"666 0 LINE",
"40 0 LINE",
"40 695 LINE",
"457 695 LINE",
"457 69 LINE"
);
},
{
nodes = (
"211 740 LINE",
"125 774 LINE",
"186 944 LINE",
"305 886 LINE",
"327 947 LINE",
"449 888 LINE",
"352 743 LINE",
"266 777 LINE",
"301 875 LINE"
);
}
);
width = 683;
}
);
unicode = 0139;
},
{
glyphname = lacute;
layers = (
{
layerId = "CEEBABA5-0094-4467-BB67-138482C8FCD7";
paths = (
{
nodes = (
"666 69 LINE",
"666 0 LINE",
"40 0 LINE",
"40 695 LINE",
"457 695 LINE",
"457 69 LINE"
);
},
{
nodes = (
"211 740 LINE",
"125 774 LINE",
"186 944 LINE",
"305 886 LINE",
"327 947 LINE",
"449 888 LINE",
"352 743 LINE",
"266 777 LINE",
"301 875 LINE"
);
}
);
width = 683;
}
);
unicode = 013A;
},
{
glyphname = uni013B;
layers = (
{
layerId = "CEEBABA5-0094-4467-BB67-138482C8FCD7";
paths = (
{
nodes = (
"666 69 LINE",
"666 0 LINE",
"40 0 LINE",
"40 695 LINE",
"457 695 LINE",
"457 69 LINE"
);
},
{
nodes = (
"276 -44 LINE",
"384 -44 LINE",
"384 -135 LINE",
"276 -202 LINE"
);
}
);
width = 691;
}
);
unicode = 013B;
},
{
glyphname = uni013C;
layers = (
{
layerId = "CEEBABA5-0094-4467-BB67-138482C8FCD7";
paths = (
{
nodes = (
"666 69 LINE",
"666 0 LINE",
"40 0 LINE",
"40 695 LINE",
"457 695 LINE",
"457 69 LINE"
);
},
{
nodes = (
"276 -44 LINE",
"384 -44 LINE",
"384 -135 LINE",
"276 -202 LINE"
);
}
);
width = 697;
}
);
unicode = 013C;
},
{
glyphname = Lcaron;
layers = (
{
layerId = "CEEBABA5-0094-4467-BB67-138482C8FCD7";
paths = (
{
nodes = (
"666 69 LINE",
"666 0 LINE",
"40 0 LINE",
"40 695 LINE",
"457 695 LINE",
"457 69 LINE"
);
},
{
nodes = (
"352 743 LINE",
"266 777 LINE",
"327 947 LINE",
"449 888 LINE"
);
}
);
width = 683;
}
);
unicode = 013D;
},
{
glyphname = lcaron;
layers = (
{
layerId = "CEEBABA5-0094-4467-BB67-138482C8FCD7";
paths = (
{
nodes = (
"666 69 LINE",
"666 0 LINE",
"40 0 LINE",
"40 695 LINE",
"457 695 LINE",
"457 69 LINE"
);
},
{
nodes = (
"510 697 LINE",
"618 697 LINE",
"618 606 LINE",
"510 539 LINE"
);
}
);
width = 861;
}
);
unicode = 013E;
},
{
glyphname = Lslash;
layers = (
{
layerId = "CEEBABA5-0094-4467-BB67-138482C8FCD7";
paths = (
{
nodes = (
"626 462 LINE",
"514 420 LINE",
"514 69 LINE",
"723 69 LINE",
"723 0 LINE",
"97 0 LINE",
"97 264 LINE",
"36 241 LINE",
"14 309 LINE",
"97 340 LINE",
"97 695 LINE",
"514 695 LINE",
"514 495 LINE",
"599 527 LINE"
);
}
);
width = 736;
}
);
unicode = 0141;
},
{
glyphname = lslash;
layers = (
{
layerId = "CEEBABA5-0094-4467-BB67-138482C8FCD7";
paths = (
{
nodes = (
"626 462 LINE",
"514 420 LINE",
"514 69 LINE",
"723 69 LINE",
"723 0 LINE",
"97 0 LINE",
"97 264 LINE",
"36 241 LINE",
"14 309 LINE",
"97 340 LINE",
"97 695 LINE",
"514 695 LINE",
"514 495 LINE",
"599 527 LINE"
);
}
);
width = 736;
}
);
unicode = 0142;
},
{
glyphname = Nacute;
layers = (
{
layerId = "CEEBABA5-0094-4467-BB67-138482C8FCD7";
paths = (
{
nodes = (
"669 695 LINE",
"669 0 LINE",
"600 0 LINE",
"600 232 LINE",
"461 540 LINE",
"461 0 LINE",
"44 0 LINE",
"44 695 LINE",
"461 695 LINE",
"600 386 LINE",
"600 695 LINE"
);
},
{
nodes = (
"354 740 LINE",
"268 774 LINE",
"329 944 LINE",
"451 885 LINE"
);
}
);
width = 719;
}
);
unicode = 0143;
},
{
glyphname = nacute;
layers = (
{
layerId = "CEEBABA5-0094-4467-BB67-138482C8FCD7";
paths = (
{
nodes = (
"669 695 LINE",
"669 0 LINE",
"600 0 LINE",
"600 232 LINE",
"461 540 LINE",
"461 0 LINE",
"44 0 LINE",
"44 695 LINE",
"461 695 LINE",
"600 386 LINE",
"600 695 LINE"
);
},
{
nodes = (
"354 740 LINE",
"268 774 LINE",
"329 944 LINE",
"451 885 LINE"
);
}
);
width = 719;
}
);
unicode = 0144;
},
{
glyphname = uni0145;
layers = (
{
layerId = "CEEBABA5-0094-4467-BB67-138482C8FCD7";
paths = (
{
nodes = (
"669 695 LINE",
"669 0 LINE",
"600 0 LINE",
"600 232 LINE",
"461 540 LINE",
"461 0 LINE",
"44 0 LINE",
"44 695 LINE",
"461 695 LINE",
"600 386 LINE",
"600 695 LINE"
);
},
{
nodes = (
"276 -44 LINE",
"384 -44 LINE",
"384 -135 LINE",
"276 -202 LINE"
);
}
);
width = 704;
}
);
unicode = 0145;
},
{
glyphname = uni0146;
layers = (
{
layerId = "CEEBABA5-0094-4467-BB67-138482C8FCD7";
paths = (
{
nodes = (
"669 695 LINE",
"669 0 LINE",
"600 0 LINE",
"600 232 LINE",
"461 540 LINE",
"461 0 LINE",
"44 0 LINE",
"44 695 LINE",
"461 695 LINE",
"600 386 LINE",
"600 695 LINE"
);
},
{
nodes = (
"276 -44 LINE",
"384 -44 LINE",
"384 -135 LINE",
"276 -202 LINE"
);
}
);
width = 713;
}
);
unicode = 0146;
},
{
glyphname = Ncaron;
layers = (
{
layerId = "CEEBABA5-0094-4467-BB67-138482C8FCD7";
paths = (
{
nodes = (
"669 695 LINE",
"669 0 LINE",
"600 0 LINE",
"600 232 LINE",
"461 540 LINE",
"461 0 LINE",
"44 0 LINE",
"44 695 LINE",
"461 695 LINE",
"600 386 LINE",
"600 695 LINE"
);
},
{
nodes = (
"448 957 LINE",
"534 923 LINE",
"465 749 LINE",
"254 749 LINE",
"185 923 LINE",
"271 957 LINE",
"359 826 LINE"
);
}
);
width = 719;
}
);
unicode = 0147;
},
{
glyphname = ncaron;
layers = (
{
layerId = "CEEBABA5-0094-4467-BB67-138482C8FCD7";
paths = (
{
nodes = (
"669 695 LINE",
"669 0 LINE",
"600 0 LINE",
"600 232 LINE",
"461 540 LINE",
"461 0 LINE",
"44 0 LINE",
"44 695 LINE",
"461 695 LINE",
"600 386 LINE",
"600 695 LINE"
);
},
{
nodes = (
"448 957 LINE",
"534 923 LINE",
"465 749 LINE",
"254 749 LINE",
"185 923 LINE",
"271 957 LINE",
"359 826 LINE"
);
}
);
width = 719;
}
);
unicode = 0148;
},
{
glyphname = Ohungarumlaut;
layers = (
{
layerId = "CEEBABA5-0094-4467-BB67-138482C8FCD7";
paths = (
{
nodes = (
"211 740 LINE",
"125 774 LINE",
"186 944 LINE",
"308 885 LINE"
);
},
{
nodes = (
"484 740 LINE",
"398 774 LINE",
"459 944 LINE",
"581 885 LINE"
);
},
{
nodes = (
"665 201 LINE SMOOTH",
"665 159 OFFCURVE",
"630 86 OFFCURVE",
"573 32 OFFCURVE",
"497 0 OFFCURVE",
"457 0 QCURVE SMOOTH",
"248 0 LINE SMOOTH",
"205 0 OFFCURVE",
"129 33 OFFCURVE",
"73 89 OFFCURVE",
"40 165 OFFCURVE",
"40 208 QCURVE SMOOTH",
"40 486 LINE SMOOTH",
"40 529 OFFCURVE",
"73 605 OFFCURVE",
"129 662 OFFCURVE",
"205 695 OFFCURVE",
"248 695 QCURVE SMOOTH",
"457 695 LINE SMOOTH",
"500 695 OFFCURVE",
"576 662 OFFCURVE",
"632 605 OFFCURVE",
"665 529 OFFCURVE",
"665 486 QCURVE SMOOTH"
);
},
{
nodes = (
"457 69 LINE",
"494 69 OFFCURVE",
"546 95 OFFCURVE",
"580 139 OFFCURVE",
"596 199 OFFCURVE",
"596 232 QCURVE SMOOTH",
"596 486 LINE SMOOTH",
"596 515 OFFCURVE",
"574 566 OFFCURVE",
"537 603 OFFCURVE",
"486 625 OFFCURVE",
"457 625 QCURVE"
);
}
);
width = 706;
}
);
unicode = 0150;
},
{
glyphname = ohungarumlaut;
layers = (
{
layerId = "CEEBABA5-0094-4467-BB67-138482C8FCD7";
paths = (
{
nodes = (
"211 740 LINE",
"125 774 LINE",
"186 944 LINE",
"308 885 LINE"
);
},
{
nodes = (
"484 740 LINE",
"398 774 LINE",
"459 944 LINE",
"581 885 LINE"
);
},
{
nodes = (
"665 201 LINE SMOOTH",
"665 159 OFFCURVE",
"630 86 OFFCURVE",
"573 32 OFFCURVE",
"497 0 OFFCURVE",
"457 0 QCURVE SMOOTH",
"248 0 LINE SMOOTH",
"205 0 OFFCURVE",
"129 33 OFFCURVE",
"73 89 OFFCURVE",
"40 165 OFFCURVE",
"40 208 QCURVE SMOOTH",
"40 486 LINE SMOOTH",
"40 529 OFFCURVE",
"73 605 OFFCURVE",
"129 662 OFFCURVE",
"205 695 OFFCURVE",
"248 695 QCURVE SMOOTH",
"457 695 LINE SMOOTH",
"500 695 OFFCURVE",
"576 662 OFFCURVE",
"632 605 OFFCURVE",
"665 529 OFFCURVE",
"665 486 QCURVE SMOOTH"
);
},
{
nodes = (
"457 69 LINE",
"494 69 OFFCURVE",
"546 95 OFFCURVE",
"580 139 OFFCURVE",
"596 199 OFFCURVE",
"596 232 QCURVE SMOOTH",
"596 486 LINE SMOOTH",
"596 515 OFFCURVE",
"574 566 OFFCURVE",
"537 603 OFFCURVE",
"486 625 OFFCURVE",
"457 625 QCURVE"
);
}
);
width = 706;
}
);
unicode = 0151;
},
{
glyphname = OE;
layers = (
{
layerId = "CEEBABA5-0094-4467-BB67-138482C8FCD7";
paths = (
{
nodes = (
"1092 69 LINE",
"1092 0 LINE",
"567 0 LINE",
"567 90 LINE",
"560 82 OFFCURVE",
"547 66 OFFCURVE",
"539 59 QCURVE SMOOTH",
"511 32 OFFCURVE",
"435 0 OFFCURVE",
"395 0 QCURVE SMOOTH",
"248 0 LINE SMOOTH",
"205 0 OFFCURVE",
"129 33 OFFCURVE",
"73 89 OFFCURVE",
"40 165 OFFCURVE",
"40 208 QCURVE SMOOTH",
"40 486 LINE SMOOTH",
"40 529 OFFCURVE",
"73 605 OFFCURVE",
"129 662 OFFCURVE",
"205 695 OFFCURVE",
"248 695 QCURVE SMOOTH",
"395 695 LINE SMOOTH",
"438 695 OFFCURVE",
"514 662 OFFCURVE",
"542 633 QCURVE SMOOTH",
"549 626 OFFCURVE",
"562 611 OFFCURVE",
"567 603 QCURVE",
"567 695 LINE",
"1092 695 LINE",
"1092 625 LINE",
"919 625 LINE",
"919 417 LINE",
"1092 417 LINE",
"1092 347 LINE",
"919 347 LINE",
"919 69 LINE"
);
},
{
nodes = (
"395 69 LINE",
"432 69 OFFCURVE",
"484 95 OFFCURVE",
"518 139 OFFCURVE",
"534 199 OFFCURVE",
"534 232 QCURVE SMOOTH",
"534 486 LINE SMOOTH",
"534 515 OFFCURVE",
"512 566 OFFCURVE",
"475 603 OFFCURVE",
"424 625 OFFCURVE",
"395 625 QCURVE"
);
}
);
width = 1119;
}
);
unicode = 0152;
},
{
glyphname = oe;
layers = (
{
layerId = "CEEBABA5-0094-4467-BB67-138482C8FCD7";
paths = (
{
nodes = (
"1092 69 LINE",
"1092 0 LINE",
"567 0 LINE",
"567 90 LINE",
"560 82 OFFCURVE",
"547 66 OFFCURVE",
"539 59 QCURVE SMOOTH",
"511 32 OFFCURVE",
"435 0 OFFCURVE",
"395 0 QCURVE SMOOTH",
"248 0 LINE SMOOTH",
"205 0 OFFCURVE",
"129 33 OFFCURVE",
"73 89 OFFCURVE",
"40 165 OFFCURVE",
"40 208 QCURVE SMOOTH",
"40 486 LINE SMOOTH",
"40 529 OFFCURVE",
"73 605 OFFCURVE",
"129 662 OFFCURVE",
"205 695 OFFCURVE",
"248 695 QCURVE SMOOTH",
"395 695 LINE SMOOTH",
"438 695 OFFCURVE",
"514 662 OFFCURVE",
"542 633 QCURVE SMOOTH",
"549 626 OFFCURVE",
"562 611 OFFCURVE",
"567 603 QCURVE",
"567 695 LINE",
"1092 695 LINE",
"1092 625 LINE",
"919 625 LINE",
"919 417 LINE",
"1092 417 LINE",
"1092 347 LINE",
"919 347 LINE",
"919 69 LINE"
);
},
{
nodes = (
"395 69 LINE",
"432 69 OFFCURVE",
"484 95 OFFCURVE",
"518 139 OFFCURVE",
"534 199 OFFCURVE",
"534 232 QCURVE SMOOTH",
"534 486 LINE SMOOTH",
"534 515 OFFCURVE",
"512 566 OFFCURVE",
"475 603 OFFCURVE",
"424 625 OFFCURVE",
"395 625 QCURVE"
);
}
);
width = 1119;
}
);
unicode = 0153;
},
{
glyphname = Racute;
layers = (
{
layerId = "CEEBABA5-0094-4467-BB67-138482C8FCD7";
paths = (
{
nodes = (
"346 740 LINE",
"260 774 LINE",
"321 944 LINE",
"443 885 LINE"
);
},
{
nodes = (
"608 180 OFFCURVE",
"691 0 QCURVE",
"621 0 LINE",
"465 347 LINE",
"465 0 LINE",
"48 0 LINE",
"48 695 LINE",
"465 695 LINE SMOOTH",
"501 695 OFFCURVE",
"565 668 OFFCURVE",
"612 620 OFFCURVE",
"639 556 OFFCURVE",
"639 520 QCURVE SMOOTH",
"639 457 OFFCURVE",
"589 383 OFFCURVE",
"529 360 QCURVE"
);
},
{
nodes = (
"569 566 OFFCURVE",
"510 625 OFFCURVE",
"465 625 QCURVE",
"465 417 LINE",
"510 417 OFFCURVE",
"569 476 OFFCURVE",
"569 521 QCURVE SMOOTH"
);
}
);
width = 704;
}
);
unicode = 0154;
},
{
glyphname = racute;
layers = (
{
layerId = "CEEBABA5-0094-4467-BB67-138482C8FCD7";
paths = (
{
nodes = (
"346 740 LINE",
"260 774 LINE",
"321 944 LINE",
"443 885 LINE"
);
},
{
nodes = (
"608 180 OFFCURVE",
"691 0 QCURVE",
"621 0 LINE",
"465 347 LINE",
"465 0 LINE",
"48 0 LINE",
"48 695 LINE",
"465 695 LINE SMOOTH",
"501 695 OFFCURVE",
"565 668 OFFCURVE",
"612 620 OFFCURVE",
"639 556 OFFCURVE",
"639 520 QCURVE SMOOTH",
"639 457 OFFCURVE",
"589 383 OFFCURVE",
"529 360 QCURVE"
);
},
{
nodes = (
"569 566 OFFCURVE",
"510 625 OFFCURVE",
"465 625 QCURVE",
"465 417 LINE",
"510 417 OFFCURVE",
"569 476 OFFCURVE",
"569 521 QCURVE SMOOTH"
);
}
);
width = 704;
}
);
unicode = 0155;
},
{
glyphname = Rcaron;
layers = (
{
layerId = "CEEBABA5-0094-4467-BB67-138482C8FCD7";
paths = (
{
nodes = (
"440 957 LINE",
"526 923 LINE",
"457 749 LINE",
"246 749 LINE",
"177 923 LINE",
"263 957 LINE",
"351 826 LINE"
);
},
{
nodes = (
"608 180 OFFCURVE",
"691 0 QCURVE",
"621 0 LINE",
"465 347 LINE",
"465 0 LINE",
"48 0 LINE",
"48 695 LINE",
"465 695 LINE SMOOTH",
"501 695 OFFCURVE",
"565 668 OFFCURVE",
"612 620 OFFCURVE",
"639 556 OFFCURVE",
"639 520 QCURVE SMOOTH",
"639 457 OFFCURVE",
"589 383 OFFCURVE",
"529 360 QCURVE"
);
},
{
nodes = (
"569 566 OFFCURVE",
"510 625 OFFCURVE",
"465 625 QCURVE",
"465 417 LINE",
"510 417 OFFCURVE",
"569 476 OFFCURVE",
"569 521 QCURVE SMOOTH"
);
}
);
width = 704;
}
);
unicode = 0158;
},
{
glyphname = rcaron;
layers = (
{
layerId = "CEEBABA5-0094-4467-BB67-138482C8FCD7";
paths = (
{
nodes = (
"440 957 LINE",
"526 923 LINE",
"457 749 LINE",
"246 749 LINE",
"177 923 LINE",
"263 957 LINE",
"351 826 LINE"
);
},
{
nodes = (
"608 180 OFFCURVE",
"691 0 QCURVE",
"621 0 LINE",
"465 347 LINE",
"465 0 LINE",
"48 0 LINE",
"48 695 LINE",
"465 695 LINE SMOOTH",
"501 695 OFFCURVE",
"565 668 OFFCURVE",
"612 620 OFFCURVE",
"639 556 OFFCURVE",
"639 520 QCURVE SMOOTH",
"639 457 OFFCURVE",
"589 383 OFFCURVE",
"529 360 QCURVE"
);
},
{
nodes = (
"569 566 OFFCURVE",
"510 625 OFFCURVE",
"465 625 QCURVE",
"465 417 LINE",
"510 417 OFFCURVE",
"569 476 OFFCURVE",
"569 521 QCURVE SMOOTH"
);
}
);
width = 704;
}
);
unicode = 0159;
},
{
glyphname = Sacute;
layers = (
{
layerId = "CEEBABA5-0094-4467-BB67-138482C8FCD7";
paths = (
{
nodes = (
"354 740 LINE",
"268 774 LINE",
"329 944 LINE",
"451 885 LINE"
);
},
{
nodes = (
"252 0 LINE SMOOTH",
"209 0 OFFCURVE",
"133 33 OFFCURVE",
"77 89 OFFCURVE",
"44 165 OFFCURVE",
"44 208 QCURVE SMOOTH",
"44 278 LINE",
"461 278 LINE",
"461 69 LINE",
"490 69 OFFCURVE",
"541 91 OFFCURVE",
"578 128 OFFCURVE",
"600 179 OFFCURVE",
"600 208 QCURVE SMOOTH",
"600 237 OFFCURVE",
"578 288 OFFCURVE",
"541 325 OFFCURVE",
"490 347 OFFCURVE",
"461 347 QCURVE SMOOTH",
"218 347 LINE SMOOTH",
"182 347 OFFCURVE",
"119 374 OFFCURVE",
"71 422 OFFCURVE",
"44 485 OFFCURVE",
"44 521 QCURVE SMOOTH",
"44 557 OFFCURVE",
"71 620 OFFCURVE",
"119 668 OFFCURVE",
"182 695 OFFCURVE",
"218 695 QCURVE SMOOTH",
"461 695 LINE SMOOTH",
"504 695 OFFCURVE",
"580 662 OFFCURVE",
"637 605 OFFCURVE",
"670 529 OFFCURVE",
"670 486 QCURVE",
"600 486 LINE",
"600 515 OFFCURVE",
"578 566 OFFCURVE",
"541 603 OFFCURVE",
"490 625 OFFCURVE",
"461 625 QCURVE",
"461 417 LINE",
"504 417 OFFCURVE",
"579 385 OFFCURVE",
"636 329 OFFCURVE",
"669 254 OFFCURVE",
"669 211 QCURVE SMOOTH",
"669 168 OFFCURVE",
"637 92 OFFCURVE",
"580 34 OFFCURVE",
"504 0 OFFCURVE",
"461 0 QCURVE SMOOTH"
);
}
);
width = 719;
}
);
unicode = 015A;
},
{
glyphname = sacute;
layers = (
{
layerId = "CEEBABA5-0094-4467-BB67-138482C8FCD7";
paths = (
{
nodes = (
"354 740 LINE",
"268 774 LINE",
"329 944 LINE",
"451 885 LINE"
);
},
{
nodes = (
"252 0 LINE SMOOTH",
"209 0 OFFCURVE",
"133 33 OFFCURVE",
"77 89 OFFCURVE",
"44 165 OFFCURVE",
"44 208 QCURVE SMOOTH",
"44 278 LINE",
"461 278 LINE",
"461 69 LINE",
"490 69 OFFCURVE",
"541 91 OFFCURVE",
"578 128 OFFCURVE",
"600 179 OFFCURVE",
"600 208 QCURVE SMOOTH",
"600 237 OFFCURVE",
"578 288 OFFCURVE",
"541 325 OFFCURVE",
"490 347 OFFCURVE",
"461 347 QCURVE SMOOTH",
"218 347 LINE SMOOTH",
"182 347 OFFCURVE",
"119 374 OFFCURVE",
"71 422 OFFCURVE",
"44 485 OFFCURVE",
"44 521 QCURVE SMOOTH",
"44 557 OFFCURVE",
"71 620 OFFCURVE",
"119 668 OFFCURVE",
"182 695 OFFCURVE",
"218 695 QCURVE SMOOTH",
"461 695 LINE SMOOTH",
"504 695 OFFCURVE",
"580 662 OFFCURVE",
"637 605 OFFCURVE",
"670 529 OFFCURVE",
"670 486 QCURVE",
"600 486 LINE",
"600 515 OFFCURVE",
"578 566 OFFCURVE",
"541 603 OFFCURVE",
"490 625 OFFCURVE",
"461 625 QCURVE",
"461 417 LINE",
"504 417 OFFCURVE",
"579 385 OFFCURVE",
"636 329 OFFCURVE",
"669 254 OFFCURVE",
"669 211 QCURVE SMOOTH",
"669 168 OFFCURVE",
"637 92 OFFCURVE",
"580 34 OFFCURVE",
"504 0 OFFCURVE",
"461 0 QCURVE SMOOTH"
);
}
);
width = 719;
}
);
unicode = 015B;
},
{
glyphname = Scedilla;
layers = (
{
layerId = "CEEBABA5-0094-4467-BB67-138482C8FCD7";
paths = (
{
nodes = (
"252 0 LINE SMOOTH",
"209 0 OFFCURVE",
"133 33 OFFCURVE",
"77 89 OFFCURVE",
"44 165 OFFCURVE",
"44 208 QCURVE SMOOTH",
"44 278 LINE",
"461 278 LINE",
"461 69 LINE",
"490 69 OFFCURVE",
"541 91 OFFCURVE",
"578 128 OFFCURVE",
"600 179 OFFCURVE",
"600 208 QCURVE SMOOTH",
"600 237 OFFCURVE",
"578 288 OFFCURVE",
"541 325 OFFCURVE",
"490 347 OFFCURVE",
"461 347 QCURVE SMOOTH",
"218 347 LINE SMOOTH",
"182 347 OFFCURVE",
"119 374 OFFCURVE",
"71 422 OFFCURVE",
"44 485 OFFCURVE",
"44 521 QCURVE SMOOTH",
"44 557 OFFCURVE",
"71 620 OFFCURVE",
"119 668 OFFCURVE",
"182 695 OFFCURVE",
"218 695 QCURVE SMOOTH",
"461 695 LINE SMOOTH",
"504 695 OFFCURVE",
"580 662 OFFCURVE",
"637 605 OFFCURVE",
"670 529 OFFCURVE",
"670 486 QCURVE",
"600 486 LINE",
"600 515 OFFCURVE",
"578 566 OFFCURVE",
"541 603 OFFCURVE",
"490 625 OFFCURVE",
"461 625 QCURVE",
"461 417 LINE",
"504 417 OFFCURVE",
"579 385 OFFCURVE",
"636 329 OFFCURVE",
"669 254 OFFCURVE",
"669 211 QCURVE SMOOTH",
"669 168 OFFCURVE",
"637 92 OFFCURVE",
"580 34 OFFCURVE",
"504 0 OFFCURVE",
"461 0 QCURVE SMOOTH"
);
},
{
nodes = (
"276 -44 LINE",
"384 -44 LINE",
"384 -135 LINE",
"276 -202 LINE"
);
}
);
width = 719;
}
);
unicode = 015E;
},
{
glyphname = scedilla;
layers = (
{
layerId = "CEEBABA5-0094-4467-BB67-138482C8FCD7";
paths = (
{
nodes = (
"252 0 LINE SMOOTH",
"209 0 OFFCURVE",
"133 33 OFFCURVE",
"77 89 OFFCURVE",
"44 165 OFFCURVE",
"44 208 QCURVE SMOOTH",
"44 278 LINE",
"461 278 LINE",
"461 69 LINE",
"490 69 OFFCURVE",
"541 91 OFFCURVE",
"578 128 OFFCURVE",
"600 179 OFFCURVE",
"600 208 QCURVE SMOOTH",
"600 237 OFFCURVE",
"578 288 OFFCURVE",
"541 325 OFFCURVE",
"490 347 OFFCURVE",
"461 347 QCURVE SMOOTH",
"218 347 LINE SMOOTH",
"182 347 OFFCURVE",
"119 374 OFFCURVE",
"71 422 OFFCURVE",
"44 485 OFFCURVE",
"44 521 QCURVE SMOOTH",
"44 557 OFFCURVE",
"71 620 OFFCURVE",
"119 668 OFFCURVE",
"182 695 OFFCURVE",
"218 695 QCURVE SMOOTH",
"461 695 LINE SMOOTH",
"504 695 OFFCURVE",
"580 662 OFFCURVE",
"637 605 OFFCURVE",
"670 529 OFFCURVE",
"670 486 QCURVE",
"600 486 LINE",
"600 515 OFFCURVE",
"578 566 OFFCURVE",
"541 603 OFFCURVE",
"490 625 OFFCURVE",
"461 625 QCURVE",
"461 417 LINE",
"504 417 OFFCURVE",
"579 385 OFFCURVE",
"636 329 OFFCURVE",
"669 254 OFFCURVE",
"669 211 QCURVE SMOOTH",
"669 168 OFFCURVE",
"637 92 OFFCURVE",
"580 34 OFFCURVE",
"504 0 OFFCURVE",
"461 0 QCURVE SMOOTH"
);
},
{
nodes = (
"276 -44 LINE",
"384 -44 LINE",
"384 -135 LINE",
"276 -202 LINE"
);
}
);
width = 719;
}
);
unicode = 015F;
},
{
glyphname = Scaron;
layers = (
{
layerId = "CEEBABA5-0094-4467-BB67-138482C8FCD7";
paths = (
{
nodes = (
"448 957 LINE",
"534 923 LINE",
"465 749 LINE",
"254 749 LINE",
"185 923 LINE",
"271 957 LINE",
"359 826 LINE"
);
},
{
nodes = (
"252 0 LINE SMOOTH",
"209 0 OFFCURVE",
"133 33 OFFCURVE",
"77 89 OFFCURVE",
"44 165 OFFCURVE",
"44 208 QCURVE SMOOTH",
"44 278 LINE",
"461 278 LINE",
"461 69 LINE",
"490 69 OFFCURVE",
"541 91 OFFCURVE",
"578 128 OFFCURVE",
"600 179 OFFCURVE",
"600 208 QCURVE SMOOTH",
"600 237 OFFCURVE",
"578 288 OFFCURVE",
"541 325 OFFCURVE",
"490 347 OFFCURVE",
"461 347 QCURVE SMOOTH",
"218 347 LINE SMOOTH",
"182 347 OFFCURVE",
"119 374 OFFCURVE",
"71 422 OFFCURVE",
"44 485 OFFCURVE",
"44 521 QCURVE SMOOTH",
"44 557 OFFCURVE",
"71 620 OFFCURVE",
"119 668 OFFCURVE",
"182 695 OFFCURVE",
"218 695 QCURVE SMOOTH",
"461 695 LINE SMOOTH",
"504 695 OFFCURVE",
"580 662 OFFCURVE",
"637 605 OFFCURVE",
"670 529 OFFCURVE",
"670 486 QCURVE",
"600 486 LINE",
"600 515 OFFCURVE",
"578 566 OFFCURVE",
"541 603 OFFCURVE",
"490 625 OFFCURVE",
"461 625 QCURVE",
"461 417 LINE",
"504 417 OFFCURVE",
"579 385 OFFCURVE",
"636 329 OFFCURVE",
"669 254 OFFCURVE",
"669 211 QCURVE SMOOTH",
"669 168 OFFCURVE",
"637 92 OFFCURVE",
"580 34 OFFCURVE",
"504 0 OFFCURVE",
"461 0 QCURVE SMOOTH"
);
}
);
width = 719;
}
);
unicode = 0160;
},
{
glyphname = scaron;
layers = (
{
layerId = "CEEBABA5-0094-4467-BB67-138482C8FCD7";
paths = (
{
nodes = (
"448 957 LINE",
"534 923 LINE",
"465 749 LINE",
"254 749 LINE",
"185 923 LINE",
"271 957 LINE",
"359 826 LINE"
);
},
{
nodes = (
"252 0 LINE SMOOTH",
"209 0 OFFCURVE",
"133 33 OFFCURVE",
"77 89 OFFCURVE",
"44 165 OFFCURVE",
"44 208 QCURVE SMOOTH",
"44 278 LINE",
"461 278 LINE",
"461 69 LINE",
"490 69 OFFCURVE",
"541 91 OFFCURVE",
"578 128 OFFCURVE",
"600 179 OFFCURVE",
"600 208 QCURVE SMOOTH",
"600 237 OFFCURVE",
"578 288 OFFCURVE",
"541 325 OFFCURVE",
"490 347 OFFCURVE",
"461 347 QCURVE SMOOTH",
"218 347 LINE SMOOTH",
"182 347 OFFCURVE",
"119 374 OFFCURVE",
"71 422 OFFCURVE",
"44 485 OFFCURVE",
"44 521 QCURVE SMOOTH",
"44 557 OFFCURVE",
"71 620 OFFCURVE",
"119 668 OFFCURVE",
"182 695 OFFCURVE",
"218 695 QCURVE SMOOTH",
"461 695 LINE SMOOTH",
"504 695 OFFCURVE",
"580 662 OFFCURVE",
"637 605 OFFCURVE",
"670 529 OFFCURVE",
"670 486 QCURVE",
"600 486 LINE",
"600 515 OFFCURVE",
"578 566 OFFCURVE",
"541 603 OFFCURVE",
"490 625 OFFCURVE",
"461 625 QCURVE",
"461 417 LINE",
"504 417 OFFCURVE",
"579 385 OFFCURVE",
"636 329 OFFCURVE",
"669 254 OFFCURVE",
"669 211 QCURVE SMOOTH",
"669 168 OFFCURVE",
"637 92 OFFCURVE",
"580 34 OFFCURVE",
"504 0 OFFCURVE",
"461 0 QCURVE SMOOTH"
);
}
);
width = 719;
}
);
unicode = 0161;
},
{
glyphname = uni0162;
layers = (
{
layerId = "CEEBABA5-0094-4467-BB67-138482C8FCD7";
paths = (
{
nodes = (
"82 -56 LINE",
"190 -56 LINE",
"190 -147 LINE",
"82 -214 LINE"
);
}
);
width = 267;
}
);
unicode = 0162;
},
{
glyphname = uni0163;
layers = (
{
layerId = "CEEBABA5-0094-4467-BB67-138482C8FCD7";
paths = (
{
nodes = (
"82 -56 LINE",
"190 -56 LINE",
"190 -147 LINE",
"82 -214 LINE"
);
}
);
width = 267;
}
);
unicode = 0163;
},
{
glyphname = Tcaron;
layers = (
{
layerId = "CEEBABA5-0094-4467-BB67-138482C8FCD7";
paths = (
{
nodes = (
"438 957 LINE",
"524 923 LINE",
"455 749 LINE",
"244 749 LINE",
"175 923 LINE",
"261 957 LINE",
"349 826 LINE"
);
},
{
nodes = (
"715 695 LINE",
"715 625 LINE",
"575 625 LINE",
"575 0 LINE",
"161 0 LINE",
"160 625 LINE",
"20 625 LINE",
"20 695 LINE"
);
}
);
width = 732;
}
);
unicode = 0164;
},
{
glyphname = tcaron;
layers = (
{
layerId = "CEEBABA5-0094-4467-BB67-138482C8FCD7";
paths = (
{
nodes = (
"647 555 LINE",
"755 555 LINE",
"755 464 LINE",
"647 397 LINE"
);
},
{
nodes = (
"715 695 LINE",
"715 625 LINE",
"575 625 LINE",
"575 0 LINE",
"161 0 LINE",
"160 625 LINE",
"20 625 LINE",
"20 695 LINE"
);
}
);
width = 776;
}
);
unicode = 0165;
},
{
glyphname = Umacron;
layers = (
{
layerId = "CEEBABA5-0094-4467-BB67-138482C8FCD7";
paths = (
{
nodes = (
"156 856 LINE",
"557 856 LINE",
"557 745 LINE",
"156 745 LINE"
);
},
{
nodes = (
"672 281 OFFCURVE",
"673 249 OFFCURVE",
"673 244 QCURVE SMOOTH",
"673 233 OFFCURVE",
"672 212 OFFCURVE",
"671 201 QCURVE SMOOTH",
"669 159 OFFCURVE",
"635 86 OFFCURVE",
"579 31 OFFCURVE",
"504 0 OFFCURVE",
"462 0 QCURVE SMOOTH",
"254 0 LINE SMOOTH",
"211 0 OFFCURVE",
"135 33 OFFCURVE",
"78 89 OFFCURVE",
"45 165 OFFCURVE",
"45 208 QCURVE SMOOTH",
"45 695 LINE",
"462 695 LINE",
"462 69 LINE",
"500 69 OFFCURVE",
"554 96 OFFCURVE",
"576 128 QCURVE SMOOTH",
"597 159 OFFCURVE",
"601 220 OFFCURVE",
"601 255 QCURVE SMOOTH",
"601 695 LINE",
"671 695 LINE",
"671 598 OFFCURVE",
"672 405 OFFCURVE",
"672 308 QCURVE SMOOTH"
);
}
);
width = 714;
}
);
unicode = 016A;
},
{
glyphname = umacron;
layers = (
{
layerId = "CEEBABA5-0094-4467-BB67-138482C8FCD7";
paths = (
{
nodes = (
"156 856 LINE",
"557 856 LINE",
"557 745 LINE",
"156 745 LINE"
);
},
{
nodes = (
"672 281 OFFCURVE",
"673 249 OFFCURVE",
"673 244 QCURVE SMOOTH",
"673 233 OFFCURVE",
"672 212 OFFCURVE",
"671 201 QCURVE SMOOTH",
"669 159 OFFCURVE",
"635 86 OFFCURVE",
"579 31 OFFCURVE",
"504 0 OFFCURVE",
"462 0 QCURVE SMOOTH",
"254 0 LINE SMOOTH",
"211 0 OFFCURVE",
"135 33 OFFCURVE",
"78 89 OFFCURVE",
"45 165 OFFCURVE",
"45 208 QCURVE SMOOTH",
"45 695 LINE",
"462 695 LINE",
"462 69 LINE",
"500 69 OFFCURVE",
"554 96 OFFCURVE",
"576 128 QCURVE SMOOTH",
"597 159 OFFCURVE",
"601 220 OFFCURVE",
"601 255 QCURVE SMOOTH",
"601 695 LINE",
"671 695 LINE",
"671 598 OFFCURVE",
"672 405 OFFCURVE",
"672 308 QCURVE SMOOTH"
);
}
);
width = 714;
}
);
unicode = 016B;
},
{
glyphname = Uring;
layers = (
{
layerId = "CEEBABA5-0094-4467-BB67-138482C8FCD7";
paths = (
{
nodes = (
"336 740 OFFCURVE",
"298 756 OFFCURVE",
"270 785 OFFCURVE",
"254 822 OFFCURVE",
"254 843 QCURVE SMOOTH",
"254 886 OFFCURVE",
"314 944 OFFCURVE",
"357 944 QCURVE SMOOTH",
"378 944 OFFCURVE",
"415 928 OFFCURVE",
"443 901 OFFCURVE",
"460 864 OFFCURVE",
"460 843 QCURVE SMOOTH",
"460 822 OFFCURVE",
"443 785 OFFCURVE",
"415 756 OFFCURVE",
"378 740 OFFCURVE",
"357 740 QCURVE SMOOTH"
);
},
{
nodes = (
"338 890 OFFCURVE",
"311 864 OFFCURVE",
"311 844 QCURVE SMOOTH",
"311 827 OFFCURVE",
"338 798 OFFCURVE",
"360 798 QCURVE SMOOTH",
"380 798 OFFCURVE",
"408 827 OFFCURVE",
"408 844 QCURVE SMOOTH",
"408 864 OFFCURVE",
"380 890 OFFCURVE",
"360 890 QCURVE SMOOTH"
);
},
{
nodes = (
"672 281 OFFCURVE",
"673 249 OFFCURVE",
"673 244 QCURVE SMOOTH",
"673 233 OFFCURVE",
"672 212 OFFCURVE",
"671 201 QCURVE SMOOTH",
"669 159 OFFCURVE",
"635 86 OFFCURVE",
"579 31 OFFCURVE",
"504 0 OFFCURVE",
"462 0 QCURVE SMOOTH",
"254 0 LINE SMOOTH",
"211 0 OFFCURVE",
"135 33 OFFCURVE",
"78 89 OFFCURVE",
"45 165 OFFCURVE",
"45 208 QCURVE SMOOTH",
"45 695 LINE",
"462 695 LINE",
"462 69 LINE",
"500 69 OFFCURVE",
"554 96 OFFCURVE",
"576 128 QCURVE SMOOTH",
"597 159 OFFCURVE",
"601 220 OFFCURVE",
"601 255 QCURVE SMOOTH",
"601 695 LINE",
"671 695 LINE",
"671 598 OFFCURVE",
"672 405 OFFCURVE",
"672 308 QCURVE SMOOTH"
);
}
);
width = 714;
}
);
unicode = 016E;
},
{
glyphname = uring;
layers = (
{
layerId = "CEEBABA5-0094-4467-BB67-138482C8FCD7";
paths = (
{
nodes = (
"336 740 OFFCURVE",
"298 756 OFFCURVE",
"270 785 OFFCURVE",
"254 822 OFFCURVE",
"254 843 QCURVE SMOOTH",
"254 886 OFFCURVE",
"314 944 OFFCURVE",
"357 944 QCURVE SMOOTH",
"378 944 OFFCURVE",
"415 928 OFFCURVE",
"443 901 OFFCURVE",
"460 864 OFFCURVE",
"460 843 QCURVE SMOOTH",
"460 822 OFFCURVE",
"443 785 OFFCURVE",
"415 756 OFFCURVE",
"378 740 OFFCURVE",
"357 740 QCURVE SMOOTH"
);
},
{
nodes = (
"338 890 OFFCURVE",
"311 864 OFFCURVE",
"311 844 QCURVE SMOOTH",
"311 827 OFFCURVE",
"338 798 OFFCURVE",
"360 798 QCURVE SMOOTH",
"380 798 OFFCURVE",
"408 827 OFFCURVE",
"408 844 QCURVE SMOOTH",
"408 864 OFFCURVE",
"380 890 OFFCURVE",
"360 890 QCURVE SMOOTH"
);
},
{
nodes = (
"672 281 OFFCURVE",
"673 249 OFFCURVE",
"673 244 QCURVE SMOOTH",
"673 233 OFFCURVE",
"672 212 OFFCURVE",
"671 201 QCURVE SMOOTH",
"669 159 OFFCURVE",
"635 86 OFFCURVE",
"579 31 OFFCURVE",
"504 0 OFFCURVE",
"462 0 QCURVE SMOOTH",
"254 0 LINE SMOOTH",
"211 0 OFFCURVE",
"135 33 OFFCURVE",
"78 89 OFFCURVE",
"45 165 OFFCURVE",
"45 208 QCURVE SMOOTH",
"45 695 LINE",
"462 695 LINE",
"462 69 LINE",
"500 69 OFFCURVE",
"554 96 OFFCURVE",
"576 128 QCURVE SMOOTH",
"597 159 OFFCURVE",
"601 220 OFFCURVE",
"601 255 QCURVE SMOOTH",
"601 695 LINE",
"671 695 LINE",
"671 598 OFFCURVE",
"672 405 OFFCURVE",
"672 308 QCURVE SMOOTH"
);
}
);
width = 714;
}
);
unicode = 016F;
},
{
glyphname = Uhungarumlaut;
layers = (
{
layerId = "CEEBABA5-0094-4467-BB67-138482C8FCD7";
paths = (
{
nodes = (
"215 740 LINE",
"129 774 LINE",
"190 944 LINE",
"312 885 LINE"
);
},
{
nodes = (
"488 740 LINE",
"402 774 LINE",
"463 944 LINE",
"585 885 LINE"
);
},
{
nodes = (
"672 281 OFFCURVE",
"673 249 OFFCURVE",
"673 244 QCURVE SMOOTH",
"673 233 OFFCURVE",
"672 212 OFFCURVE",
"671 201 QCURVE SMOOTH",
"669 159 OFFCURVE",
"635 86 OFFCURVE",
"579 31 OFFCURVE",
"504 0 OFFCURVE",
"462 0 QCURVE SMOOTH",
"254 0 LINE SMOOTH",
"211 0 OFFCURVE",
"135 33 OFFCURVE",
"78 89 OFFCURVE",
"45 165 OFFCURVE",
"45 208 QCURVE SMOOTH",
"45 695 LINE",
"462 695 LINE",
"462 69 LINE",
"500 69 OFFCURVE",
"554 96 OFFCURVE",
"576 128 QCURVE SMOOTH",
"597 159 OFFCURVE",
"601 220 OFFCURVE",
"601 255 QCURVE SMOOTH",
"601 695 LINE",
"671 695 LINE",
"671 598 OFFCURVE",
"672 405 OFFCURVE",
"672 308 QCURVE SMOOTH"
);
}
);
width = 714;
}
);
unicode = 0170;
},
{
glyphname = uhungarumlaut;
layers = (
{
layerId = "CEEBABA5-0094-4467-BB67-138482C8FCD7";
paths = (
{
nodes = (
"215 740 LINE",
"129 774 LINE",
"190 944 LINE",
"312 885 LINE"
);
},
{
nodes = (
"488 740 LINE",
"402 774 LINE",
"463 944 LINE",
"585 885 LINE"
);
},
{
nodes = (
"672 281 OFFCURVE",
"673 249 OFFCURVE",
"673 244 QCURVE SMOOTH",
"673 233 OFFCURVE",
"672 212 OFFCURVE",
"671 201 QCURVE SMOOTH",
"669 159 OFFCURVE",
"635 86 OFFCURVE",
"579 31 OFFCURVE",
"504 0 OFFCURVE",
"462 0 QCURVE SMOOTH",
"254 0 LINE SMOOTH",
"211 0 OFFCURVE",
"135 33 OFFCURVE",
"78 89 OFFCURVE",
"45 165 OFFCURVE",
"45 208 QCURVE SMOOTH",
"45 695 LINE",
"462 695 LINE",
"462 69 LINE",
"500 69 OFFCURVE",
"554 96 OFFCURVE",
"576 128 QCURVE SMOOTH",
"597 159 OFFCURVE",
"601 220 OFFCURVE",
"601 255 QCURVE SMOOTH",
"601 695 LINE",
"671 695 LINE",
"671 598 OFFCURVE",
"672 405 OFFCURVE",
"672 308 QCURVE SMOOTH"
);
}
);
width = 714;
}
);
unicode = 0171;
},
{
glyphname = Uogonek;
layers = (
{
layerId = "CEEBABA5-0094-4467-BB67-138482C8FCD7";
paths = (
{
nodes = (
"672 281 OFFCURVE",
"673 249 OFFCURVE",
"673 244 QCURVE SMOOTH",
"673 233 OFFCURVE",
"672 212 OFFCURVE",
"671 201 QCURVE SMOOTH",
"669 159 OFFCURVE",
"635 86 OFFCURVE",
"579 31 OFFCURVE",
"504 0 OFFCURVE",
"462 0 QCURVE SMOOTH",
"425 0 LINE",
"425 -106 LINE",
"318 -106 LINE",
"318 -135 OFFCURVE",
"319 -198 OFFCURVE",
"319 -227 QCURVE",
"389 -227 LINE SMOOTH",
"409 -227 OFFCURVE",
"437 -193 OFFCURVE",
"437 -170 QCURVE",
"483 -170 LINE",
"483 -191 OFFCURVE",
"468 -228 OFFCURVE",
"442 -255 OFFCURVE",
"408 -270 OFFCURVE",
"389 -270 QCURVE SMOOTH",
"288 -270 LINE SMOOTH",
"254 -270 OFFCURVE",
"208 -226 OFFCURVE",
"208 -192 QCURVE SMOOTH",
"208 -150 LINE SMOOTH",
"208 -117 OFFCURVE",
"254 -71 OFFCURVE",
"288 -71 QCURVE SMOOTH",
"331 -71 LINE",
"331 0 LINE",
"254 0 LINE SMOOTH",
"211 0 OFFCURVE",
"135 33 OFFCURVE",
"78 89 OFFCURVE",
"45 165 OFFCURVE",
"45 208 QCURVE SMOOTH",
"45 695 LINE",
"462 695 LINE",
"462 69 LINE",
"500 69 OFFCURVE",
"554 96 OFFCURVE",
"576 128 QCURVE SMOOTH",
"597 159 OFFCURVE",
"601 220 OFFCURVE",
"601 255 QCURVE SMOOTH",
"601 695 LINE",
"671 695 LINE",
"671 598 OFFCURVE",
"672 405 OFFCURVE",
"672 308 QCURVE SMOOTH"
);
}
);
width = 714;
}
);
unicode = 0172;
},
{
glyphname = uogonek;
layers = (
{
layerId = "CEEBABA5-0094-4467-BB67-138482C8FCD7";
paths = (
{
nodes = (
"672 281 OFFCURVE",
"673 249 OFFCURVE",
"673 244 QCURVE SMOOTH",
"673 233 OFFCURVE",
"672 212 OFFCURVE",
"671 201 QCURVE SMOOTH",
"669 159 OFFCURVE",
"635 86 OFFCURVE",
"579 31 OFFCURVE",
"504 0 OFFCURVE",
"462 0 QCURVE SMOOTH",
"425 0 LINE",
"425 -106 LINE",
"318 -106 LINE",
"318 -135 OFFCURVE",
"319 -198 OFFCURVE",
"319 -227 QCURVE",
"389 -227 LINE SMOOTH",
"409 -227 OFFCURVE",
"437 -193 OFFCURVE",
"437 -170 QCURVE",
"483 -170 LINE",
"483 -191 OFFCURVE",
"468 -228 OFFCURVE",
"442 -255 OFFCURVE",
"408 -270 OFFCURVE",
"389 -270 QCURVE SMOOTH",
"288 -270 LINE SMOOTH",
"254 -270 OFFCURVE",
"208 -226 OFFCURVE",
"208 -192 QCURVE SMOOTH",
"208 -150 LINE SMOOTH",
"208 -117 OFFCURVE",
"254 -71 OFFCURVE",
"288 -71 QCURVE SMOOTH",
"331 -71 LINE",
"331 0 LINE",
"254 0 LINE SMOOTH",
"211 0 OFFCURVE",
"135 33 OFFCURVE",
"78 89 OFFCURVE",
"45 165 OFFCURVE",
"45 208 QCURVE SMOOTH",
"45 695 LINE",
"462 695 LINE",
"462 69 LINE",
"500 69 OFFCURVE",
"554 96 OFFCURVE",
"576 128 QCURVE SMOOTH",
"597 159 OFFCURVE",
"601 220 OFFCURVE",
"601 255 QCURVE SMOOTH",
"601 695 LINE",
"671 695 LINE",
"671 598 OFFCURVE",
"672 405 OFFCURVE",
"672 308 QCURVE SMOOTH"
);
}
);
width = 714;
}
);
unicode = 0173;
},
{
glyphname = Wcircumflex;
layers = (
{
layerId = "CEEBABA5-0094-4467-BB67-138482C8FCD7";
paths = (
{
nodes = (
"931 542 LINE",
"990 695 LINE",
"1065 695 LINE",
"802 0 LINE",
"734 0 LINE",
"537 481 LINE",
"346 0 LINE",
"285 0 LINE",
"20 695 LINE",
"423 695 LINE",
"484 536 LINE",
"549 695 LINE",
"873 695 LINE"
);
},
{
nodes = (
"579 888 LINE",
"701 947 LINE",
"762 777 LINE",
"676 743 LINE"
);
},
{
nodes = (
"422 743 LINE",
"336 777 LINE",
"397 947 LINE",
"519 888 LINE"
);
}
);
width = 1098;
}
);
unicode = 0174;
},
{
glyphname = wcircumflex;
layers = (
{
layerId = "CEEBABA5-0094-4467-BB67-138482C8FCD7";
paths = (
{
nodes = (
"931 542 LINE",
"990 695 LINE",
"1065 695 LINE",
"802 0 LINE",
"734 0 LINE",
"537 481 LINE",
"346 0 LINE",
"285 0 LINE",
"20 695 LINE",
"423 695 LINE",
"484 536 LINE",
"549 695 LINE",
"873 695 LINE"
);
},
{
nodes = (
"579 888 LINE",
"701 947 LINE",
"762 777 LINE",
"676 743 LINE"
);
},
{
nodes = (
"422 743 LINE",
"336 777 LINE",
"397 947 LINE",
"519 888 LINE"
);
}
);
width = 1098;
}
);
unicode = 0175;
},
{
glyphname = Ycircumflex;
layers = (
{
layerId = "CEEBABA5-0094-4467-BB67-138482C8FCD7";
paths = (
{
nodes = (
"340 695 LINE",
"757 695 LINE",
"444 0 LINE",
"27 0 LINE",
"221 430 LINE",
"101 695 LINE",
"188 695 LINE",
"264 526 LINE"
);
},
{
nodes = (
"421 888 LINE",
"543 947 LINE",
"604 777 LINE",
"518 743 LINE"
);
},
{
nodes = (
"264 743 LINE",
"178 777 LINE",
"239 947 LINE",
"361 888 LINE"
);
}
);
width = 782;
}
);
unicode = 0176;
},
{
glyphname = ycircumflex;
layers = (
{
layerId = "CEEBABA5-0094-4467-BB67-138482C8FCD7";
paths = (
{
nodes = (
"340 695 LINE",
"757 695 LINE",
"444 0 LINE",
"27 0 LINE",
"221 430 LINE",
"101 695 LINE",
"188 695 LINE",
"264 526 LINE"
);
},
{
nodes = (
"421 888 LINE",
"543 947 LINE",
"604 777 LINE",
"518 743 LINE"
);
},
{
nodes = (
"264 743 LINE",
"178 777 LINE",
"239 947 LINE",
"361 888 LINE"
);
}
);
width = 782;
}
);
unicode = 0177;
},
{
glyphname = Ydieresis;
layers = (
{
layerId = "CEEBABA5-0094-4467-BB67-138482C8FCD7";
paths = (
{
nodes = (
"174 858 OFFCURVE",
"220 905 OFFCURVE",
"254 905 QCURVE SMOOTH",
"288 905 OFFCURVE",
"335 858 OFFCURVE",
"335 824 QCURVE SMOOTH",
"335 790 OFFCURVE",
"288 744 OFFCURVE",
"254 744 QCURVE SMOOTH",
"220 744 OFFCURVE",
"174 790 OFFCURVE",
"174 824 QCURVE SMOOTH"
);
},
{
nodes = (
"447 858 OFFCURVE",
"493 905 OFFCURVE",
"527 905 QCURVE SMOOTH",
"561 905 OFFCURVE",
"608 858 OFFCURVE",
"608 824 QCURVE SMOOTH",
"608 790 OFFCURVE",
"561 744 OFFCURVE",
"527 744 QCURVE SMOOTH",
"493 744 OFFCURVE",
"447 790 OFFCURVE",
"447 824 QCURVE SMOOTH"
);
},
{
nodes = (
"340 695 LINE",
"757 695 LINE",
"444 0 LINE",
"27 0 LINE",
"221 430 LINE",
"101 695 LINE",
"188 695 LINE",
"264 526 LINE"
);
}
);
width = 782;
}
);
unicode = 0178;
},
{
glyphname = Zacute;
layers = (
{
layerId = "CEEBABA5-0094-4467-BB67-138482C8FCD7";
paths = (
{
nodes = (
"722 626 LINE",
"444 70 LINE",
"722 70 LINE",
"722 0 LINE",
"27 0 LINE",
"27 70 LINE",
"305 626 LINE",
"27 626 LINE",
"27 695 LINE",
"722 695 LINE"
);
},
{
nodes = (
"368 740 LINE",
"282 774 LINE",
"343 944 LINE",
"465 885 LINE"
);
}
);
width = 748;
}
);
unicode = 0179;
},
{
glyphname = zacute;
layers = (
{
layerId = "CEEBABA5-0094-4467-BB67-138482C8FCD7";
paths = (
{
nodes = (
"722 626 LINE",
"444 70 LINE",
"722 70 LINE",
"722 0 LINE",
"27 0 LINE",
"27 70 LINE",
"305 626 LINE",
"27 626 LINE",
"27 695 LINE",
"722 695 LINE"
);
},
{
nodes = (
"368 740 LINE",
"282 774 LINE",
"343 944 LINE",
"465 885 LINE"
);
}
);
width = 748;
}
);
unicode = 017A;
},
{
glyphname = Zdotaccent;
layers = (
{
layerId = "CEEBABA5-0094-4467-BB67-138482C8FCD7";
paths = (
{
nodes = (
"281 856 OFFCURVE",
"295 888 OFFCURVE",
"318 913 OFFCURVE",
"350 927 OFFCURVE",
"368 927 QCURVE SMOOTH",
"386 927 OFFCURVE",
"418 913 OFFCURVE",
"442 888 OFFCURVE",
"456 856 OFFCURVE",
"456 838 QCURVE SMOOTH",
"456 820 OFFCURVE",
"442 787 OFFCURVE",
"418 763 OFFCURVE",
"386 749 OFFCURVE",
"368 749 QCURVE SMOOTH",
"332 749 OFFCURVE",
"281 801 OFFCURVE",
"281 838 QCURVE SMOOTH"
);
},
{
nodes = (
"722 626 LINE",
"444 70 LINE",
"722 70 LINE",
"722 0 LINE",
"27 0 LINE",
"27 70 LINE",
"305 626 LINE",
"27 626 LINE",
"27 695 LINE",
"722 695 LINE"
);
}
);
width = 748;
}
);
unicode = 017B;
},
{
glyphname = zdotaccent;
layers = (
{
layerId = "CEEBABA5-0094-4467-BB67-138482C8FCD7";
paths = (
{
nodes = (
"281 856 OFFCURVE",
"295 888 OFFCURVE",
"318 913 OFFCURVE",
"350 927 OFFCURVE",
"368 927 QCURVE SMOOTH",
"386 927 OFFCURVE",
"418 913 OFFCURVE",
"442 888 OFFCURVE",
"456 856 OFFCURVE",
"456 838 QCURVE SMOOTH",
"456 820 OFFCURVE",
"442 787 OFFCURVE",
"418 763 OFFCURVE",
"386 749 OFFCURVE",
"368 749 QCURVE SMOOTH",
"332 749 OFFCURVE",
"281 801 OFFCURVE",
"281 838 QCURVE SMOOTH"
);
},
{
nodes = (
"722 626 LINE",
"444 70 LINE",
"722 70 LINE",
"722 0 LINE",
"27 0 LINE",
"27 70 LINE",
"305 626 LINE",
"27 626 LINE",
"27 695 LINE",
"722 695 LINE"
);
}
);
width = 748;
}
);
unicode = 017C;
},
{
glyphname = Zcaron;
layers = (
{
layerId = "CEEBABA5-0094-4467-BB67-138482C8FCD7";
paths = (
{
nodes = (
"722 626 LINE",
"444 70 LINE",
"722 70 LINE",
"722 0 LINE",
"27 0 LINE",
"27 70 LINE",
"305 626 LINE",
"27 626 LINE",
"27 695 LINE",
"722 695 LINE"
);
},
{
nodes = (
"462 957 LINE",
"548 923 LINE",
"479 749 LINE",
"268 749 LINE",
"199 923 LINE",
"285 957 LINE",
"373 826 LINE"
);
}
);
width = 748;
}
);
unicode = 017D;
},
{
glyphname = zcaron;
layers = (
{
layerId = "CEEBABA5-0094-4467-BB67-138482C8FCD7";
paths = (
{
nodes = (
"722 626 LINE",
"444 70 LINE",
"722 70 LINE",
"722 0 LINE",
"27 0 LINE",
"27 70 LINE",
"305 626 LINE",
"27 626 LINE",
"27 695 LINE",
"722 695 LINE"
);
},
{
nodes = (
"462 957 LINE",
"548 923 LINE",
"479 749 LINE",
"268 749 LINE",
"199 923 LINE",
"285 957 LINE",
"373 826 LINE"
);
}
);
width = 748;
}
);
unicode = 017E;
},
{
glyphname = uni0218;
layers = (
{
layerId = "CEEBABA5-0094-4467-BB67-138482C8FCD7";
paths = (
{
nodes = (
"252 0 LINE SMOOTH",
"209 0 OFFCURVE",
"133 33 OFFCURVE",
"77 89 OFFCURVE",
"44 165 OFFCURVE",
"44 208 QCURVE SMOOTH",
"44 278 LINE",
"461 278 LINE",
"461 69 LINE",
"490 69 OFFCURVE",
"541 91 OFFCURVE",
"578 128 OFFCURVE",
"600 179 OFFCURVE",
"600 208 QCURVE SMOOTH",
"600 237 OFFCURVE",
"578 288 OFFCURVE",
"541 325 OFFCURVE",
"490 347 OFFCURVE",
"461 347 QCURVE SMOOTH",
"218 347 LINE SMOOTH",
"182 347 OFFCURVE",
"119 374 OFFCURVE",
"71 422 OFFCURVE",
"44 485 OFFCURVE",
"44 521 QCURVE SMOOTH",
"44 557 OFFCURVE",
"71 620 OFFCURVE",
"119 668 OFFCURVE",
"182 695 OFFCURVE",
"218 695 QCURVE SMOOTH",
"461 695 LINE SMOOTH",
"504 695 OFFCURVE",
"580 662 OFFCURVE",
"637 605 OFFCURVE",
"670 529 OFFCURVE",
"670 486 QCURVE",
"600 486 LINE",
"600 515 OFFCURVE",
"578 566 OFFCURVE",
"541 603 OFFCURVE",
"490 625 OFFCURVE",
"461 625 QCURVE",
"461 417 LINE",
"504 417 OFFCURVE",
"579 385 OFFCURVE",
"636 329 OFFCURVE",
"669 254 OFFCURVE",
"669 211 QCURVE SMOOTH",
"669 168 OFFCURVE",
"637 92 OFFCURVE",
"580 34 OFFCURVE",
"504 0 OFFCURVE",
"461 0 QCURVE SMOOTH"
);
},
{
nodes = (
"276 -44 LINE",
"384 -44 LINE",
"384 -135 LINE",
"276 -202 LINE"
);
}
);
width = 704;
}
);
unicode = 0218;
},
{
glyphname = uni0219;
layers = (
{
layerId = "CEEBABA5-0094-4467-BB67-138482C8FCD7";
paths = (
{
nodes = (
"252 0 LINE SMOOTH",
"209 0 OFFCURVE",
"133 33 OFFCURVE",
"77 89 OFFCURVE",
"44 165 OFFCURVE",
"44 208 QCURVE SMOOTH",
"44 278 LINE",
"461 278 LINE",
"461 69 LINE",
"490 69 OFFCURVE",
"541 91 OFFCURVE",
"578 128 OFFCURVE",
"600 179 OFFCURVE",
"600 208 QCURVE SMOOTH",
"600 237 OFFCURVE",
"578 288 OFFCURVE",
"541 325 OFFCURVE",
"490 347 OFFCURVE",
"461 347 QCURVE SMOOTH",
"218 347 LINE SMOOTH",
"182 347 OFFCURVE",
"119 374 OFFCURVE",
"71 422 OFFCURVE",
"44 485 OFFCURVE",
"44 521 QCURVE SMOOTH",
"44 557 OFFCURVE",
"71 620 OFFCURVE",
"119 668 OFFCURVE",
"182 695 OFFCURVE",
"218 695 QCURVE SMOOTH",
"461 695 LINE SMOOTH",
"504 695 OFFCURVE",
"580 662 OFFCURVE",
"637 605 OFFCURVE",
"670 529 OFFCURVE",
"670 486 QCURVE",
"600 486 LINE",
"600 515 OFFCURVE",
"578 566 OFFCURVE",
"541 603 OFFCURVE",
"490 625 OFFCURVE",
"461 625 QCURVE",
"461 417 LINE",
"504 417 OFFCURVE",
"579 385 OFFCURVE",
"636 329 OFFCURVE",
"669 254 OFFCURVE",
"669 211 QCURVE SMOOTH",
"669 168 OFFCURVE",
"637 92 OFFCURVE",
"580 34 OFFCURVE",
"504 0 OFFCURVE",
"461 0 QCURVE SMOOTH"
);
},
{
nodes = (
"276 -44 LINE",
"384 -44 LINE",
"384 -135 LINE",
"276 -202 LINE"
);
}
);
width = 710;
}
);
unicode = 0219;
},
{
glyphname = circumflex;
layers = (
{
layerId = "CEEBABA5-0094-4467-BB67-138482C8FCD7";
paths = (
{
nodes = (
"381 888 LINE",
"503 947 LINE",
"564 777 LINE",
"478 743 LINE"
);
},
{
nodes = (
"224 743 LINE",
"138 777 LINE",
"199 947 LINE",
"321 888 LINE"
);
}
);
width = 655;
}
);
unicode = 02C6;
},
{
glyphname = caron;
layers = (
{
layerId = "CEEBABA5-0094-4467-BB67-138482C8FCD7";
paths = (
{
nodes = (
"382 957 LINE",
"468 923 LINE",
"399 749 LINE",
"188 749 LINE",
"119 923 LINE",
"205 957 LINE",
"293 826 LINE"
);
}
);
width = 605;
}
);
unicode = 02C7;
},
{
glyphname = breve;
layers = (
{
layerId = "CEEBABA5-0094-4467-BB67-138482C8FCD7";
paths = (
{
nodes = (
"294 827 OFFCURVE",
"330 870 OFFCURVE",
"330 899 QCURVE",
"424 899 LINE",
"424 865 OFFCURVE",
"400 805 OFFCURVE",
"358 760 OFFCURVE",
"301 733 OFFCURVE",
"268 733 QCURVE SMOOTH",
"236 733 OFFCURVE",
"180 760 OFFCURVE",
"137 805 OFFCURVE",
"112 865 OFFCURVE",
"112 899 QCURVE",
"206 899 LINE",
"206 870 OFFCURVE",
"242 827 OFFCURVE",
"268 827 QCURVE SMOOTH"
);
}
);
width = 499;
}
);
unicode = 02D8;
},
{
glyphname = ring;
layers = (
{
layerId = "CEEBABA5-0094-4467-BB67-138482C8FCD7";
paths = (
{
nodes = (
"156 740 OFFCURVE",
"118 756 OFFCURVE",
"90 785 OFFCURVE",
"74 822 OFFCURVE",
"74 843 QCURVE SMOOTH",
"74 886 OFFCURVE",
"134 944 OFFCURVE",
"177 944 QCURVE SMOOTH",
"198 944 OFFCURVE",
"235 928 OFFCURVE",
"263 901 OFFCURVE",
"280 864 OFFCURVE",
"280 843 QCURVE SMOOTH",
"280 822 OFFCURVE",
"263 785 OFFCURVE",
"235 756 OFFCURVE",
"198 740 OFFCURVE",
"177 740 QCURVE SMOOTH"
);
},
{
nodes = (
"158 890 OFFCURVE",
"131 864 OFFCURVE",
"131 844 QCURVE SMOOTH",
"131 827 OFFCURVE",
"158 798 OFFCURVE",
"180 798 QCURVE SMOOTH",
"200 798 OFFCURVE",
"228 827 OFFCURVE",
"228 844 QCURVE SMOOTH",
"228 864 OFFCURVE",
"200 890 OFFCURVE",
"180 890 QCURVE SMOOTH"
);
}
);
width = 342;
}
);
unicode = 02DA;
},
{
glyphname = ogonek;
layers = (
{
layerId = "CEEBABA5-0094-4467-BB67-138482C8FCD7";
paths = (
{
nodes = (
"251 -150 LINE SMOOTH",
"251 -117 OFFCURVE",
"297 -71 OFFCURVE",
"331 -71 QCURVE SMOOTH",
"374 -71 LINE",
"374 0 LINE",
"468 0 LINE",
"468 -106 LINE",
"361 -106 LINE",
"361 -135 OFFCURVE",
"362 -198 OFFCURVE",
"362 -227 QCURVE",
"432 -227 LINE SMOOTH",
"452 -227 OFFCURVE",
"480 -193 OFFCURVE",
"480 -170 QCURVE",
"526 -170 LINE",
"526 -191 OFFCURVE",
"511 -228 OFFCURVE",
"485 -255 OFFCURVE",
"451 -270 OFFCURVE",
"432 -270 QCURVE SMOOTH",
"331 -270 LINE SMOOTH",
"297 -270 OFFCURVE",
"251 -226 OFFCURVE",
"251 -192 QCURVE SMOOTH"
);
}
);
width = 833;
}
);
unicode = 02DB;
},
{
glyphname = tilde;
layers = (
{
layerId = "CEEBABA5-0094-4467-BB67-138482C8FCD7";
paths = (
{
nodes = (
"538 910 LINE",
"533 890 OFFCURVE",
"523 838 OFFCURVE",
"503 792 OFFCURVE",
"469 760 OFFCURVE",
"441 760 QCURVE SMOOTH",
"415 760 OFFCURVE",
"350 781 OFFCURVE",
"323 788 QCURVE",
"323 789 LINE",
"321 789 OFFCURVE",
"305 793 OFFCURVE",
"288 799 OFFCURVE",
"273 803 OFFCURVE",
"272 803 QCURVE",
"255 803 OFFCURVE",
"215 788 OFFCURVE",
"210 768 QCURVE",
"165 780 LINE",
"170 801 OFFCURVE",
"180 853 OFFCURVE",
"200 899 OFFCURVE",
"233 930 OFFCURVE",
"262 930 QCURVE SMOOTH",
"281 930 OFFCURVE",
"326 917 OFFCURVE",
"373 900 OFFCURVE",
"416 887 OFFCURVE",
"433 887 QCURVE SMOOTH",
"451 887 OFFCURVE",
"489 903 OFFCURVE",
"494 923 QCURVE"
);
}
);
width = 713;
}
);
unicode = 02DC;
},
{
glyphname = hungarumlaut;
layers = (
{
layerId = "CEEBABA5-0094-4467-BB67-138482C8FCD7";
paths = (
{
nodes = (
"227 740 LINE",
"141 774 LINE",
"202 944 LINE",
"324 885 LINE"
);
},
{
nodes = (
"500 740 LINE",
"414 774 LINE",
"475 944 LINE",
"597 885 LINE"
);
}
);
width = 691;
}
);
unicode = 02DD;
},
{
glyphname = gravecomb;
layers = (
{
layerId = "CEEBABA5-0094-4467-BB67-138482C8FCD7";
paths = (
{
nodes = (
"144 888 LINE",
"266 947 LINE",
"327 777 LINE",
"241 743 LINE"
);
}
);
width = 439;
}
);
unicode = 0300;
},
{
glyphname = acutecomb;
layers = (
{
layerId = "CEEBABA5-0094-4467-BB67-138482C8FCD7";
paths = (
{
nodes = (
"211 740 LINE",
"125 774 LINE",
"186 944 LINE",
"308 885 LINE"
);
}
);
width = 397;
}
);
unicode = 0301;
},
{
glyphname = tildecomb;
layers = (
{
layerId = "CEEBABA5-0094-4467-BB67-138482C8FCD7";
paths = (
{
nodes = (
"538 910 LINE",
"533 890 OFFCURVE",
"523 838 OFFCURVE",
"503 792 OFFCURVE",
"469 760 OFFCURVE",
"441 760 QCURVE SMOOTH",
"415 760 OFFCURVE",
"350 781 OFFCURVE",
"323 788 QCURVE",
"323 789 LINE",
"321 789 OFFCURVE",
"305 793 OFFCURVE",
"288 799 OFFCURVE",
"273 803 OFFCURVE",
"272 803 QCURVE",
"255 803 OFFCURVE",
"215 788 OFFCURVE",
"210 768 QCURVE",
"165 780 LINE",
"170 801 OFFCURVE",
"180 853 OFFCURVE",
"200 899 OFFCURVE",
"233 930 OFFCURVE",
"262 930 QCURVE SMOOTH",
"281 930 OFFCURVE",
"326 917 OFFCURVE",
"373 900 OFFCURVE",
"416 887 OFFCURVE",
"433 887 QCURVE SMOOTH",
"451 887 OFFCURVE",
"489 903 OFFCURVE",
"494 923 QCURVE"
);
}
);
width = 627;
}
);
unicode = 0303;
},
{
glyphname = uni0304;
layers = (
{
layerId = "CEEBABA5-0094-4467-BB67-138482C8FCD7";
paths = (
{
nodes = (
"92 856 LINE",
"493 856 LINE",
"493 745 LINE",
"92 745 LINE"
);
}
);
width = 582;
}
);
unicode = 0304;
},
